<?plantuml 1.2026.2?><svg xmlns="http://www.w3.org/2000/svg" xmlns:xlink="http://www.w3.org/1999/xlink" contentStyleType="text/css" data-diagram-type="STATE" height="464px" preserveAspectRatio="none" style="width:201px;height:464px;background:#FFFFFF;" version="1.1" viewBox="0 0 201 464" width="201px" zoomAndPan="magnify"><defs/><g><!--cluster pattern_6--><g class="cluster" data-qualified-name="pattern_6" data-source-line="12" id="ent0002"><path d="M19.5,92 L175.5,92 A12.5,12.5 0 0 1 188,104.5 L188,113.2969 L7,113.2969 L7,104.5 A12.5,12.5 0 0 1 19.5,92" fill="#F1F1F1"/><rect fill="none" height="278.72" rx="12.5" ry="12.5" style="stroke:#181818;stroke-width:0.5;" width="181" x="7" y="92"/><line style="stroke:#181818;stroke-width:0.5;" x1="7" x2="188" y1="113.2969" y2="113.2969"/><text fill="#000000" font-family="sans-serif" font-size="14" lengthAdjust="spacing" textLength="65.6455" x="64.6772" y="109.9951">pattern-6</text></g><!--cluster step--><g class="cluster" data-qualified-name="pattern_6.step" data-source-line="33" id="ent0006"><path d="M58.5,166 L163.5,166 A12.5,12.5 0 0 1 176,178.5 L176,187.2969 L46,187.2969 L46,178.5 A12.5,12.5 0 0 1 58.5,166" fill="#F1F1F1"/><rect fill="none" height="132.72" rx="12.5" ry="12.5" style="stroke:#181818;stroke-width:0.5;" width="130" x="46" y="166"/><line style="stroke:#181818;stroke-width:0.5;" x1="46" x2="176" y1="187.2969" y2="187.2969"/><text fill="#000000" font-family="sans-serif" font-size="14" lengthAdjust="spacing" textLength="30.2832" x="95.8584" y="183.9951">step</text></g><text fill="#000000" font-family="sans-serif" font-size="14" lengthAdjust="spacing" textLength="21.0342" x="147.4829" y="70.6982">aoi</text><ellipse cx="158" cy="92" fill="#F1F1F1" rx="6" ry="6" style="stroke:#181818;stroke-width:1.5;"/><text fill="#000000" font-family="sans-serif" font-size="14" lengthAdjust="spacing" textLength="33.6807" x="94.1597" y="70.6982">epsg</text><ellipse cx="111" cy="92" fill="#F1F1F1" rx="6" ry="6" style="stroke:#181818;stroke-width:1.5;"/><text fill="#000000" font-family="sans-serif" font-size="14" lengthAdjust="spacing" textLength="31.6299" x="48.1851" y="70.6982">item</text><ellipse cx="64" cy="92" fill="#F1F1F1" rx="6" ry="6" style="stroke:#181818;stroke-width:1.5;"/><text fill="#000000" font-family="sans-serif" font-size="14" lengthAdjust="spacing" textLength="39.7031" x="91.1484" y="389.7151">mean</text><ellipse cx="111" cy="370.72" fill="#F1F1F1" rx="6" ry="6" style="stroke:#181818;stroke-width:1.5;"/><line style="stroke:#181818;stroke-width:1.5;" x1="115.3891" x2="107.6109" y1="375.1091" y2="367.3309"/><line style="stroke:#181818;stroke-width:1.5;" x1="115.3891" x2="107.6109" y1="367.3309" y2="375.1091"/><text fill="#000000" font-family="sans-serif" font-size="14" lengthAdjust="spacing" textLength="31.6299" x="48.1851" y="144.6982">item</text><ellipse cx="64" cy="166" fill="#F1F1F1" rx="6" ry="6" style="stroke:#181818;stroke-width:1.5;"/><text fill="#000000" font-family="sans-serif" font-size="14" lengthAdjust="spacing" textLength="21.0342" x="147.4829" y="144.6982">aoi</text><ellipse cx="158" cy="166" fill="#F1F1F1" rx="6" ry="6" style="stroke:#181818;stroke-width:1.5;"/><text fill="#000000" font-family="sans-serif" font-size="14" lengthAdjust="spacing" textLength="33.6807" x="94.1597" y="144.6982">epsg</text><ellipse cx="111" cy="166" fill="#F1F1F1" rx="6" ry="6" style="stroke:#181818;stroke-width:1.5;"/><text fill="#000000" font-family="sans-serif" font-size="14" lengthAdjust="spacing" textLength="39.7031" x="91.1484" y="317.7151">mean</text><ellipse cx="111" cy="298.72" fill="#F1F1F1" rx="6" ry="6" style="stroke:#181818;stroke-width:1.5;"/><line style="stroke:#181818;stroke-width:1.5;" x1="115.3891" x2="107.6109" y1="303.1091" y2="295.3309"/><line style="stroke:#181818;stroke-width:1.5;" x1="115.3891" x2="107.6109" y1="295.3309" y2="303.1091"/><g class="start_entity" data-qualified-name=".start." data-source-line="76" id="ent0006"><ellipse cx="111" cy="16" fill="#222222" rx="10" ry="10" style="stroke:#222222;stroke-width:1;"/></g><g class="end_entity" data-qualified-name=".end." data-source-line="84" id="ent0010"><ellipse cx="111" cy="447.72" fill="none" rx="11" ry="11" style="stroke:#222222;stroke-width:1;"/><ellipse cx="111" cy="447.72" fill="#222222" rx="6" ry="6" style="stroke:#222222;stroke-width:1;"/></g><!--link pattern_6_item to step_item--><g class="link" data-entity-1="ent0005" data-entity-2="ent0007" data-link-type="dependency" data-source-line="39" id="lnk2"><path d="M64,98.18 C64,111.46 64,140.64 64,153.87" fill="none" id="pattern_6_item-to-step_item" style="stroke:#181818;stroke-width:1;"/><polygon fill="#181818" points="64,159.87,68,150.87,64,154.87,60,150.87,64,159.87" style="stroke:#181818;stroke-width:1;"/></g><!--link pattern_6_aoi to step_aoi--><g class="link" data-entity-1="ent0003" data-entity-2="ent0008" data-link-type="dependency" data-source-line="47" id="lnk3"><path d="M158,98.18 C158,111.46 158,140.64 158,153.87" fill="none" id="pattern_6_aoi-to-step_aoi" style="stroke:#181818;stroke-width:1;"/><polygon fill="#181818" points="158,159.87,162,150.87,158,154.87,154,150.87,158,159.87" style="stroke:#181818;stroke-width:1;"/></g><!--link pattern_6_epsg to step_epsg--><g class="link" data-entity-1="ent0004" data-entity-2="ent0009" data-link-type="dependency" data-source-line="55" id="lnk4"><path d="M111,98.18 C111,111.46 111,140.64 111,153.87" fill="none" id="pattern_6_epsg-to-step_epsg" style="stroke:#181818;stroke-width:1;"/><polygon fill="#181818" points="111,159.87,115,150.87,111,154.87,107,150.87,111,159.87" style="stroke:#181818;stroke-width:1;"/></g><!--link step_mean to pattern_6_mean--><g class="link" data-entity-1="ent0010" data-entity-2="ent0011" data-link-type="dependency" data-source-line="71" id="lnk5"><path d="M111,304.75 C111,317.54 111,345.2 111,358.35" fill="none" id="step_mean-to-pattern_6_mean" style="stroke:#181818;stroke-width:1;"/><polygon fill="#181818" points="111,364.35,115,355.35,111,359.35,107,355.35,111,364.35" style="stroke:#181818;stroke-width:1;"/></g><!--link *start* to pattern_6_aoi--><g class="link" data-entity-1="ent0006" data-entity-2="ent0003" data-link-type="dependency" data-source-line="76" id="lnk7"><path d="M116.03,24.92 C125.69,40.13 143.3954,67.9938 151.4854,80.7438" fill="none" id="*start*-to-pattern_6_aoi" style="stroke:#181818;stroke-width:1;"/><polygon fill="#181818" points="154.7,85.81,153.2556,76.0676,152.0212,81.5882,146.5007,80.3537,154.7,85.81" style="stroke:#181818;stroke-width:1;"/></g><!--link *start* to pattern_6_epsg--><g class="link" data-entity-1="ent0006" data-entity-2="ent0004" data-link-type="dependency" data-source-line="78" id="lnk8"><path d="M111,26.07 C111,41.67 111,67.08 111,79.63" fill="none" id="*start*-to-pattern_6_epsg" style="stroke:#181818;stroke-width:1;"/><polygon fill="#181818" points="111,85.63,115,76.63,111,80.63,107,76.63,111,85.63" style="stroke:#181818;stroke-width:1;"/></g><!--link *start* to pattern_6_item--><g class="link" data-entity-1="ent0006" data-entity-2="ent0005" data-link-type="dependency" data-source-line="80" id="lnk9"><path d="M105.97,24.92 C96.31,40.13 78.6046,67.9938 70.5146,80.7438" fill="none" id="*start*-to-pattern_6_item" style="stroke:#181818;stroke-width:1;"/><polygon fill="#181818" points="67.3,85.81,75.4993,80.3537,69.9788,81.5882,68.7444,76.0676,67.3,85.81" style="stroke:#181818;stroke-width:1;"/></g><!--link pattern_6_mean to *end*--><g class="link" data-entity-1="ent0011" data-entity-2="ent0010" data-link-type="dependency" data-source-line="84" id="lnk11"><path d="M111,377.11 C111,389.54 111,414.36 111,430.5" fill="none" id="pattern_6_mean-to-*end*" style="stroke:#181818;stroke-width:1;"/><polygon fill="#181818" points="111,436.5,115,427.5,111,431.5,107,427.5,111,436.5" style="stroke:#181818;stroke-width:1;"/></g><?plantuml-src hL9TQuCm57ttLrpwKXZOEZkqIF5fFs0FUnkZPFLY0qqCUlSXO_zznZcDcR6mDeXmFyx9ERbtlVHW2VUSvIKJaAF4aX5cy5B3uVqKgbTnWhTWTHUl0jr8N615JAW4mY2C_63hXzl7sqqIHiacNaMnxbfxtf5d22WKrP1XTIYv8bv8hpqDdX0MYX5XAVre0Qo2Bjf7yEb1SzfVryaAFkxPDndOxL1IMJyKN5AQ_W6Xgd8BfLFdO9nGM32TceHv-hEEEt7bYY6w8bJTiurwR4kwp-bcreHRcFLClfyErvodSVDQesyv7LE_MBdcxOKtmHLqzzlNSheMxsBbBN4lNKV_qUvq8P39mOMEj8iFJhQ97uglCP71Q_CD3cP83VJlxThg63jZov3pTFDiOSqnJvH7JpbH7wstOTGofa4D-1i0?></g></svg>