<?plantuml 1.2026.2?><svg xmlns="http://www.w3.org/2000/svg" xmlns:xlink="http://www.w3.org/1999/xlink" contentStyleType="text/css" data-diagram-type="ACTIVITY" height="377px" preserveAspectRatio="none" style="width:436px;height:377px;background:#FFFFFF;" version="1.1" viewBox="0 0 436 377" width="436px" zoomAndPan="magnify"><defs/><g><ellipse cx="218.418" cy="20" fill="#222222" rx="10" ry="10" style="stroke:#222222;stroke-width:1;"/><rect fill="none" height="284.1719" style="stroke:#000000;stroke-width:1.5;" width="414.8359" x="11" y="40"/><path d="M86.6455,40 L86.6455,49.2969 L76.6455,59.2969 L11,59.2969" fill="none" style="stroke:#000000;stroke-width:1.5;"/><text fill="#000000" font-family="sans-serif" font-size="14" lengthAdjust="spacing" textLength="65.6455" x="14" y="53.9951">pattern-2</text><line style="stroke:#181818;stroke-width:1.5;" x1="42.0146" x2="373.4629" y1="76.2969" y2="76.2969"/><polygon fill="#F1F1F1" points="23,96.2969,71.0293,96.2969,61.0293,113.2813,71.0293,130.2656,23,130.2656" style="stroke:#181818;stroke-width:0.5;"/><text fill="#000000" font-family="sans-serif" font-size="12" lengthAdjust="spacing" textLength="18.0293" x="33" y="117.4355">aoi</text><polygon fill="#F1F1F1" points="81.0293,96.2969,139.8984,96.2969,129.8984,113.2813,139.8984,130.2656,81.0293,130.2656" style="stroke:#181818;stroke-width:0.5;"/><text fill="#000000" font-family="sans-serif" font-size="12" lengthAdjust="spacing" textLength="28.8691" x="91.0293" y="117.4355">epsg</text><polygon fill="#F1F1F1" points="167.8984,96.2969,234.3438,96.2969,224.3438,113.2813,234.3438,130.2656,167.8984,130.2656" style="stroke:#181818;stroke-width:0.5;"/><text fill="#000000" font-family="sans-serif" font-size="12" lengthAdjust="spacing" textLength="36.4453" x="177.8984" y="117.4355">bands</text><polygon fill="#F1F1F1" points="262.3438,96.2969,333.0898,96.2969,323.0898,113.2813,333.0898,130.2656,262.3438,130.2656" style="stroke:#181818;stroke-width:0.5;"/><text fill="#000000" font-family="sans-serif" font-size="12" lengthAdjust="spacing" textLength="40.7461" x="272.3438" y="117.4355">item_1</text><polygon fill="#F1F1F1" points="343.0898,96.2969,413.8359,96.2969,403.8359,113.2813,413.8359,130.2656,343.0898,130.2656" style="stroke:#181818;stroke-width:0.5;"/><text fill="#000000" font-family="sans-serif" font-size="12" lengthAdjust="spacing" textLength="40.7461" x="353.0898" y="117.4355">item_2</text><line style="stroke:#181818;stroke-width:1.5;" x1="42.0146" x2="373.4629" y1="150.2656" y2="150.2656"/><rect fill="#F1F1F1" height="47.9375" rx="12.5" ry="12.5" style="stroke:#181818;stroke-width:0.5;" width="154.5254" x="141.1553" y="170.2656"/><text fill="#000000" font-family="sans-serif" font-size="12" lengthAdjust="spacing" textLength="59.7715" x="151.1553" y="191.4043">step: step</text><text fill="#000000" font-family="sans-serif" font-size="12" lengthAdjust="spacing" textLength="134.5254" x="151.1553" y="205.373">CommandLineTool: clt</text><line style="stroke:#181818;stroke-width:1.5;" x1="213.418" x2="218.418" y1="238.2031" y2="238.2031"/><polygon fill="#F1F1F1" points="163.5508,258.2031,263.2852,258.2031,273.2852,275.1875,263.2852,292.1719,163.5508,292.1719" style="stroke:#181818;stroke-width:0.5;"/><text fill="#000000" font-family="sans-serif" font-size="12" lengthAdjust="spacing" textLength="79.7344" x="173.5508" y="279.3418">water_bodies</text><line style="stroke:#181818;stroke-width:1.5;" x1="213.418" x2="218.418" y1="312.1719" y2="312.1719"/><ellipse cx="218.418" cy="355.1719" fill="none" rx="11" ry="11" style="stroke:#222222;stroke-width:1;"/><ellipse cx="218.418" cy="355.1719" fill="#222222" rx="6" ry="6" style="stroke:#222222;stroke-width:1;"/><line style="stroke:#181818;stroke-width:1;" x1="42.0146" x2="42.0146" y1="77.7969" y2="96.2969"/><polygon fill="#181818" points="38.0146,86.2969,42.0146,96.2969,46.0146,86.2969,42.0146,90.2969" style="stroke:#181818;stroke-width:1;"/><line style="stroke:#181818;stroke-width:1;" x1="105.4639" x2="105.4639" y1="77.7969" y2="96.2969"/><polygon fill="#181818" points="101.4639,86.2969,105.4639,96.2969,109.4639,86.2969,105.4639,90.2969" style="stroke:#181818;stroke-width:1;"/><line style="stroke:#181818;stroke-width:1;" x1="196.1211" x2="196.1211" y1="77.7969" y2="96.2969"/><polygon fill="#181818" points="192.1211,86.2969,196.1211,96.2969,200.1211,86.2969,196.1211,90.2969" style="stroke:#181818;stroke-width:1;"/><line style="stroke:#181818;stroke-width:1;" x1="292.7168" x2="292.7168" y1="77.7969" y2="96.2969"/><polygon fill="#181818" points="288.7168,86.2969,292.7168,96.2969,296.7168,86.2969,292.7168,90.2969" style="stroke:#181818;stroke-width:1;"/><line style="stroke:#181818;stroke-width:1;" x1="373.4629" x2="373.4629" y1="77.7969" y2="96.2969"/><polygon fill="#181818" points="369.4629,86.2969,373.4629,96.2969,377.4629,86.2969,373.4629,90.2969" style="stroke:#181818;stroke-width:1;"/><line style="stroke:#181818;stroke-width:1;" x1="42.0146" x2="42.0146" y1="130.2656" y2="150.2656"/><polygon fill="#181818" points="38.0146,140.2656,42.0146,150.2656,46.0146,140.2656,42.0146,144.2656" style="stroke:#181818;stroke-width:1;"/><line style="stroke:#181818;stroke-width:1;" x1="105.4639" x2="105.4639" y1="130.2656" y2="150.2656"/><polygon fill="#181818" points="101.4639,140.2656,105.4639,150.2656,109.4639,140.2656,105.4639,144.2656" style="stroke:#181818;stroke-width:1;"/><line style="stroke:#181818;stroke-width:1;" x1="196.1211" x2="196.1211" y1="130.2656" y2="150.2656"/><polygon fill="#181818" points="192.1211,140.2656,196.1211,150.2656,200.1211,140.2656,196.1211,144.2656" style="stroke:#181818;stroke-width:1;"/><line style="stroke:#181818;stroke-width:1;" x1="292.7168" x2="292.7168" y1="130.2656" y2="150.2656"/><polygon fill="#181818" points="288.7168,140.2656,292.7168,150.2656,296.7168,140.2656,292.7168,144.2656" style="stroke:#181818;stroke-width:1;"/><line style="stroke:#181818;stroke-width:1;" x1="373.4629" x2="373.4629" y1="130.2656" y2="150.2656"/><polygon fill="#181818" points="369.4629,140.2656,373.4629,150.2656,377.4629,140.2656,373.4629,144.2656" style="stroke:#181818;stroke-width:1;"/><line style="stroke:#181818;stroke-width:1;" x1="218.418" x2="218.418" y1="151.7656" y2="170.2656"/><polygon fill="#181818" points="214.418,160.2656,218.418,170.2656,222.418,160.2656,218.418,164.2656" style="stroke:#181818;stroke-width:1;"/><line style="stroke:#181818;stroke-width:1;" x1="213.418" x2="213.418" y1="239.7031" y2="258.2031"/><polygon fill="#181818" points="209.418,248.2031,213.418,258.2031,217.418,248.2031,213.418,252.2031" style="stroke:#181818;stroke-width:1;"/><line style="stroke:#181818;stroke-width:1;" x1="213.418" x2="213.418" y1="292.1719" y2="312.1719"/><polygon fill="#181818" points="209.418,302.1719,213.418,312.1719,217.418,302.1719,213.418,306.1719" style="stroke:#181818;stroke-width:1;"/><line style="stroke:#181818;stroke-width:1;" x1="218.418" x2="218.418" y1="218.2031" y2="238.2031"/><polygon fill="#181818" points="214.418,228.2031,218.418,238.2031,222.418,228.2031,218.418,232.2031" style="stroke:#181818;stroke-width:1;"/><line style="stroke:#181818;stroke-width:1;" x1="218.418" x2="218.418" y1="30" y2="76.2969"/><polygon fill="#181818" points="214.418,66.2969,218.418,76.2969,222.418,66.2969,218.418,70.2969" style="stroke:#181818;stroke-width:1;"/><line style="stroke:#181818;stroke-width:1;" x1="218.418" x2="218.418" y1="313.6719" y2="344.1719"/><polygon fill="#181818" points="214.418,334.1719,218.418,344.1719,222.418,334.1719,218.418,338.1719" style="stroke:#181818;stroke-width:1;"/><?plantuml-src ZP4_QmCn3CLtVmfjcUxYE6aQd92b7Jjc3xwSC0B_mwTBAANVlJwtj4Sff6zuCkWdU9QM2m4BU2PZi_5WCM0sZ3rqht2vEPL6x-0gsyrZAoUGoUF0nYSDIgfj8tUDsfrMQwqUz6RTogqgr5A8mcGMLJR7CK4op9X3e-2jT9CZ5b1KJPj8UpWSAAIHZyVFDXXhACmWJ8EzJtKczCDzZ1ZzUVLFJiqv33tCydzvBTzZzQ47nhAcoSLJzBu4Uw60fnYTXelZ_GywwVTERkKC-Tp5dh3-9uxyTu3tQPXZ-W00?></g></svg>