<?plantuml 1.2026.2?><svg xmlns="http://www.w3.org/2000/svg" xmlns:xlink="http://www.w3.org/1999/xlink" contentStyleType="text/css" data-diagram-type="ACTIVITY" height="377px" preserveAspectRatio="none" style="width:415px;height:377px;background:#FFFFFF;" version="1.1" viewBox="0 0 415 377" width="415px" zoomAndPan="magnify"><defs/><g><ellipse cx="211.0957" cy="20" fill="#222222" rx="10" ry="10" style="stroke:#222222;stroke-width:1;"/><rect fill="none" height="284.1719" style="stroke:#000000;stroke-width:1.5;" width="393.668" x="11" y="40"/><path d="M95.5527,40 L95.5527,49.2969 L85.5527,59.2969 L11,59.2969" fill="none" style="stroke:#000000;stroke-width:1.5;"/><text fill="#000000" font-family="sans-serif" font-size="14" lengthAdjust="spacing" textLength="74.5527" x="14" y="53.9951">pattern-11</text><line style="stroke:#181818;stroke-width:1.5;" x1="42.0146" x2="359.3232" y1="76.2969" y2="76.2969"/><polygon fill="#F1F1F1" points="23,96.2969,71.0293,96.2969,61.0293,113.2813,71.0293,130.2656,23,130.2656" style="stroke:#181818;stroke-width:0.5;"/><text fill="#000000" font-family="sans-serif" font-size="12" lengthAdjust="spacing" textLength="18.0293" x="33" y="117.4355">aoi</text><polygon fill="#F1F1F1" points="87.5527,96.2969,146.4219,96.2969,136.4219,113.2813,146.4219,130.2656,87.5527,130.2656" style="stroke:#181818;stroke-width:0.5;"/><text fill="#000000" font-family="sans-serif" font-size="12" lengthAdjust="spacing" textLength="28.8691" x="97.5527" y="117.4355">epsg</text><polygon fill="#F1F1F1" points="174.4219,96.2969,240.8672,96.2969,230.8672,113.2813,240.8672,130.2656,174.4219,130.2656" style="stroke:#181818;stroke-width:0.5;"/><text fill="#000000" font-family="sans-serif" font-size="12" lengthAdjust="spacing" textLength="36.4453" x="184.4219" y="117.4355">bands</text><polygon fill="#F1F1F1" points="268.8672,96.2969,325.9785,96.2969,315.9785,113.2813,325.9785,130.2656,268.8672,130.2656" style="stroke:#181818;stroke-width:0.5;"/><text fill="#000000" font-family="sans-serif" font-size="12" lengthAdjust="spacing" textLength="27.1113" x="278.8672" y="117.4355">item</text><polygon fill="#F1F1F1" points="335.9785,96.2969,392.668,96.2969,382.668,113.2813,392.668,130.2656,335.9785,130.2656" style="stroke:#181818;stroke-width:0.5;"/><text fill="#000000" font-family="sans-serif" font-size="12" lengthAdjust="spacing" textLength="26.6895" x="345.9785" y="117.4355">dem</text><line style="stroke:#181818;stroke-width:1.5;" x1="42.0146" x2="359.3232" y1="150.2656" y2="150.2656"/><rect fill="#F1F1F1" height="47.9375" rx="12.5" ry="12.5" style="stroke:#181818;stroke-width:0.5;" width="154.5254" x="133.833" y="170.2656"/><text fill="#000000" font-family="sans-serif" font-size="12" lengthAdjust="spacing" textLength="59.7715" x="143.833" y="191.4043">step: step</text><text fill="#000000" font-family="sans-serif" font-size="12" lengthAdjust="spacing" textLength="134.5254" x="143.833" y="205.373">CommandLineTool: clt</text><line style="stroke:#181818;stroke-width:1.5;" x1="206.0957" x2="211.0957" y1="238.2031" y2="238.2031"/><polygon fill="#F1F1F1" points="156.2285,258.2031,255.9629,258.2031,265.9629,275.1875,255.9629,292.1719,156.2285,292.1719" style="stroke:#181818;stroke-width:0.5;"/><text fill="#000000" font-family="sans-serif" font-size="12" lengthAdjust="spacing" textLength="79.7344" x="166.2285" y="279.3418">water_bodies</text><line style="stroke:#181818;stroke-width:1.5;" x1="206.0957" x2="211.0957" y1="312.1719" y2="312.1719"/><ellipse cx="211.0957" cy="355.1719" fill="none" rx="11" ry="11" style="stroke:#222222;stroke-width:1;"/><ellipse cx="211.0957" cy="355.1719" fill="#222222" rx="6" ry="6" style="stroke:#222222;stroke-width:1;"/><line style="stroke:#181818;stroke-width:1;" x1="42.0146" x2="42.0146" y1="77.7969" y2="96.2969"/><polygon fill="#181818" points="38.0146,86.2969,42.0146,96.2969,46.0146,86.2969,42.0146,90.2969" style="stroke:#181818;stroke-width:1;"/><line style="stroke:#181818;stroke-width:1;" x1="111.9873" x2="111.9873" y1="77.7969" y2="96.2969"/><polygon fill="#181818" points="107.9873,86.2969,111.9873,96.2969,115.9873,86.2969,111.9873,90.2969" style="stroke:#181818;stroke-width:1;"/><line style="stroke:#181818;stroke-width:1;" x1="202.6445" x2="202.6445" y1="77.7969" y2="96.2969"/><polygon fill="#181818" points="198.6445,86.2969,202.6445,96.2969,206.6445,86.2969,202.6445,90.2969" style="stroke:#181818;stroke-width:1;"/><line style="stroke:#181818;stroke-width:1;" x1="292.4229" x2="292.4229" y1="77.7969" y2="96.2969"/><polygon fill="#181818" points="288.4229,86.2969,292.4229,96.2969,296.4229,86.2969,292.4229,90.2969" style="stroke:#181818;stroke-width:1;"/><line style="stroke:#181818;stroke-width:1;" x1="359.3232" x2="359.3232" y1="77.7969" y2="96.2969"/><polygon fill="#181818" points="355.3232,86.2969,359.3232,96.2969,363.3232,86.2969,359.3232,90.2969" style="stroke:#181818;stroke-width:1;"/><line style="stroke:#181818;stroke-width:1;" x1="42.0146" x2="42.0146" y1="130.2656" y2="150.2656"/><polygon fill="#181818" points="38.0146,140.2656,42.0146,150.2656,46.0146,140.2656,42.0146,144.2656" style="stroke:#181818;stroke-width:1;"/><line style="stroke:#181818;stroke-width:1;" x1="111.9873" x2="111.9873" y1="130.2656" y2="150.2656"/><polygon fill="#181818" points="107.9873,140.2656,111.9873,150.2656,115.9873,140.2656,111.9873,144.2656" style="stroke:#181818;stroke-width:1;"/><line style="stroke:#181818;stroke-width:1;" x1="202.6445" x2="202.6445" y1="130.2656" y2="150.2656"/><polygon fill="#181818" points="198.6445,140.2656,202.6445,150.2656,206.6445,140.2656,202.6445,144.2656" style="stroke:#181818;stroke-width:1;"/><line style="stroke:#181818;stroke-width:1;" x1="292.4229" x2="292.4229" y1="130.2656" y2="150.2656"/><polygon fill="#181818" points="288.4229,140.2656,292.4229,150.2656,296.4229,140.2656,292.4229,144.2656" style="stroke:#181818;stroke-width:1;"/><line style="stroke:#181818;stroke-width:1;" x1="359.3232" x2="359.3232" y1="130.2656" y2="150.2656"/><polygon fill="#181818" points="355.3232,140.2656,359.3232,150.2656,363.3232,140.2656,359.3232,144.2656" style="stroke:#181818;stroke-width:1;"/><line style="stroke:#181818;stroke-width:1;" x1="211.0957" x2="211.0957" y1="151.7656" y2="170.2656"/><polygon fill="#181818" points="207.0957,160.2656,211.0957,170.2656,215.0957,160.2656,211.0957,164.2656" style="stroke:#181818;stroke-width:1;"/><line style="stroke:#181818;stroke-width:1;" x1="206.0957" x2="206.0957" y1="239.7031" y2="258.2031"/><polygon fill="#181818" points="202.0957,248.2031,206.0957,258.2031,210.0957,248.2031,206.0957,252.2031" style="stroke:#181818;stroke-width:1;"/><line style="stroke:#181818;stroke-width:1;" x1="206.0957" x2="206.0957" y1="292.1719" y2="312.1719"/><polygon fill="#181818" points="202.0957,302.1719,206.0957,312.1719,210.0957,302.1719,206.0957,306.1719" style="stroke:#181818;stroke-width:1;"/><line style="stroke:#181818;stroke-width:1;" x1="211.0957" x2="211.0957" y1="218.2031" y2="238.2031"/><polygon fill="#181818" points="207.0957,228.2031,211.0957,238.2031,215.0957,228.2031,211.0957,232.2031" style="stroke:#181818;stroke-width:1;"/><line style="stroke:#181818;stroke-width:1;" x1="211.0957" x2="211.0957" y1="30" y2="76.2969"/><polygon fill="#181818" points="207.0957,66.2969,211.0957,76.2969,215.0957,66.2969,211.0957,70.2969" style="stroke:#181818;stroke-width:1;"/><line style="stroke:#181818;stroke-width:1;" x1="211.0957" x2="211.0957" y1="313.6719" y2="344.1719"/><polygon fill="#181818" points="207.0957,334.1719,211.0957,344.1719,215.0957,334.1719,211.0957,338.1719" style="stroke:#181818;stroke-width:1;"/><?plantuml-src XP5FQyCm3CNl_XIwzPGqyRArkAMNxhXZxyMfXJ7u7uxIKag_-nntRDqOv1sU3Fe9dgNbWi42tetKIJhGw359GWNz5KuNo-FeB9oRkblLpGIISJYGT540R_XRrQmhlZwqBuAlHFTQTxpDr9Anp2HYHJg5CKAKH9XyrRPmo-re3J78AYPaC1lOResF8-rsZpP8BOr_WZ0EUfxgfLV3F6O8tJobVaFe5Jn5__9IlcVAGmo4UKMJitrmBcVwC1uF8LW19qkR7tJIttLSyWdIiG_AOFbA6Ed_0FTfc4By1000?></g></svg>