<?plantuml 1.2026.2?><svg xmlns="http://www.w3.org/2000/svg" xmlns:xlink="http://www.w3.org/1999/xlink" contentStyleType="text/css" data-diagram-type="JSON" height="653px" preserveAspectRatio="none" style="width:1700px;height:653px;background:#FFFFFF;" version="1.1" viewBox="0 0 1700 653" width="1700px" zoomAndPan="magnify"><defs/><g><rect fill="#F1F1F1" height="81.1875" rx="5" ry="5" style="stroke:#F1F1F1;stroke-width:1.5;" width="94.4912" x="10" y="289.5547"/><text fill="#000000" font-family="sans-serif" font-size="14" font-weight="bold" lengthAdjust="spacing" textLength="23.8643" x="15" y="304.5498">aoi</text><text fill="#000000" font-family="sans-serif" font-size="14" lengthAdjust="spacing" textLength="13.3506" x="86.1406" y="304.5498">&#160;&#160;&#160;</text><line style="stroke:#000000;stroke-width:1;" x1="81.1406" x2="81.1406" y1="289.5547" y2="309.8516"/><line style="stroke:#000000;stroke-width:1;" x1="10" x2="104.4912" y1="309.8516" y2="309.8516"/><text fill="#000000" font-family="sans-serif" font-size="14" font-weight="bold" lengthAdjust="spacing" textLength="37.8711" x="15" y="324.8467">epsg</text><text fill="#000000" font-family="sans-serif" font-size="14" lengthAdjust="spacing" textLength="13.3506" x="86.1406" y="324.8467">&#160;&#160;&#160;</text><line style="stroke:#000000;stroke-width:1;" x1="81.1406" x2="81.1406" y1="309.8516" y2="330.1484"/><line style="stroke:#000000;stroke-width:1;" x1="10" x2="104.4912" y1="330.1484" y2="330.1484"/><text fill="#000000" font-family="sans-serif" font-size="14" font-weight="bold" lengthAdjust="spacing" textLength="61.1406" x="15" y="345.1436">indexes</text><text fill="#000000" font-family="sans-serif" font-size="14" lengthAdjust="spacing" textLength="13.3506" x="86.1406" y="345.1436">&#160;&#160;&#160;</text><line style="stroke:#000000;stroke-width:1;" x1="81.1406" x2="81.1406" y1="330.1484" y2="350.4453"/><line style="stroke:#000000;stroke-width:1;" x1="10" x2="104.4912" y1="350.4453" y2="350.4453"/><text fill="#000000" font-family="sans-serif" font-size="14" font-weight="bold" lengthAdjust="spacing" textLength="35.5742" x="15" y="365.4404">item</text><text fill="#000000" font-family="sans-serif" font-size="14" lengthAdjust="spacing" textLength="13.3506" x="86.1406" y="365.4404">&#160;&#160;&#160;</text><line style="stroke:#000000;stroke-width:1;" x1="81.1406" x2="81.1406" y1="350.4453" y2="370.7422"/><rect fill="none" height="81.1875" rx="5" ry="5" style="stroke:#000000;stroke-width:1.5;" width="94.4912" x="10" y="289.5547"/><rect fill="#F1F1F1" height="142.0781" rx="5" ry="5" style="stroke:#F1F1F1;stroke-width:1.5;" width="365.6592" x="141" y="19.1094"/><text fill="#000000" font-family="sans-serif" font-size="14" font-weight="bold" lengthAdjust="spacing" textLength="60.1289" x="146" y="34.1045">schema</text><text fill="#000000" font-family="sans-serif" font-size="14" lengthAdjust="spacing" textLength="13.3506" x="259.9951" y="34.1045">&#160;&#160;&#160;</text><line style="stroke:#000000;stroke-width:1;" x1="254.9951" x2="254.9951" y1="19.1094" y2="39.4063"/><line style="stroke:#000000;stroke-width:1;" x1="141" x2="506.6592" y1="39.4063" y2="39.4063"/><text fill="#000000" font-family="sans-serif" font-size="14" font-weight="bold" lengthAdjust="spacing" textLength="75.8311" x="146" y="54.4014">metadata</text><text fill="#000000" font-family="sans-serif" font-size="14" lengthAdjust="spacing" textLength="13.3506" x="259.9951" y="54.4014">&#160;&#160;&#160;</text><line style="stroke:#000000;stroke-width:1;" x1="254.9951" x2="254.9951" y1="39.4063" y2="59.7031"/><line style="stroke:#000000;stroke-width:1;" x1="141" x2="506.6592" y1="59.7031" y2="59.7031"/><text fill="#000000" font-family="sans-serif" font-size="14" font-weight="bold" lengthAdjust="spacing" textLength="83.0566" x="146" y="74.6982">minOccurs</text><text fill="#000000" font-family="sans-serif" font-size="14" lengthAdjust="spacing" textLength="8.9072" x="259.9951" y="74.6982">1</text><line style="stroke:#000000;stroke-width:1;" x1="254.9951" x2="254.9951" y1="59.7031" y2="80"/><line style="stroke:#000000;stroke-width:1;" x1="141" x2="506.6592" y1="80" y2="80"/><text fill="#000000" font-family="sans-serif" font-size="14" font-weight="bold" lengthAdjust="spacing" textLength="86.7686" x="146" y="94.9951">maxOccurs</text><text fill="#000000" font-family="sans-serif" font-size="14" lengthAdjust="spacing" textLength="8.9072" x="259.9951" y="94.9951">1</text><line style="stroke:#000000;stroke-width:1;" x1="254.9951" x2="254.9951" y1="80" y2="100.2969"/><line style="stroke:#000000;stroke-width:1;" x1="141" x2="506.6592" y1="100.2969" y2="100.2969"/><text fill="#000000" font-family="sans-serif" font-size="14" font-weight="bold" lengthAdjust="spacing" textLength="103.9951" x="146" y="115.292">valuePassing</text><text fill="#000000" font-family="sans-serif" font-size="14" lengthAdjust="spacing" textLength="56.7041" x="259.9951" y="115.292">byValue</text><line style="stroke:#000000;stroke-width:1;" x1="254.9951" x2="254.9951" y1="100.2969" y2="120.5938"/><line style="stroke:#000000;stroke-width:1;" x1="141" x2="506.6592" y1="120.5938" y2="120.5938"/><text fill="#000000" font-family="sans-serif" font-size="14" font-weight="bold" lengthAdjust="spacing" textLength="32.4775" x="146" y="135.5889">title</text><text fill="#000000" font-family="sans-serif" font-size="14" lengthAdjust="spacing" textLength="107.9395" x="259.9951" y="135.5889">area of interest</text><line style="stroke:#000000;stroke-width:1;" x1="254.9951" x2="254.9951" y1="120.5938" y2="140.8906"/><line style="stroke:#000000;stroke-width:1;" x1="141" x2="506.6592" y1="140.8906" y2="140.8906"/><text fill="#000000" font-family="sans-serif" font-size="14" font-weight="bold" lengthAdjust="spacing" textLength="88.9492" x="146" y="155.8857">description</text><text fill="#000000" font-family="sans-serif" font-size="14" lengthAdjust="spacing" textLength="241.6641" x="259.9951" y="155.8857">area of interest as a bounding box</text><line style="stroke:#000000;stroke-width:1;" x1="254.9951" x2="254.9951" y1="140.8906" y2="161.1875"/><rect fill="none" height="142.0781" rx="5" ry="5" style="stroke:#000000;stroke-width:1.5;" width="365.6592" x="141" y="19.1094"/><rect fill="#F1F1F1" height="20.2969" rx="5" ry="5" style="stroke:#F1F1F1;stroke-width:1.5;" width="95.5234" x="573" y="10"/><text fill="#000000" font-family="sans-serif" font-size="14" font-weight="bold" lengthAdjust="spacing" textLength="35.335" x="578" y="24.9951">type</text><text fill="#000000" font-family="sans-serif" font-size="14" lengthAdjust="spacing" textLength="40.1885" x="623.335" y="24.9951">string</text><line style="stroke:#000000;stroke-width:1;" x1="618.335" x2="618.335" y1="10" y2="30.2969"/><rect fill="none" height="20.2969" rx="5" ry="5" style="stroke:#000000;stroke-width:1.5;" width="95.5234" x="573" y="10"/><rect fill="#F1F1F1" height="20.2969" rx="5" ry="5" style="stroke:#F1F1F1;stroke-width:1.5;" width="23.3506" x="609.5" y="48"/><text fill="#000000" font-family="sans-serif" font-size="14" lengthAdjust="spacing" textLength="13.3506" x="614.5" y="62.9951">&#160;&#160;&#160;</text><rect fill="none" height="20.2969" rx="5" ry="5" style="stroke:#000000;stroke-width:1.5;" width="23.3506" x="609.5" y="48"/><rect fill="#F1F1F1" height="40.5938" rx="5" ry="5" style="stroke:#F1F1F1;stroke-width:1.5;" width="121.8623" x="738" y="37.6484"/><text fill="#000000" font-family="sans-serif" font-size="14" font-weight="bold" lengthAdjust="spacing" textLength="32.4775" x="743" y="52.6436">title</text><text fill="#000000" font-family="sans-serif" font-size="14" lengthAdjust="spacing" textLength="59.0283" x="795.834" y="52.6436">cwl:type</text><line style="stroke:#000000;stroke-width:1;" x1="790.834" x2="790.834" y1="37.6484" y2="57.9453"/><line style="stroke:#000000;stroke-width:1;" x1="738" x2="859.8623" y1="57.9453" y2="57.9453"/><text fill="#000000" font-family="sans-serif" font-size="14" font-weight="bold" lengthAdjust="spacing" textLength="42.834" x="743" y="72.9404">value</text><text fill="#000000" font-family="sans-serif" font-size="14" lengthAdjust="spacing" textLength="40.1885" x="795.834" y="72.9404">string</text><line style="stroke:#000000;stroke-width:1;" x1="790.834" x2="790.834" y1="57.9453" y2="78.2422"/><rect fill="none" height="40.5938" rx="5" ry="5" style="stroke:#000000;stroke-width:1.5;" width="121.8623" x="738" y="37.6484"/><rect fill="#F1F1F1" height="142.0781" rx="5" ry="5" style="stroke:#F1F1F1;stroke-width:1.5;" width="199.2314" x="224.5" y="179.1094"/><text fill="#000000" font-family="sans-serif" font-size="14" font-weight="bold" lengthAdjust="spacing" textLength="60.1289" x="229.5" y="194.1045">schema</text><text fill="#000000" font-family="sans-serif" font-size="14" lengthAdjust="spacing" textLength="13.3506" x="343.4951" y="194.1045">&#160;&#160;&#160;</text><line style="stroke:#000000;stroke-width:1;" x1="338.4951" x2="338.4951" y1="179.1094" y2="199.4063"/><line style="stroke:#000000;stroke-width:1;" x1="224.5" x2="423.7314" y1="199.4063" y2="199.4063"/><text fill="#000000" font-family="sans-serif" font-size="14" font-weight="bold" lengthAdjust="spacing" textLength="75.8311" x="229.5" y="214.4014">metadata</text><text fill="#000000" font-family="sans-serif" font-size="14" lengthAdjust="spacing" textLength="13.3506" x="343.4951" y="214.4014">&#160;&#160;&#160;</text><line style="stroke:#000000;stroke-width:1;" x1="338.4951" x2="338.4951" y1="199.4063" y2="219.7031"/><line style="stroke:#000000;stroke-width:1;" x1="224.5" x2="423.7314" y1="219.7031" y2="219.7031"/><text fill="#000000" font-family="sans-serif" font-size="14" font-weight="bold" lengthAdjust="spacing" textLength="83.0566" x="229.5" y="234.6982">minOccurs</text><text fill="#000000" font-family="sans-serif" font-size="14" lengthAdjust="spacing" textLength="8.9072" x="343.4951" y="234.6982">1</text><line style="stroke:#000000;stroke-width:1;" x1="338.4951" x2="338.4951" y1="219.7031" y2="240"/><line style="stroke:#000000;stroke-width:1;" x1="224.5" x2="423.7314" y1="240" y2="240"/><text fill="#000000" font-family="sans-serif" font-size="14" font-weight="bold" lengthAdjust="spacing" textLength="86.7686" x="229.5" y="254.9951">maxOccurs</text><text fill="#000000" font-family="sans-serif" font-size="14" lengthAdjust="spacing" textLength="8.9072" x="343.4951" y="254.9951">1</text><line style="stroke:#000000;stroke-width:1;" x1="338.4951" x2="338.4951" y1="240" y2="260.2969"/><line style="stroke:#000000;stroke-width:1;" x1="224.5" x2="423.7314" y1="260.2969" y2="260.2969"/><text fill="#000000" font-family="sans-serif" font-size="14" font-weight="bold" lengthAdjust="spacing" textLength="103.9951" x="229.5" y="275.292">valuePassing</text><text fill="#000000" font-family="sans-serif" font-size="14" lengthAdjust="spacing" textLength="56.7041" x="343.4951" y="275.292">byValue</text><line style="stroke:#000000;stroke-width:1;" x1="338.4951" x2="338.4951" y1="260.2969" y2="280.5938"/><line style="stroke:#000000;stroke-width:1;" x1="224.5" x2="423.7314" y1="280.5938" y2="280.5938"/><text fill="#000000" font-family="sans-serif" font-size="14" font-weight="bold" lengthAdjust="spacing" textLength="32.4775" x="229.5" y="295.5889">title</text><text fill="#000000" font-family="sans-serif" font-size="14" lengthAdjust="spacing" textLength="75.2363" x="343.4951" y="295.5889">EPSG code</text><line style="stroke:#000000;stroke-width:1;" x1="338.4951" x2="338.4951" y1="280.5938" y2="300.8906"/><line style="stroke:#000000;stroke-width:1;" x1="224.5" x2="423.7314" y1="300.8906" y2="300.8906"/><text fill="#000000" font-family="sans-serif" font-size="14" font-weight="bold" lengthAdjust="spacing" textLength="88.9492" x="229.5" y="315.8857">description</text><text fill="#000000" font-family="sans-serif" font-size="14" lengthAdjust="spacing" textLength="75.2363" x="343.4951" y="315.8857">EPSG code</text><line style="stroke:#000000;stroke-width:1;" x1="338.4951" x2="338.4951" y1="300.8906" y2="321.1875"/><rect fill="none" height="142.0781" rx="5" ry="5" style="stroke:#000000;stroke-width:1.5;" width="199.2314" x="224.5" y="179.1094"/><rect fill="#F1F1F1" height="40.5938" rx="5" ry="5" style="stroke:#F1F1F1;stroke-width:1.5;" width="153.8818" x="544" y="145.6484"/><text fill="#000000" font-family="sans-serif" font-size="14" font-weight="bold" lengthAdjust="spacing" textLength="35.335" x="549" y="160.6436">type</text><text fill="#000000" font-family="sans-serif" font-size="14" lengthAdjust="spacing" textLength="40.1885" x="615.5127" y="160.6436">string</text><line style="stroke:#000000;stroke-width:1;" x1="610.5127" x2="610.5127" y1="145.6484" y2="165.9453"/><line style="stroke:#000000;stroke-width:1;" x1="544" x2="697.8818" y1="165.9453" y2="165.9453"/><text fill="#000000" font-family="sans-serif" font-size="14" font-weight="bold" lengthAdjust="spacing" textLength="56.5127" x="549" y="180.9404">default</text><text fill="#000000" font-family="sans-serif" font-size="14" lengthAdjust="spacing" textLength="77.3691" x="615.5127" y="180.9404">EPSG:4326</text><line style="stroke:#000000;stroke-width:1;" x1="610.5127" x2="610.5127" y1="165.9453" y2="186.2422"/><rect fill="none" height="40.5938" rx="5" ry="5" style="stroke:#000000;stroke-width:1.5;" width="153.8818" x="544" y="145.6484"/><rect fill="#F1F1F1" height="20.2969" rx="5" ry="5" style="stroke:#F1F1F1;stroke-width:1.5;" width="23.3506" x="609.5" y="205"/><text fill="#000000" font-family="sans-serif" font-size="14" lengthAdjust="spacing" textLength="13.3506" x="614.5" y="219.9951">&#160;&#160;&#160;</text><rect fill="none" height="20.2969" rx="5" ry="5" style="stroke:#000000;stroke-width:1.5;" width="23.3506" x="609.5" y="205"/><rect fill="#F1F1F1" height="40.5938" rx="5" ry="5" style="stroke:#F1F1F1;stroke-width:1.5;" width="121.8623" x="738" y="194.6484"/><text fill="#000000" font-family="sans-serif" font-size="14" font-weight="bold" lengthAdjust="spacing" textLength="32.4775" x="743" y="209.6436">title</text><text fill="#000000" font-family="sans-serif" font-size="14" lengthAdjust="spacing" textLength="59.0283" x="795.834" y="209.6436">cwl:type</text><line style="stroke:#000000;stroke-width:1;" x1="790.834" x2="790.834" y1="194.6484" y2="214.9453"/><line style="stroke:#000000;stroke-width:1;" x1="738" x2="859.8623" y1="214.9453" y2="214.9453"/><text fill="#000000" font-family="sans-serif" font-size="14" font-weight="bold" lengthAdjust="spacing" textLength="42.834" x="743" y="229.9404">value</text><text fill="#000000" font-family="sans-serif" font-size="14" lengthAdjust="spacing" textLength="40.1885" x="795.834" y="229.9404">string</text><line style="stroke:#000000;stroke-width:1;" x1="790.834" x2="790.834" y1="214.9453" y2="235.2422"/><rect fill="none" height="40.5938" rx="5" ry="5" style="stroke:#000000;stroke-width:1.5;" width="121.8623" x="738" y="194.6484"/><rect fill="#F1F1F1" height="142.0781" rx="5" ry="5" style="stroke:#F1F1F1;stroke-width:1.5;" width="263.168" x="192.5" y="339.1094"/><text fill="#000000" font-family="sans-serif" font-size="14" font-weight="bold" lengthAdjust="spacing" textLength="60.1289" x="197.5" y="354.1045">schema</text><text fill="#000000" font-family="sans-serif" font-size="14" lengthAdjust="spacing" textLength="13.3506" x="311.4951" y="354.1045">&#160;&#160;&#160;</text><line style="stroke:#000000;stroke-width:1;" x1="306.4951" x2="306.4951" y1="339.1094" y2="359.4063"/><line style="stroke:#000000;stroke-width:1;" x1="192.5" x2="455.668" y1="359.4063" y2="359.4063"/><text fill="#000000" font-family="sans-serif" font-size="14" font-weight="bold" lengthAdjust="spacing" textLength="75.8311" x="197.5" y="374.4014">metadata</text><text fill="#000000" font-family="sans-serif" font-size="14" lengthAdjust="spacing" textLength="13.3506" x="311.4951" y="374.4014">&#160;&#160;&#160;</text><line style="stroke:#000000;stroke-width:1;" x1="306.4951" x2="306.4951" y1="359.4063" y2="379.7031"/><line style="stroke:#000000;stroke-width:1;" x1="192.5" x2="455.668" y1="379.7031" y2="379.7031"/><text fill="#000000" font-family="sans-serif" font-size="14" font-weight="bold" lengthAdjust="spacing" textLength="83.0566" x="197.5" y="394.6982">minOccurs</text><text fill="#000000" font-family="sans-serif" font-size="14" lengthAdjust="spacing" textLength="8.9072" x="311.4951" y="394.6982">1</text><line style="stroke:#000000;stroke-width:1;" x1="306.4951" x2="306.4951" y1="379.7031" y2="400"/><line style="stroke:#000000;stroke-width:1;" x1="192.5" x2="455.668" y1="400" y2="400"/><text fill="#000000" font-family="sans-serif" font-size="14" font-weight="bold" lengthAdjust="spacing" textLength="86.7686" x="197.5" y="414.9951">maxOccurs</text><text fill="#000000" font-family="sans-serif" font-size="14" lengthAdjust="spacing" textLength="8.9072" x="311.4951" y="414.9951">1</text><line style="stroke:#000000;stroke-width:1;" x1="306.4951" x2="306.4951" y1="400" y2="420.2969"/><line style="stroke:#000000;stroke-width:1;" x1="192.5" x2="455.668" y1="420.2969" y2="420.2969"/><text fill="#000000" font-family="sans-serif" font-size="14" font-weight="bold" lengthAdjust="spacing" textLength="103.9951" x="197.5" y="435.292">valuePassing</text><text fill="#000000" font-family="sans-serif" font-size="14" lengthAdjust="spacing" textLength="56.7041" x="311.4951" y="435.292">byValue</text><line style="stroke:#000000;stroke-width:1;" x1="306.4951" x2="306.4951" y1="420.2969" y2="440.5938"/><line style="stroke:#000000;stroke-width:1;" x1="192.5" x2="455.668" y1="440.5938" y2="440.5938"/><text fill="#000000" font-family="sans-serif" font-size="14" font-weight="bold" lengthAdjust="spacing" textLength="32.4775" x="197.5" y="455.5889">title</text><text fill="#000000" font-family="sans-serif" font-size="14" lengthAdjust="spacing" textLength="54.4551" x="311.4951" y="455.5889">indexes</text><line style="stroke:#000000;stroke-width:1;" x1="306.4951" x2="306.4951" y1="440.5938" y2="460.8906"/><line style="stroke:#000000;stroke-width:1;" x1="192.5" x2="455.668" y1="460.8906" y2="460.8906"/><text fill="#000000" font-family="sans-serif" font-size="14" font-weight="bold" lengthAdjust="spacing" textLength="88.9492" x="197.5" y="475.8857">description</text><text fill="#000000" font-family="sans-serif" font-size="14" lengthAdjust="spacing" textLength="139.1729" x="311.4951" y="475.8857">indexes to compute</text><line style="stroke:#000000;stroke-width:1;" x1="306.4951" x2="306.4951" y1="460.8906" y2="481.1875"/><rect fill="none" height="142.0781" rx="5" ry="5" style="stroke:#000000;stroke-width:1.5;" width="263.168" x="192.5" y="339.1094"/><rect fill="#F1F1F1" height="60.8906" rx="5" ry="5" style="stroke:#F1F1F1;stroke-width:1.5;" width="113.4678" x="564.5" y="275.6484"/><text fill="#000000" font-family="sans-serif" font-size="14" font-weight="bold" lengthAdjust="spacing" textLength="35.335" x="569.5" y="290.6436">type</text><text fill="#000000" font-family="sans-serif" font-size="14" lengthAdjust="spacing" textLength="36.9551" x="636.0127" y="290.6436">array</text><line style="stroke:#000000;stroke-width:1;" x1="631.0127" x2="631.0127" y1="275.6484" y2="295.9453"/><line style="stroke:#000000;stroke-width:1;" x1="564.5" x2="677.9678" y1="295.9453" y2="295.9453"/><text fill="#000000" font-family="sans-serif" font-size="14" font-weight="bold" lengthAdjust="spacing" textLength="43.9072" x="569.5" y="310.9404">items</text><text fill="#000000" font-family="sans-serif" font-size="14" lengthAdjust="spacing" textLength="13.3506" x="636.0127" y="310.9404">&#160;&#160;&#160;</text><line style="stroke:#000000;stroke-width:1;" x1="631.0127" x2="631.0127" y1="295.9453" y2="316.2422"/><line style="stroke:#000000;stroke-width:1;" x1="564.5" x2="677.9678" y1="316.2422" y2="316.2422"/><text fill="#000000" font-family="sans-serif" font-size="14" font-weight="bold" lengthAdjust="spacing" textLength="56.5127" x="569.5" y="331.2373">default</text><text fill="#000000" font-family="sans-serif" font-size="14" lengthAdjust="spacing" textLength="13.3506" x="636.0127" y="331.2373">&#160;&#160;&#160;</text><line style="stroke:#000000;stroke-width:1;" x1="631.0127" x2="631.0127" y1="316.2422" y2="336.5391"/><rect fill="none" height="60.8906" rx="5" ry="5" style="stroke:#000000;stroke-width:1.5;" width="113.4678" x="564.5" y="275.6484"/><rect fill="#F1F1F1" height="20.2969" rx="5" ry="5" style="stroke:#F1F1F1;stroke-width:1.5;" width="95.5234" x="751" y="267"/><text fill="#000000" font-family="sans-serif" font-size="14" font-weight="bold" lengthAdjust="spacing" textLength="35.335" x="756" y="281.9951">type</text><text fill="#000000" font-family="sans-serif" font-size="14" lengthAdjust="spacing" textLength="40.1885" x="801.335" y="281.9951">string</text><line style="stroke:#000000;stroke-width:1;" x1="796.335" x2="796.335" y1="267" y2="287.2969"/><rect fill="none" height="20.2969" rx="5" ry="5" style="stroke:#000000;stroke-width:1.5;" width="95.5234" x="751" y="267"/><rect fill="#F1F1F1" height="40.5938" rx="5" ry="5" style="stroke:#F1F1F1;stroke-width:1.5;" width="43.0996" x="777.5" y="305.6484"/><text fill="#000000" font-family="sans-serif" font-size="14" lengthAdjust="spacing" textLength="29.9346" x="782.5" y="320.6436">ndvi</text><line style="stroke:#000000;stroke-width:1;" x1="777.5" x2="820.5996" y1="325.9453" y2="325.9453"/><text fill="#000000" font-family="sans-serif" font-size="14" lengthAdjust="spacing" textLength="33.0996" x="782.5" y="340.9404">ndwi</text><rect fill="none" height="40.5938" rx="5" ry="5" style="stroke:#000000;stroke-width:1.5;" width="43.0996" x="777.5" y="305.6484"/><rect fill="#F1F1F1" height="20.2969" rx="5" ry="5" style="stroke:#F1F1F1;stroke-width:1.5;" width="23.3506" x="609.5" y="365"/><text fill="#000000" font-family="sans-serif" font-size="14" lengthAdjust="spacing" textLength="13.3506" x="614.5" y="379.9951">&#160;&#160;&#160;</text><rect fill="none" height="20.2969" rx="5" ry="5" style="stroke:#000000;stroke-width:1.5;" width="23.3506" x="609.5" y="365"/><rect fill="#F1F1F1" height="40.5938" rx="5" ry="5" style="stroke:#F1F1F1;stroke-width:1.5;" width="121.8623" x="738" y="364.6484"/><text fill="#000000" font-family="sans-serif" font-size="14" font-weight="bold" lengthAdjust="spacing" textLength="32.4775" x="743" y="379.6436">title</text><text fill="#000000" font-family="sans-serif" font-size="14" lengthAdjust="spacing" textLength="59.0283" x="795.834" y="379.6436">cwl:type</text><line style="stroke:#000000;stroke-width:1;" x1="790.834" x2="790.834" y1="364.6484" y2="384.9453"/><line style="stroke:#000000;stroke-width:1;" x1="738" x2="859.8623" y1="384.9453" y2="384.9453"/><text fill="#000000" font-family="sans-serif" font-size="14" font-weight="bold" lengthAdjust="spacing" textLength="42.834" x="743" y="399.9404">value</text><text fill="#000000" font-family="sans-serif" font-size="14" lengthAdjust="spacing" textLength="51.1123" x="795.834" y="399.9404">string[]</text><line style="stroke:#000000;stroke-width:1;" x1="790.834" x2="790.834" y1="384.9453" y2="405.2422"/><rect fill="none" height="40.5938" rx="5" ry="5" style="stroke:#000000;stroke-width:1.5;" width="121.8623" x="738" y="364.6484"/><rect fill="#F1F1F1" height="142.0781" rx="5" ry="5" style="stroke:#F1F1F1;stroke-width:1.5;" width="304.2861" x="172" y="499.1094"/><text fill="#000000" font-family="sans-serif" font-size="14" font-weight="bold" lengthAdjust="spacing" textLength="60.1289" x="177" y="514.1045">schema</text><text fill="#000000" font-family="sans-serif" font-size="14" lengthAdjust="spacing" textLength="13.3506" x="290.9951" y="514.1045">&#160;&#160;&#160;</text><line style="stroke:#000000;stroke-width:1;" x1="285.9951" x2="285.9951" y1="499.1094" y2="519.4063"/><line style="stroke:#000000;stroke-width:1;" x1="172" x2="476.2861" y1="519.4063" y2="519.4063"/><text fill="#000000" font-family="sans-serif" font-size="14" font-weight="bold" lengthAdjust="spacing" textLength="75.8311" x="177" y="534.4014">metadata</text><text fill="#000000" font-family="sans-serif" font-size="14" lengthAdjust="spacing" textLength="13.3506" x="290.9951" y="534.4014">&#160;&#160;&#160;</text><line style="stroke:#000000;stroke-width:1;" x1="285.9951" x2="285.9951" y1="519.4063" y2="539.7031"/><line style="stroke:#000000;stroke-width:1;" x1="172" x2="476.2861" y1="539.7031" y2="539.7031"/><text fill="#000000" font-family="sans-serif" font-size="14" font-weight="bold" lengthAdjust="spacing" textLength="83.0566" x="177" y="554.6982">minOccurs</text><text fill="#000000" font-family="sans-serif" font-size="14" lengthAdjust="spacing" textLength="8.9072" x="290.9951" y="554.6982">1</text><line style="stroke:#000000;stroke-width:1;" x1="285.9951" x2="285.9951" y1="539.7031" y2="560"/><line style="stroke:#000000;stroke-width:1;" x1="172" x2="476.2861" y1="560" y2="560"/><text fill="#000000" font-family="sans-serif" font-size="14" font-weight="bold" lengthAdjust="spacing" textLength="86.7686" x="177" y="574.9951">maxOccurs</text><text fill="#000000" font-family="sans-serif" font-size="14" lengthAdjust="spacing" textLength="8.9072" x="290.9951" y="574.9951">1</text><line style="stroke:#000000;stroke-width:1;" x1="285.9951" x2="285.9951" y1="560" y2="580.2969"/><line style="stroke:#000000;stroke-width:1;" x1="172" x2="476.2861" y1="580.2969" y2="580.2969"/><text fill="#000000" font-family="sans-serif" font-size="14" font-weight="bold" lengthAdjust="spacing" textLength="103.9951" x="177" y="595.292">valuePassing</text><text fill="#000000" font-family="sans-serif" font-size="14" lengthAdjust="spacing" textLength="56.7041" x="290.9951" y="595.292">byValue</text><line style="stroke:#000000;stroke-width:1;" x1="285.9951" x2="285.9951" y1="580.2969" y2="600.5938"/><line style="stroke:#000000;stroke-width:1;" x1="172" x2="476.2861" y1="600.5938" y2="600.5938"/><text fill="#000000" font-family="sans-serif" font-size="14" font-weight="bold" lengthAdjust="spacing" textLength="32.4775" x="177" y="615.5889">title</text><text fill="#000000" font-family="sans-serif" font-size="14" lengthAdjust="spacing" textLength="144.7852" x="290.9951" y="615.5889">STAC item reference</text><line style="stroke:#000000;stroke-width:1;" x1="285.9951" x2="285.9951" y1="600.5938" y2="620.8906"/><line style="stroke:#000000;stroke-width:1;" x1="172" x2="476.2861" y1="620.8906" y2="620.8906"/><text fill="#000000" font-family="sans-serif" font-size="14" font-weight="bold" lengthAdjust="spacing" textLength="88.9492" x="177" y="635.8857">description</text><text fill="#000000" font-family="sans-serif" font-size="14" lengthAdjust="spacing" textLength="180.291" x="290.9951" y="635.8857">Reference to a STAC item</text><line style="stroke:#000000;stroke-width:1;" x1="285.9951" x2="285.9951" y1="620.8906" y2="641.1875"/><rect fill="none" height="142.0781" rx="5" ry="5" style="stroke:#000000;stroke-width:1.5;" width="304.2861" x="172" y="499.1094"/><rect fill="#F1F1F1" height="20.2969" rx="5" ry="5" style="stroke:#F1F1F1;stroke-width:1.5;" width="80.4229" x="581" y="484"/><text fill="#000000" font-family="sans-serif" font-size="14" font-weight="bold" lengthAdjust="spacing" textLength="47.0723" x="586" y="498.9951">oneOf</text><text fill="#000000" font-family="sans-serif" font-size="14" lengthAdjust="spacing" textLength="13.3506" x="643.0723" y="498.9951">&#160;&#160;&#160;</text><line style="stroke:#000000;stroke-width:1;" x1="638.0723" x2="638.0723" y1="484" y2="504.2969"/><rect fill="none" height="20.2969" rx="5" ry="5" style="stroke:#000000;stroke-width:1.5;" width="80.4229" x="581" y="484"/><rect fill="#F1F1F1" height="81.1875" rx="5" ry="5" style="stroke:#F1F1F1;stroke-width:1.5;" width="23.3506" x="787.5" y="443.5547"/><text fill="#000000" font-family="sans-serif" font-size="14" lengthAdjust="spacing" textLength="13.3506" x="792.5" y="458.5498">&#160;&#160;&#160;</text><line style="stroke:#000000;stroke-width:1;" x1="787.5" x2="810.8506" y1="463.8516" y2="463.8516"/><text fill="#000000" font-family="sans-serif" font-size="14" lengthAdjust="spacing" textLength="13.3506" x="792.5" y="478.8467">&#160;&#160;&#160;</text><line style="stroke:#000000;stroke-width:1;" x1="787.5" x2="810.8506" y1="484.1484" y2="484.1484"/><text fill="#000000" font-family="sans-serif" font-size="14" lengthAdjust="spacing" textLength="13.3506" x="792.5" y="499.1436">&#160;&#160;&#160;</text><line style="stroke:#000000;stroke-width:1;" x1="787.5" x2="810.8506" y1="504.4453" y2="504.4453"/><text fill="#000000" font-family="sans-serif" font-size="14" lengthAdjust="spacing" textLength="13.3506" x="792.5" y="519.4404">&#160;&#160;&#160;</text><rect fill="none" height="81.1875" rx="5" ry="5" style="stroke:#000000;stroke-width:1.5;" width="23.3506" x="787.5" y="443.5547"/><rect fill="#F1F1F1" height="40.5938" rx="5" ry="5" style="stroke:#F1F1F1;stroke-width:1.5;" width="113.5293" x="1237.5" y="395.6484"/><text fill="#000000" font-family="sans-serif" font-size="14" font-weight="bold" lengthAdjust="spacing" textLength="35.335" x="1242.5" y="410.6436">type</text><text fill="#000000" font-family="sans-serif" font-size="14" lengthAdjust="spacing" textLength="40.1885" x="1305.8408" y="410.6436">string</text><line style="stroke:#000000;stroke-width:1;" x1="1300.8408" x2="1300.8408" y1="395.6484" y2="415.9453"/><line style="stroke:#000000;stroke-width:1;" x1="1237.5" x2="1351.0293" y1="415.9453" y2="415.9453"/><text fill="#000000" font-family="sans-serif" font-size="14" font-weight="bold" lengthAdjust="spacing" textLength="53.3408" x="1242.5" y="430.9404">format</text><text fill="#000000" font-family="sans-serif" font-size="14" lengthAdjust="spacing" textLength="18.5186" x="1305.8408" y="430.9404">uri</text><line style="stroke:#000000;stroke-width:1;" x1="1300.8408" x2="1300.8408" y1="415.9453" y2="436.2422"/><rect fill="none" height="40.5938" rx="5" ry="5" style="stroke:#000000;stroke-width:1.5;" width="113.5293" x="1237.5" y="395.6484"/><rect fill="#F1F1F1" height="20.2969" rx="5" ry="5" style="stroke:#F1F1F1;stroke-width:1.5;" width="543.0791" x="1023" y="455"/><text fill="#000000" font-family="sans-serif" font-size="14" font-weight="bold" lengthAdjust="spacing" textLength="32.2314" x="1028" y="469.9951">$ref</text><text fill="#000000" font-family="sans-serif" font-size="14" lengthAdjust="spacing" textLength="490.8477" x="1070.2314" y="469.9951">https://schemas.stacspec.org/v1.0.0/item-spec/json-schema/item.json</text><line style="stroke:#000000;stroke-width:1;" x1="1065.2314" x2="1065.2314" y1="455" y2="475.2969"/><rect fill="none" height="20.2969" rx="5" ry="5" style="stroke:#000000;stroke-width:1.5;" width="543.0791" x="1023" y="455"/><rect fill="#F1F1F1" height="20.2969" rx="5" ry="5" style="stroke:#F1F1F1;stroke-width:1.5;" width="614.1592" x="987.5" y="493"/><text fill="#000000" font-family="sans-serif" font-size="14" font-weight="bold" lengthAdjust="spacing" textLength="32.2314" x="992.5" y="507.9951">$ref</text><text fill="#000000" font-family="sans-serif" font-size="14" lengthAdjust="spacing" textLength="561.9277" x="1034.7314" y="507.9951">https://schemas.stacspec.org/v1.0.0/collection-spec/json-schema/collection.json</text><line style="stroke:#000000;stroke-width:1;" x1="1029.7314" x2="1029.7314" y1="493" y2="513.2969"/><rect fill="none" height="20.2969" rx="5" ry="5" style="stroke:#000000;stroke-width:1.5;" width="614.1592" x="987.5" y="493"/><rect fill="#F1F1F1" height="20.2969" rx="5" ry="5" style="stroke:#F1F1F1;stroke-width:1.5;" width="788.5986" x="900" y="531"/><text fill="#000000" font-family="sans-serif" font-size="14" font-weight="bold" lengthAdjust="spacing" textLength="32.2314" x="905" y="545.9951">$ref</text><text fill="#000000" font-family="sans-serif" font-size="14" lengthAdjust="spacing" textLength="736.3672" x="947.2314" y="545.9951">https://schemas.opengis.net/ogcapi/features/part1/1.0/openapi/schemas/featureCollectionGeoJSON.yaml</text><line style="stroke:#000000;stroke-width:1;" x1="942.2314" x2="942.2314" y1="531" y2="551.2969"/><rect fill="none" height="20.2969" rx="5" ry="5" style="stroke:#000000;stroke-width:1.5;" width="788.5986" x="900" y="531"/><rect fill="#F1F1F1" height="20.2969" rx="5" ry="5" style="stroke:#F1F1F1;stroke-width:1.5;" width="23.3506" x="609.5" y="533"/><text fill="#000000" font-family="sans-serif" font-size="14" lengthAdjust="spacing" textLength="13.3506" x="614.5" y="547.9951">&#160;&#160;&#160;</text><rect fill="none" height="20.2969" rx="5" ry="5" style="stroke:#000000;stroke-width:1.5;" width="23.3506" x="609.5" y="533"/><rect fill="#F1F1F1" height="40.5938" rx="5" ry="5" style="stroke:#F1F1F1;stroke-width:1.5;" width="127.666" x="735" y="542.6484"/><text fill="#000000" font-family="sans-serif" font-size="14" font-weight="bold" lengthAdjust="spacing" textLength="32.4775" x="740" y="557.6436">title</text><text fill="#000000" font-family="sans-serif" font-size="14" lengthAdjust="spacing" textLength="59.0283" x="792.834" y="557.6436">cwl:type</text><line style="stroke:#000000;stroke-width:1;" x1="787.834" x2="787.834" y1="542.6484" y2="562.9453"/><line style="stroke:#000000;stroke-width:1;" x1="735" x2="862.666" y1="562.9453" y2="562.9453"/><text fill="#000000" font-family="sans-serif" font-size="14" font-weight="bold" lengthAdjust="spacing" textLength="42.834" x="740" y="577.9404">value</text><text fill="#000000" font-family="sans-serif" font-size="14" lengthAdjust="spacing" textLength="64.832" x="792.834" y="577.9404">Directory</text><line style="stroke:#000000;stroke-width:1;" x1="787.834" x2="787.834" y1="562.9453" y2="583.2422"/><rect fill="none" height="40.5938" rx="5" ry="5" style="stroke:#000000;stroke-width:1.5;" width="127.666" x="735" y="542.6484"/><path d="M495,29.1484 L508,29.1484 C526.8589,29.1484 547.4396,27.8762 565.7815,26.2884" fill="none" style="stroke:#000000;stroke-width:1;stroke-dasharray:3,3;"/><path d="M566.0603,29.3733 L568.0952,26.0793 L565.5027,23.2035 L573.4937,25.5914 L566.0603,29.3733" fill="#000000"/><ellipse cx="495" cy="29.1484" fill="#000000" rx="3" ry="3" style="stroke:#000000;stroke-width:1;"/><path d="M620.1135,58.1484 L633.1135,58.1484 C652.7873,58.1484 694.0859,58.1484 730.49,58.1484" fill="none" style="stroke:#000000;stroke-width:1;stroke-dasharray:3,3;"/><path d="M730.49,61.2222 L732.7953,58.1484 L730.49,55.0747 L738.1744,58.1484 L730.49,61.2222" fill="#000000"/><ellipse cx="620.1135" cy="58.1484" fill="#000000" rx="3" ry="3" style="stroke:#000000;stroke-width:1;"/><path d="M495,49.1484 L508,49.1484 C541.3582,49.1484 580.1035,53.1289 602.3171,55.7955" fill="none" style="stroke:#000000;stroke-width:1;stroke-dasharray:3,3;"/><path d="M601.9385,58.8589 L604.6147,56.0795 L602.6958,52.7322 L609.9756,56.7422 L601.9385,58.8589" fill="#000000"/><ellipse cx="495" cy="49.1484" fill="#000000" rx="3" ry="3" style="stroke:#000000;stroke-width:1;"/><path d="M91.5,300.1484 L104.5,300.1484 C164.5119,300.1484 101.6237,215.4357 141,170.1484 C141.8973,169.1164 142.8104,168.0972 143.7387,167.0906" fill="none" style="stroke:#000000;stroke-width:1;stroke-dasharray:3,3;"/><path d="M145.9897,169.2812 L145.3816,165.4023 L141.4876,164.9001 L149.2151,161.463 L145.9897,169.2812" fill="#000000"/><ellipse cx="91.5" cy="300.1484" fill="#000000" rx="3" ry="3" style="stroke:#000000;stroke-width:1;"/><path d="M411.5,189.1484 L424.5,189.1484 C461.4486,189.1484 502.0499,185.0668 536.6693,180.3424" fill="none" style="stroke:#000000;stroke-width:1;stroke-dasharray:3,3;"/><path d="M537.1019,183.4416 L538.9937,180.0179 L536.2367,177.2432 L544.4173,179.2609 L537.1019,183.4416" fill="#000000"/><ellipse cx="411.5" cy="189.1484" fill="#000000" rx="3" ry="3" style="stroke:#000000;stroke-width:1;"/><path d="M620.1135,215.1484 L633.1135,215.1484 C652.7873,215.1484 694.0859,215.1484 730.49,215.1484" fill="none" style="stroke:#000000;stroke-width:1;stroke-dasharray:3,3;"/><path d="M730.49,218.2222 L732.7953,215.1484 L730.49,212.0747 L738.1744,215.1484 L730.49,218.2222" fill="#000000"/><ellipse cx="620.1135" cy="215.1484" fill="#000000" rx="3" ry="3" style="stroke:#000000;stroke-width:1;"/><path d="M411.5,209.1484 L424.5,209.1484 C489.7788,209.1484 567.23,212.5147 601.995,214.2043" fill="none" style="stroke:#000000;stroke-width:1;stroke-dasharray:3,3;"/><path d="M601.8388,217.3585 L604.3606,214.3215 L602.1511,211.0501 L609.8804,214.5947 L601.8388,217.3585" fill="#000000"/><ellipse cx="411.5" cy="209.1484" fill="#000000" rx="3" ry="3" style="stroke:#000000;stroke-width:1;"/><path d="M91.5,320.1484 L104.5,320.1484 C142.3242,320.1484 182.153,310.5574 217.3199,298.4756" fill="none" style="stroke:#000000;stroke-width:1;stroke-dasharray:3,3;"/><path d="M218.3652,301.4481 L219.5492,297.6916 L216.2745,295.5032 L224.751,295.8623 L218.3652,301.4481" fill="#000000"/><ellipse cx="91.5" cy="320.1484" fill="#000000" rx="3" ry="3" style="stroke:#000000;stroke-width:1;"/><path d="M665.5,306.1484 L678.5,306.1484 C693.6005,306.1484 728.4335,297.3624 756.7016,289.4625" fill="none" style="stroke:#000000;stroke-width:1;stroke-dasharray:3,3;"/><path d="M757.5375,292.4234 L758.9223,288.8356 L755.8657,286.5016 L764.1039,287.3728 L757.5375,292.4234" fill="#000000"/><ellipse cx="665.5" cy="306.1484" fill="#000000" rx="3" ry="3" style="stroke:#000000;stroke-width:1;"/><path d="M665.5,326.1484 L678.5,326.1484 C709.7581,326.1484 745.5963,326.1484 769.9086,326.1484" fill="none" style="stroke:#000000;stroke-width:1;stroke-dasharray:3,3;"/><path d="M769.9086,329.2604 L772.2426,326.1484 L769.9086,323.0365 L777.6886,326.1484 L769.9086,329.2604" fill="#000000"/><ellipse cx="665.5" cy="326.1484" fill="#000000" rx="3" ry="3" style="stroke:#000000;stroke-width:1;"/><path d="M443.5,349.1484 L456.5,349.1484 C490.5545,349.1484 527.3244,340.3659 557.3998,330.7391" fill="none" style="stroke:#000000;stroke-width:1;stroke-dasharray:3,3;"/><path d="M558.3841,333.7376 L559.6487,330.0008 L556.4154,327.7406 L564.8961,328.2782 L558.3841,333.7376" fill="#000000"/><ellipse cx="443.5" cy="349.1484" fill="#000000" rx="3" ry="3" style="stroke:#000000;stroke-width:1;"/><path d="M620.1342,375.0713 L633.1135,375.8046 C652.7873,376.9161 694.0859,379.2493 730.49,381.3061" fill="none" style="stroke:#000000;stroke-width:1;stroke-dasharray:3,3;"/><path d="M730.3164,384.3798 L732.7953,381.4363 L730.6637,378.2323 L738.1744,381.7402 L730.3164,384.3798" fill="#000000"/><ellipse cx="620.1342" cy="375.0713" fill="#000000" rx="3" ry="3" style="stroke:#000000;stroke-width:1;"/><path d="M443.5,369.1484 L456.5,369.1484 C509.3669,369.1484 571.7559,372.3006 602.0888,374.0355" fill="none" style="stroke:#000000;stroke-width:1;stroke-dasharray:3,3;"/><path d="M601.9096,377.1038 L604.39,374.1699 L602.2679,370.9672 L609.7596,374.4834 L601.9096,377.1038" fill="#000000"/><ellipse cx="443.5" cy="369.1484" fill="#000000" rx="3" ry="3" style="stroke:#000000;stroke-width:1;"/><path d="M91.5,340.1484 L104.5,340.1484 C131.2257,340.1484 158.9522,344.9368 185.3278,352.0087" fill="none" style="stroke:#000000;stroke-width:1;stroke-dasharray:3,3;"/><path d="M184.5066,354.9693 L187.5483,352.6247 L186.1491,349.0481 L192.7293,354.0619 L184.5066,354.9693" fill="#000000"/><ellipse cx="91.5" cy="340.1484" fill="#000000" rx="3" ry="3" style="stroke:#000000;stroke-width:1;"/><path d="M799.5,454.1484 L812.5,454.1484 C851.5511,454.1484 861.0852,449.4087 900,446.1484 C1016.321,436.403 1152.0764,426.3589 1230.0418,420.7186" fill="none" style="stroke:#000000;stroke-width:1;stroke-dasharray:3,3;"/><path d="M1230.2679,423.8487 L1232.3893,420.549 L1229.8156,417.5886 L1237.8669,420.1533 L1230.2679,423.8487" fill="#000000"/><ellipse cx="799.5" cy="454.1484" fill="#000000" rx="3" ry="3" style="stroke:#000000;stroke-width:1;"/><path d="M799.5,474.1484 L812.5,474.1484 C878.3134,474.1484 949.178,473.2975 1015.765,472.119" fill="none" style="stroke:#000000;stroke-width:1;stroke-dasharray:3,3;"/><path d="M1015.8201,475.1906 L1018.0688,472.0776 L1015.71,469.0473 L1023.4441,471.9813 L1015.8201,475.1906" fill="#000000"/><ellipse cx="799.5" cy="474.1484" fill="#000000" rx="3" ry="3" style="stroke:#000000;stroke-width:1;"/><path d="M799.5,494.1484 L812.5,494.1484 C866.7107,494.1484 924.3486,494.7258 980.2001,495.588" fill="none" style="stroke:#000000;stroke-width:1;stroke-dasharray:3,3;"/><path d="M980.1529,498.5926 L982.4535,495.6234 L980.2472,492.5834 L987.7116,495.7058 L980.1529,498.5926" fill="#000000"/><ellipse cx="799.5" cy="494.1484" fill="#000000" rx="3" ry="3" style="stroke:#000000;stroke-width:1;"/><path d="M799.5,514.1484 L812.5,514.1484 C851.5511,514.1484 861.0437,519.4295 900,522.1484 C945.8792,525.3505 994.8016,528.1801 1042.0133,530.6123" fill="none" style="stroke:#000000;stroke-width:1;stroke-dasharray:3,3;"/><path d="M1041.8586,533.637 L1044.2819,530.7284 L1042.1681,527.5876 L1049.5751,530.9993 L1041.8586,533.637" fill="#000000"/><ellipse cx="799.5" cy="514.1484" fill="#000000" rx="3" ry="3" style="stroke:#000000;stroke-width:1;"/><path d="M648.5,494.1484 L661.5,494.1484 C704.1078,494.1484 753.9721,489.2777 780.2111,486.3349" fill="none" style="stroke:#000000;stroke-width:1;stroke-dasharray:3,3;"/><path d="M780.5628,489.3948 L782.5061,486.0711 L779.8595,483.2749 L787.861,485.4558 L780.5628,489.3948" fill="#000000"/><ellipse cx="648.5" cy="494.1484" fill="#000000" rx="3" ry="3" style="stroke:#000000;stroke-width:1;"/><path d="M463.5,509.1484 L476.5,509.1484 C509.1248,509.1484 545.6846,505.2924 573.8024,501.4905" fill="none" style="stroke:#000000;stroke-width:1;stroke-dasharray:3,3;"/><path d="M574.2295,504.5691 L576.1114,501.1702 L573.3754,498.4119 L581.499,500.4229 L574.2295,504.5691" fill="#000000"/><ellipse cx="463.5" cy="509.1484" fill="#000000" rx="3" ry="3" style="stroke:#000000;stroke-width:1;"/><path d="M620.1957,543.0011 L633.1135,544.4607 C652.2847,546.6269 691.9899,551.1134 727.6908,555.1474" fill="none" style="stroke:#000000;stroke-width:1;stroke-dasharray:3,3;"/><path d="M727.3496,558.1668 L729.9553,555.4033 L728.032,552.128 L735.2393,556.0003 L727.3496,558.1668" fill="#000000"/><ellipse cx="620.1957" cy="543.0011" fill="#000000" rx="3" ry="3" style="stroke:#000000;stroke-width:1;"/><path d="M463.5,529.1484 L476.5,529.1484 C521.7985,529.1484 574.7379,536.0963 602.0722,540.2029" fill="none" style="stroke:#000000;stroke-width:1;stroke-dasharray:3,3;"/><path d="M601.6032,543.2526 L604.3594,540.5546 L602.5411,537.1532 L609.6964,541.3753 L601.6032,543.2526" fill="#000000"/><ellipse cx="463.5" cy="529.1484" fill="#000000" rx="3" ry="3" style="stroke:#000000;stroke-width:1;"/><path d="M91.5,360.1484 L104.5,360.1484 C164.5119,360.1484 101.6237,444.8612 141,490.1484 C148.4481,498.7146 156.9851,506.3991 166.2095,513.2872" fill="none" style="stroke:#000000;stroke-width:1;stroke-dasharray:3,3;"/><path d="M164.4443,515.7498 L168.0564,514.6111 L167.9746,510.8246 L172.3659,517.7 L164.4443,515.7498" fill="#000000"/><ellipse cx="91.5" cy="360.1484" fill="#000000" rx="3" ry="3" style="stroke:#000000;stroke-width:1;"/><?plantuml-src rLN1Rjim3BtxAmIZnrPAig67d3fqHO4Ubc8PTWboO6NQLM5BWYIdCOR--oGbijsc6JPiBR1JRBx7H-QHe2-i0-CUh9BPZuoG79J8voGy-XVBxx61_jr7NAVHl-VM6I6hF8QVJdVi1XqKu09_jUUdl90fN1rJ-MCzZpAd0xY1kZtGzShnTvtqXLnmtXhhYTCKW-r1B8hTWhL1oMlUTT-Z_1xk6m63G5H9X7HeqBf4AD1o8xGJIhv68s09a3lLoi8Ny0_Rq6uq8KTjgp-mBpdWIvRGrYv0LxVBw_d73xFp_zlSy3S8LmKUSNN0U_E4B72BzdVy0sEW6-mJ3XixuXrPrDxDPuwlXYHPRCJOELayYfIwVgDnhDRlCv3axklZsAF4AJ-KHhTkF1Vlxg-6eYGkocT63bOSt_c8bSeq4DU-DRtJep6za3en60hbzyvfEsTirukb_ePngv5JPIgscT89dR3GzLa8id3SpdRK6AKXy6-BSLNNo8EPXoK7x2yBAuso4fPAT4nL7BHW9O9h_L5YsX_nAVFDiC0Aq3uhKIxxBgvHtImNNsW7JJrgvitM_BCmlh0otVli-VBRfqiInaoyZVvWItxi17rDUDXw87rYtFpiARj0MSGFOpQbiydidCv-0W00?></g></svg>