<?plantuml 1.2026.2?><svg xmlns="http://www.w3.org/2000/svg" xmlns:xlink="http://www.w3.org/1999/xlink" contentStyleType="text/css" data-diagram-type="JSON" height="668px" preserveAspectRatio="none" style="width:1918px;height:668px;background:#FFFFFF;" version="1.1" viewBox="0 0 1918 668" width="1918px" zoomAndPan="magnify"><defs/><g><rect fill="#F1F1F1" height="81.1875" rx="5" ry="5" style="stroke:#F1F1F1;stroke-width:1.5;" width="81.1406" x="10" y="304.9063"/><text fill="#000000" font-family="sans-serif" font-size="14" font-weight="bold" lengthAdjust="spacing" textLength="23.8643" x="15" y="319.9014">aoi</text><text fill="#000000" font-family="sans-serif" font-size="14" lengthAdjust="spacing" textLength="13.3506" x="72.79" y="319.9014">&#160;&#160;&#160;</text><line style="stroke:#000000;stroke-width:1;" x1="67.79" x2="67.79" y1="304.9063" y2="325.2031"/><line style="stroke:#000000;stroke-width:1;" x1="10" x2="91.1406" y1="325.2031" y2="325.2031"/><text fill="#000000" font-family="sans-serif" font-size="14" font-weight="bold" lengthAdjust="spacing" textLength="37.8711" x="15" y="340.1982">epsg</text><text fill="#000000" font-family="sans-serif" font-size="14" lengthAdjust="spacing" textLength="13.3506" x="72.79" y="340.1982">&#160;&#160;&#160;</text><line style="stroke:#000000;stroke-width:1;" x1="67.79" x2="67.79" y1="325.2031" y2="345.5"/><line style="stroke:#000000;stroke-width:1;" x1="10" x2="91.1406" y1="345.5" y2="345.5"/><text fill="#000000" font-family="sans-serif" font-size="14" font-weight="bold" lengthAdjust="spacing" textLength="47.79" x="15" y="360.4951">bands</text><text fill="#000000" font-family="sans-serif" font-size="14" lengthAdjust="spacing" textLength="13.3506" x="72.79" y="360.4951">&#160;&#160;&#160;</text><line style="stroke:#000000;stroke-width:1;" x1="67.79" x2="67.79" y1="345.5" y2="365.7969"/><line style="stroke:#000000;stroke-width:1;" x1="10" x2="91.1406" y1="365.7969" y2="365.7969"/><text fill="#000000" font-family="sans-serif" font-size="14" font-weight="bold" lengthAdjust="spacing" textLength="43.9072" x="15" y="380.792">items</text><text fill="#000000" font-family="sans-serif" font-size="14" lengthAdjust="spacing" textLength="13.3506" x="72.79" y="380.792">&#160;&#160;&#160;</text><line style="stroke:#000000;stroke-width:1;" x1="67.79" x2="67.79" y1="365.7969" y2="386.0938"/><rect fill="none" height="81.1875" rx="5" ry="5" style="stroke:#000000;stroke-width:1.5;" width="81.1406" x="10" y="304.9063"/><rect fill="#F1F1F1" height="142.0781" rx="5" ry="5" style="stroke:#F1F1F1;stroke-width:1.5;" width="365.6592" x="128" y="34.4609"/><text fill="#000000" font-family="sans-serif" font-size="14" font-weight="bold" lengthAdjust="spacing" textLength="60.1289" x="133" y="49.4561">schema</text><text fill="#000000" font-family="sans-serif" font-size="14" lengthAdjust="spacing" textLength="13.3506" x="246.9951" y="49.4561">&#160;&#160;&#160;</text><line style="stroke:#000000;stroke-width:1;" x1="241.9951" x2="241.9951" y1="34.4609" y2="54.7578"/><line style="stroke:#000000;stroke-width:1;" x1="128" x2="493.6592" y1="54.7578" y2="54.7578"/><text fill="#000000" font-family="sans-serif" font-size="14" font-weight="bold" lengthAdjust="spacing" textLength="75.8311" x="133" y="69.7529">metadata</text><text fill="#000000" font-family="sans-serif" font-size="14" lengthAdjust="spacing" textLength="13.3506" x="246.9951" y="69.7529">&#160;&#160;&#160;</text><line style="stroke:#000000;stroke-width:1;" x1="241.9951" x2="241.9951" y1="54.7578" y2="75.0547"/><line style="stroke:#000000;stroke-width:1;" x1="128" x2="493.6592" y1="75.0547" y2="75.0547"/><text fill="#000000" font-family="sans-serif" font-size="14" font-weight="bold" lengthAdjust="spacing" textLength="83.0566" x="133" y="90.0498">minOccurs</text><text fill="#000000" font-family="sans-serif" font-size="14" lengthAdjust="spacing" textLength="8.9072" x="246.9951" y="90.0498">1</text><line style="stroke:#000000;stroke-width:1;" x1="241.9951" x2="241.9951" y1="75.0547" y2="95.3516"/><line style="stroke:#000000;stroke-width:1;" x1="128" x2="493.6592" y1="95.3516" y2="95.3516"/><text fill="#000000" font-family="sans-serif" font-size="14" font-weight="bold" lengthAdjust="spacing" textLength="86.7686" x="133" y="110.3467">maxOccurs</text><text fill="#000000" font-family="sans-serif" font-size="14" lengthAdjust="spacing" textLength="8.9072" x="246.9951" y="110.3467">1</text><line style="stroke:#000000;stroke-width:1;" x1="241.9951" x2="241.9951" y1="95.3516" y2="115.6484"/><line style="stroke:#000000;stroke-width:1;" x1="128" x2="493.6592" y1="115.6484" y2="115.6484"/><text fill="#000000" font-family="sans-serif" font-size="14" font-weight="bold" lengthAdjust="spacing" textLength="103.9951" x="133" y="130.6436">valuePassing</text><text fill="#000000" font-family="sans-serif" font-size="14" lengthAdjust="spacing" textLength="56.7041" x="246.9951" y="130.6436">byValue</text><line style="stroke:#000000;stroke-width:1;" x1="241.9951" x2="241.9951" y1="115.6484" y2="135.9453"/><line style="stroke:#000000;stroke-width:1;" x1="128" x2="493.6592" y1="135.9453" y2="135.9453"/><text fill="#000000" font-family="sans-serif" font-size="14" font-weight="bold" lengthAdjust="spacing" textLength="32.4775" x="133" y="150.9404">title</text><text fill="#000000" font-family="sans-serif" font-size="14" lengthAdjust="spacing" textLength="107.9395" x="246.9951" y="150.9404">area of interest</text><line style="stroke:#000000;stroke-width:1;" x1="241.9951" x2="241.9951" y1="135.9453" y2="156.2422"/><line style="stroke:#000000;stroke-width:1;" x1="128" x2="493.6592" y1="156.2422" y2="156.2422"/><text fill="#000000" font-family="sans-serif" font-size="14" font-weight="bold" lengthAdjust="spacing" textLength="88.9492" x="133" y="171.2373">description</text><text fill="#000000" font-family="sans-serif" font-size="14" lengthAdjust="spacing" textLength="241.6641" x="246.9951" y="171.2373">area of interest as a bounding box</text><line style="stroke:#000000;stroke-width:1;" x1="241.9951" x2="241.9951" y1="156.2422" y2="176.5391"/><rect fill="none" height="142.0781" rx="5" ry="5" style="stroke:#000000;stroke-width:1.5;" width="365.6592" x="128" y="34.4609"/><rect fill="#F1F1F1" height="40.5938" rx="5" ry="5" style="stroke:#F1F1F1;stroke-width:1.5;" width="313.7266" x="531" y="10"/><text fill="#000000" font-family="sans-serif" font-size="14" font-weight="bold" lengthAdjust="spacing" textLength="35.335" x="536" y="24.9951">type</text><text fill="#000000" font-family="sans-serif" font-size="14" lengthAdjust="spacing" textLength="40.1885" x="602.5127" y="24.9951">string</text><line style="stroke:#000000;stroke-width:1;" x1="597.5127" x2="597.5127" y1="10" y2="30.2969"/><line style="stroke:#000000;stroke-width:1;" x1="531" x2="844.7266" y1="30.2969" y2="30.2969"/><text fill="#000000" font-family="sans-serif" font-size="14" font-weight="bold" lengthAdjust="spacing" textLength="56.5127" x="536" y="45.292">default</text><text fill="#000000" font-family="sans-serif" font-size="14" lengthAdjust="spacing" textLength="237.2139" x="602.5127" y="45.292">-118.985,38.432,-118.183,38.938</text><line style="stroke:#000000;stroke-width:1;" x1="597.5127" x2="597.5127" y1="30.2969" y2="50.5938"/><rect fill="none" height="40.5938" rx="5" ry="5" style="stroke:#000000;stroke-width:1.5;" width="313.7266" x="531" y="10"/><rect fill="#F1F1F1" height="20.2969" rx="5" ry="5" style="stroke:#F1F1F1;stroke-width:1.5;" width="23.3506" x="676.5" y="69.3516"/><text fill="#000000" font-family="sans-serif" font-size="14" lengthAdjust="spacing" textLength="13.3506" x="681.5" y="84.3467">&#160;&#160;&#160;</text><rect fill="none" height="20.2969" rx="5" ry="5" style="stroke:#000000;stroke-width:1.5;" width="23.3506" x="676.5" y="69.3516"/><rect fill="#F1F1F1" height="40.5938" rx="5" ry="5" style="stroke:#F1F1F1;stroke-width:1.5;" width="121.8623" x="890.5" y="59"/><text fill="#000000" font-family="sans-serif" font-size="14" font-weight="bold" lengthAdjust="spacing" textLength="32.4775" x="895.5" y="73.9951">title</text><text fill="#000000" font-family="sans-serif" font-size="14" lengthAdjust="spacing" textLength="59.0283" x="948.334" y="73.9951">cwl:type</text><line style="stroke:#000000;stroke-width:1;" x1="943.334" x2="943.334" y1="59" y2="79.2969"/><line style="stroke:#000000;stroke-width:1;" x1="890.5" x2="1012.3623" y1="79.2969" y2="79.2969"/><text fill="#000000" font-family="sans-serif" font-size="14" font-weight="bold" lengthAdjust="spacing" textLength="42.834" x="895.5" y="94.292">value</text><text fill="#000000" font-family="sans-serif" font-size="14" lengthAdjust="spacing" textLength="40.1885" x="948.334" y="94.292">string</text><line style="stroke:#000000;stroke-width:1;" x1="943.334" x2="943.334" y1="79.2969" y2="99.5938"/><rect fill="none" height="40.5938" rx="5" ry="5" style="stroke:#000000;stroke-width:1.5;" width="121.8623" x="890.5" y="59"/><rect fill="#F1F1F1" height="142.0781" rx="5" ry="5" style="stroke:#F1F1F1;stroke-width:1.5;" width="199.2314" x="211.5" y="194.4609"/><text fill="#000000" font-family="sans-serif" font-size="14" font-weight="bold" lengthAdjust="spacing" textLength="60.1289" x="216.5" y="209.4561">schema</text><text fill="#000000" font-family="sans-serif" font-size="14" lengthAdjust="spacing" textLength="13.3506" x="330.4951" y="209.4561">&#160;&#160;&#160;</text><line style="stroke:#000000;stroke-width:1;" x1="325.4951" x2="325.4951" y1="194.4609" y2="214.7578"/><line style="stroke:#000000;stroke-width:1;" x1="211.5" x2="410.7314" y1="214.7578" y2="214.7578"/><text fill="#000000" font-family="sans-serif" font-size="14" font-weight="bold" lengthAdjust="spacing" textLength="75.8311" x="216.5" y="229.7529">metadata</text><text fill="#000000" font-family="sans-serif" font-size="14" lengthAdjust="spacing" textLength="13.3506" x="330.4951" y="229.7529">&#160;&#160;&#160;</text><line style="stroke:#000000;stroke-width:1;" x1="325.4951" x2="325.4951" y1="214.7578" y2="235.0547"/><line style="stroke:#000000;stroke-width:1;" x1="211.5" x2="410.7314" y1="235.0547" y2="235.0547"/><text fill="#000000" font-family="sans-serif" font-size="14" font-weight="bold" lengthAdjust="spacing" textLength="83.0566" x="216.5" y="250.0498">minOccurs</text><text fill="#000000" font-family="sans-serif" font-size="14" lengthAdjust="spacing" textLength="8.9072" x="330.4951" y="250.0498">1</text><line style="stroke:#000000;stroke-width:1;" x1="325.4951" x2="325.4951" y1="235.0547" y2="255.3516"/><line style="stroke:#000000;stroke-width:1;" x1="211.5" x2="410.7314" y1="255.3516" y2="255.3516"/><text fill="#000000" font-family="sans-serif" font-size="14" font-weight="bold" lengthAdjust="spacing" textLength="86.7686" x="216.5" y="270.3467">maxOccurs</text><text fill="#000000" font-family="sans-serif" font-size="14" lengthAdjust="spacing" textLength="8.9072" x="330.4951" y="270.3467">1</text><line style="stroke:#000000;stroke-width:1;" x1="325.4951" x2="325.4951" y1="255.3516" y2="275.6484"/><line style="stroke:#000000;stroke-width:1;" x1="211.5" x2="410.7314" y1="275.6484" y2="275.6484"/><text fill="#000000" font-family="sans-serif" font-size="14" font-weight="bold" lengthAdjust="spacing" textLength="103.9951" x="216.5" y="290.6436">valuePassing</text><text fill="#000000" font-family="sans-serif" font-size="14" lengthAdjust="spacing" textLength="56.7041" x="330.4951" y="290.6436">byValue</text><line style="stroke:#000000;stroke-width:1;" x1="325.4951" x2="325.4951" y1="275.6484" y2="295.9453"/><line style="stroke:#000000;stroke-width:1;" x1="211.5" x2="410.7314" y1="295.9453" y2="295.9453"/><text fill="#000000" font-family="sans-serif" font-size="14" font-weight="bold" lengthAdjust="spacing" textLength="32.4775" x="216.5" y="310.9404">title</text><text fill="#000000" font-family="sans-serif" font-size="14" lengthAdjust="spacing" textLength="75.2363" x="330.4951" y="310.9404">EPSG code</text><line style="stroke:#000000;stroke-width:1;" x1="325.4951" x2="325.4951" y1="295.9453" y2="316.2422"/><line style="stroke:#000000;stroke-width:1;" x1="211.5" x2="410.7314" y1="316.2422" y2="316.2422"/><text fill="#000000" font-family="sans-serif" font-size="14" font-weight="bold" lengthAdjust="spacing" textLength="88.9492" x="216.5" y="331.2373">description</text><text fill="#000000" font-family="sans-serif" font-size="14" lengthAdjust="spacing" textLength="75.2363" x="330.4951" y="331.2373">EPSG code</text><line style="stroke:#000000;stroke-width:1;" x1="325.4951" x2="325.4951" y1="316.2422" y2="336.5391"/><rect fill="none" height="142.0781" rx="5" ry="5" style="stroke:#000000;stroke-width:1.5;" width="199.2314" x="211.5" y="194.4609"/><rect fill="#F1F1F1" height="40.5938" rx="5" ry="5" style="stroke:#F1F1F1;stroke-width:1.5;" width="153.8818" x="611" y="161"/><text fill="#000000" font-family="sans-serif" font-size="14" font-weight="bold" lengthAdjust="spacing" textLength="35.335" x="616" y="175.9951">type</text><text fill="#000000" font-family="sans-serif" font-size="14" lengthAdjust="spacing" textLength="40.1885" x="682.5127" y="175.9951">string</text><line style="stroke:#000000;stroke-width:1;" x1="677.5127" x2="677.5127" y1="161" y2="181.2969"/><line style="stroke:#000000;stroke-width:1;" x1="611" x2="764.8818" y1="181.2969" y2="181.2969"/><text fill="#000000" font-family="sans-serif" font-size="14" font-weight="bold" lengthAdjust="spacing" textLength="56.5127" x="616" y="196.292">default</text><text fill="#000000" font-family="sans-serif" font-size="14" lengthAdjust="spacing" textLength="77.3691" x="682.5127" y="196.292">EPSG:4326</text><line style="stroke:#000000;stroke-width:1;" x1="677.5127" x2="677.5127" y1="181.2969" y2="201.5938"/><rect fill="none" height="40.5938" rx="5" ry="5" style="stroke:#000000;stroke-width:1.5;" width="153.8818" x="611" y="161"/><rect fill="#F1F1F1" height="20.2969" rx="5" ry="5" style="stroke:#F1F1F1;stroke-width:1.5;" width="23.3506" x="676.5" y="220.3516"/><text fill="#000000" font-family="sans-serif" font-size="14" lengthAdjust="spacing" textLength="13.3506" x="681.5" y="235.3467">&#160;&#160;&#160;</text><rect fill="none" height="20.2969" rx="5" ry="5" style="stroke:#000000;stroke-width:1.5;" width="23.3506" x="676.5" y="220.3516"/><rect fill="#F1F1F1" height="40.5938" rx="5" ry="5" style="stroke:#F1F1F1;stroke-width:1.5;" width="121.8623" x="890.5" y="210"/><text fill="#000000" font-family="sans-serif" font-size="14" font-weight="bold" lengthAdjust="spacing" textLength="32.4775" x="895.5" y="224.9951">title</text><text fill="#000000" font-family="sans-serif" font-size="14" lengthAdjust="spacing" textLength="59.0283" x="948.334" y="224.9951">cwl:type</text><line style="stroke:#000000;stroke-width:1;" x1="943.334" x2="943.334" y1="210" y2="230.2969"/><line style="stroke:#000000;stroke-width:1;" x1="890.5" x2="1012.3623" y1="230.2969" y2="230.2969"/><text fill="#000000" font-family="sans-serif" font-size="14" font-weight="bold" lengthAdjust="spacing" textLength="42.834" x="895.5" y="245.292">value</text><text fill="#000000" font-family="sans-serif" font-size="14" lengthAdjust="spacing" textLength="40.1885" x="948.334" y="245.292">string</text><line style="stroke:#000000;stroke-width:1;" x1="943.334" x2="943.334" y1="230.2969" y2="250.5938"/><rect fill="none" height="40.5938" rx="5" ry="5" style="stroke:#000000;stroke-width:1.5;" width="121.8623" x="890.5" y="210"/><rect fill="#F1F1F1" height="142.0781" rx="5" ry="5" style="stroke:#F1F1F1;stroke-width:1.5;" width="299.4326" x="161.5" y="354.4609"/><text fill="#000000" font-family="sans-serif" font-size="14" font-weight="bold" lengthAdjust="spacing" textLength="60.1289" x="166.5" y="369.4561">schema</text><text fill="#000000" font-family="sans-serif" font-size="14" lengthAdjust="spacing" textLength="13.3506" x="280.4951" y="369.4561">&#160;&#160;&#160;</text><line style="stroke:#000000;stroke-width:1;" x1="275.4951" x2="275.4951" y1="354.4609" y2="374.7578"/><line style="stroke:#000000;stroke-width:1;" x1="161.5" x2="460.9326" y1="374.7578" y2="374.7578"/><text fill="#000000" font-family="sans-serif" font-size="14" font-weight="bold" lengthAdjust="spacing" textLength="75.8311" x="166.5" y="389.7529">metadata</text><text fill="#000000" font-family="sans-serif" font-size="14" lengthAdjust="spacing" textLength="13.3506" x="280.4951" y="389.7529">&#160;&#160;&#160;</text><line style="stroke:#000000;stroke-width:1;" x1="275.4951" x2="275.4951" y1="374.7578" y2="395.0547"/><line style="stroke:#000000;stroke-width:1;" x1="161.5" x2="460.9326" y1="395.0547" y2="395.0547"/><text fill="#000000" font-family="sans-serif" font-size="14" font-weight="bold" lengthAdjust="spacing" textLength="83.0566" x="166.5" y="410.0498">minOccurs</text><text fill="#000000" font-family="sans-serif" font-size="14" lengthAdjust="spacing" textLength="8.9072" x="280.4951" y="410.0498">1</text><line style="stroke:#000000;stroke-width:1;" x1="275.4951" x2="275.4951" y1="395.0547" y2="415.3516"/><line style="stroke:#000000;stroke-width:1;" x1="161.5" x2="460.9326" y1="415.3516" y2="415.3516"/><text fill="#000000" font-family="sans-serif" font-size="14" font-weight="bold" lengthAdjust="spacing" textLength="86.7686" x="166.5" y="430.3467">maxOccurs</text><text fill="#000000" font-family="sans-serif" font-size="14" lengthAdjust="spacing" textLength="8.9072" x="280.4951" y="430.3467">1</text><line style="stroke:#000000;stroke-width:1;" x1="275.4951" x2="275.4951" y1="415.3516" y2="435.6484"/><line style="stroke:#000000;stroke-width:1;" x1="161.5" x2="460.9326" y1="435.6484" y2="435.6484"/><text fill="#000000" font-family="sans-serif" font-size="14" font-weight="bold" lengthAdjust="spacing" textLength="103.9951" x="166.5" y="450.6436">valuePassing</text><text fill="#000000" font-family="sans-serif" font-size="14" lengthAdjust="spacing" textLength="56.7041" x="280.4951" y="450.6436">byValue</text><line style="stroke:#000000;stroke-width:1;" x1="275.4951" x2="275.4951" y1="435.6484" y2="455.9453"/><line style="stroke:#000000;stroke-width:1;" x1="161.5" x2="460.9326" y1="455.9453" y2="455.9453"/><text fill="#000000" font-family="sans-serif" font-size="14" font-weight="bold" lengthAdjust="spacing" textLength="32.4775" x="166.5" y="470.9404">title</text><text fill="#000000" font-family="sans-serif" font-size="14" lengthAdjust="spacing" textLength="175.4375" x="280.4951" y="470.9404">bands used for the NDWI</text><line style="stroke:#000000;stroke-width:1;" x1="275.4951" x2="275.4951" y1="455.9453" y2="476.2422"/><line style="stroke:#000000;stroke-width:1;" x1="161.5" x2="460.9326" y1="476.2422" y2="476.2422"/><text fill="#000000" font-family="sans-serif" font-size="14" font-weight="bold" lengthAdjust="spacing" textLength="88.9492" x="166.5" y="491.2373">description</text><text fill="#000000" font-family="sans-serif" font-size="14" lengthAdjust="spacing" textLength="175.4375" x="280.4951" y="491.2373">bands used for the NDWI</text><line style="stroke:#000000;stroke-width:1;" x1="275.4951" x2="275.4951" y1="476.2422" y2="496.5391"/><rect fill="none" height="142.0781" rx="5" ry="5" style="stroke:#000000;stroke-width:1.5;" width="299.4326" x="161.5" y="354.4609"/><rect fill="#F1F1F1" height="60.8906" rx="5" ry="5" style="stroke:#F1F1F1;stroke-width:1.5;" width="113.4678" x="631.5" y="309"/><text fill="#000000" font-family="sans-serif" font-size="14" font-weight="bold" lengthAdjust="spacing" textLength="35.335" x="636.5" y="323.9951">type</text><text fill="#000000" font-family="sans-serif" font-size="14" lengthAdjust="spacing" textLength="36.9551" x="703.0127" y="323.9951">array</text><line style="stroke:#000000;stroke-width:1;" x1="698.0127" x2="698.0127" y1="309" y2="329.2969"/><line style="stroke:#000000;stroke-width:1;" x1="631.5" x2="744.9678" y1="329.2969" y2="329.2969"/><text fill="#000000" font-family="sans-serif" font-size="14" font-weight="bold" lengthAdjust="spacing" textLength="43.9072" x="636.5" y="344.292">items</text><text fill="#000000" font-family="sans-serif" font-size="14" lengthAdjust="spacing" textLength="13.3506" x="703.0127" y="344.292">&#160;&#160;&#160;</text><line style="stroke:#000000;stroke-width:1;" x1="698.0127" x2="698.0127" y1="329.2969" y2="349.5938"/><line style="stroke:#000000;stroke-width:1;" x1="631.5" x2="744.9678" y1="349.5938" y2="349.5938"/><text fill="#000000" font-family="sans-serif" font-size="14" font-weight="bold" lengthAdjust="spacing" textLength="56.5127" x="636.5" y="364.5889">default</text><text fill="#000000" font-family="sans-serif" font-size="14" lengthAdjust="spacing" textLength="13.3506" x="703.0127" y="364.5889">&#160;&#160;&#160;</text><line style="stroke:#000000;stroke-width:1;" x1="698.0127" x2="698.0127" y1="349.5938" y2="369.8906"/><rect fill="none" height="60.8906" rx="5" ry="5" style="stroke:#000000;stroke-width:1.5;" width="113.4678" x="631.5" y="309"/><rect fill="#F1F1F1" height="20.2969" rx="5" ry="5" style="stroke:#F1F1F1;stroke-width:1.5;" width="95.5234" x="903.5" y="300.3516"/><text fill="#000000" font-family="sans-serif" font-size="14" font-weight="bold" lengthAdjust="spacing" textLength="35.335" x="908.5" y="315.3467">type</text><text fill="#000000" font-family="sans-serif" font-size="14" lengthAdjust="spacing" textLength="40.1885" x="953.835" y="315.3467">string</text><line style="stroke:#000000;stroke-width:1;" x1="948.835" x2="948.835" y1="300.3516" y2="320.6484"/><rect fill="none" height="20.2969" rx="5" ry="5" style="stroke:#000000;stroke-width:1.5;" width="95.5234" x="903.5" y="300.3516"/><rect fill="#F1F1F1" height="40.5938" rx="5" ry="5" style="stroke:#F1F1F1;stroke-width:1.5;" width="50.7422" x="926" y="339"/><text fill="#000000" font-family="sans-serif" font-size="14" lengthAdjust="spacing" textLength="40.7422" x="931" y="353.9951">green</text><line style="stroke:#000000;stroke-width:1;" x1="926" x2="976.7422" y1="359.2969" y2="359.2969"/><text fill="#000000" font-family="sans-serif" font-size="14" lengthAdjust="spacing" textLength="36.333" x="931" y="374.292">nir08</text><rect fill="none" height="40.5938" rx="5" ry="5" style="stroke:#000000;stroke-width:1.5;" width="50.7422" x="926" y="339"/><rect fill="#F1F1F1" height="20.2969" rx="5" ry="5" style="stroke:#F1F1F1;stroke-width:1.5;" width="23.3506" x="676.5" y="398.3516"/><text fill="#000000" font-family="sans-serif" font-size="14" lengthAdjust="spacing" textLength="13.3506" x="681.5" y="413.3467">&#160;&#160;&#160;</text><rect fill="none" height="20.2969" rx="5" ry="5" style="stroke:#000000;stroke-width:1.5;" width="23.3506" x="676.5" y="398.3516"/><rect fill="#F1F1F1" height="40.5938" rx="5" ry="5" style="stroke:#F1F1F1;stroke-width:1.5;" width="121.8623" x="890.5" y="398"/><text fill="#000000" font-family="sans-serif" font-size="14" font-weight="bold" lengthAdjust="spacing" textLength="32.4775" x="895.5" y="412.9951">title</text><text fill="#000000" font-family="sans-serif" font-size="14" lengthAdjust="spacing" textLength="59.0283" x="948.334" y="412.9951">cwl:type</text><line style="stroke:#000000;stroke-width:1;" x1="943.334" x2="943.334" y1="398" y2="418.2969"/><line style="stroke:#000000;stroke-width:1;" x1="890.5" x2="1012.3623" y1="418.2969" y2="418.2969"/><text fill="#000000" font-family="sans-serif" font-size="14" font-weight="bold" lengthAdjust="spacing" textLength="42.834" x="895.5" y="433.292">value</text><text fill="#000000" font-family="sans-serif" font-size="14" lengthAdjust="spacing" textLength="51.1123" x="948.334" y="433.292">string[]</text><line style="stroke:#000000;stroke-width:1;" x1="943.334" x2="943.334" y1="418.2969" y2="438.5938"/><rect fill="none" height="40.5938" rx="5" ry="5" style="stroke:#000000;stroke-width:1.5;" width="121.8623" x="890.5" y="398"/><rect fill="#F1F1F1" height="142.0781" rx="5" ry="5" style="stroke:#F1F1F1;stroke-width:1.5;" width="359.3701" x="131.5" y="514.4609"/><text fill="#000000" font-family="sans-serif" font-size="14" font-weight="bold" lengthAdjust="spacing" textLength="60.1289" x="136.5" y="529.4561">schema</text><text fill="#000000" font-family="sans-serif" font-size="14" lengthAdjust="spacing" textLength="13.3506" x="250.4951" y="529.4561">&#160;&#160;&#160;</text><line style="stroke:#000000;stroke-width:1;" x1="245.4951" x2="245.4951" y1="514.4609" y2="534.7578"/><line style="stroke:#000000;stroke-width:1;" x1="131.5" x2="490.8701" y1="534.7578" y2="534.7578"/><text fill="#000000" font-family="sans-serif" font-size="14" font-weight="bold" lengthAdjust="spacing" textLength="75.8311" x="136.5" y="549.7529">metadata</text><text fill="#000000" font-family="sans-serif" font-size="14" lengthAdjust="spacing" textLength="13.3506" x="250.4951" y="549.7529">&#160;&#160;&#160;</text><line style="stroke:#000000;stroke-width:1;" x1="245.4951" x2="245.4951" y1="534.7578" y2="555.0547"/><line style="stroke:#000000;stroke-width:1;" x1="131.5" x2="490.8701" y1="555.0547" y2="555.0547"/><text fill="#000000" font-family="sans-serif" font-size="14" font-weight="bold" lengthAdjust="spacing" textLength="83.0566" x="136.5" y="570.0498">minOccurs</text><text fill="#000000" font-family="sans-serif" font-size="14" lengthAdjust="spacing" textLength="8.9072" x="250.4951" y="570.0498">1</text><line style="stroke:#000000;stroke-width:1;" x1="245.4951" x2="245.4951" y1="555.0547" y2="575.3516"/><line style="stroke:#000000;stroke-width:1;" x1="131.5" x2="490.8701" y1="575.3516" y2="575.3516"/><text fill="#000000" font-family="sans-serif" font-size="14" font-weight="bold" lengthAdjust="spacing" textLength="86.7686" x="136.5" y="590.3467">maxOccurs</text><text fill="#000000" font-family="sans-serif" font-size="14" lengthAdjust="spacing" textLength="8.9072" x="250.4951" y="590.3467">1</text><line style="stroke:#000000;stroke-width:1;" x1="245.4951" x2="245.4951" y1="575.3516" y2="595.6484"/><line style="stroke:#000000;stroke-width:1;" x1="131.5" x2="490.8701" y1="595.6484" y2="595.6484"/><text fill="#000000" font-family="sans-serif" font-size="14" font-weight="bold" lengthAdjust="spacing" textLength="103.9951" x="136.5" y="610.6436">valuePassing</text><text fill="#000000" font-family="sans-serif" font-size="14" lengthAdjust="spacing" textLength="56.7041" x="250.4951" y="610.6436">byValue</text><line style="stroke:#000000;stroke-width:1;" x1="245.4951" x2="245.4951" y1="595.6484" y2="615.9453"/><line style="stroke:#000000;stroke-width:1;" x1="131.5" x2="490.8701" y1="615.9453" y2="615.9453"/><text fill="#000000" font-family="sans-serif" font-size="14" font-weight="bold" lengthAdjust="spacing" textLength="32.4775" x="136.5" y="630.9404">title</text><text fill="#000000" font-family="sans-serif" font-size="14" lengthAdjust="spacing" textLength="235.375" x="250.4951" y="630.9404">Landsat-8/9 acquisition reference</text><line style="stroke:#000000;stroke-width:1;" x1="245.4951" x2="245.4951" y1="615.9453" y2="636.2422"/><line style="stroke:#000000;stroke-width:1;" x1="131.5" x2="490.8701" y1="636.2422" y2="636.2422"/><text fill="#000000" font-family="sans-serif" font-size="14" font-weight="bold" lengthAdjust="spacing" textLength="88.9492" x="136.5" y="651.2373">description</text><text fill="#000000" font-family="sans-serif" font-size="14" lengthAdjust="spacing" textLength="235.375" x="250.4951" y="651.2373">Landsat-8/9 acquisition reference</text><line style="stroke:#000000;stroke-width:1;" x1="245.4951" x2="245.4951" y1="636.2422" y2="656.5391"/><rect fill="none" height="142.0781" rx="5" ry="5" style="stroke:#000000;stroke-width:1.5;" width="359.3701" x="131.5" y="514.4609"/><rect fill="#F1F1F1" height="40.5938" rx="5" ry="5" style="stroke:#F1F1F1;stroke-width:1.5;" width="100.8623" x="637.5" y="488"/><text fill="#000000" font-family="sans-serif" font-size="14" font-weight="bold" lengthAdjust="spacing" textLength="35.335" x="642.5" y="502.9951">type</text><text fill="#000000" font-family="sans-serif" font-size="14" lengthAdjust="spacing" textLength="36.9551" x="696.4072" y="502.9951">array</text><line style="stroke:#000000;stroke-width:1;" x1="691.4072" x2="691.4072" y1="488" y2="508.2969"/><line style="stroke:#000000;stroke-width:1;" x1="637.5" x2="738.3623" y1="508.2969" y2="508.2969"/><text fill="#000000" font-family="sans-serif" font-size="14" font-weight="bold" lengthAdjust="spacing" textLength="43.9072" x="642.5" y="523.292">items</text><text fill="#000000" font-family="sans-serif" font-size="14" lengthAdjust="spacing" textLength="13.3506" x="696.4072" y="523.292">&#160;&#160;&#160;</text><line style="stroke:#000000;stroke-width:1;" x1="691.4072" x2="691.4072" y1="508.2969" y2="528.5938"/><rect fill="none" height="40.5938" rx="5" ry="5" style="stroke:#000000;stroke-width:1.5;" width="100.8623" x="637.5" y="488"/><rect fill="#F1F1F1" height="20.2969" rx="5" ry="5" style="stroke:#F1F1F1;stroke-width:1.5;" width="80.4229" x="911.5" y="506.3516"/><text fill="#000000" font-family="sans-serif" font-size="14" font-weight="bold" lengthAdjust="spacing" textLength="47.0723" x="916.5" y="521.3467">oneOf</text><text fill="#000000" font-family="sans-serif" font-size="14" lengthAdjust="spacing" textLength="13.3506" x="973.5723" y="521.3467">&#160;&#160;&#160;</text><line style="stroke:#000000;stroke-width:1;" x1="968.5723" x2="968.5723" y1="506.3516" y2="526.6484"/><rect fill="none" height="20.2969" rx="5" ry="5" style="stroke:#000000;stroke-width:1.5;" width="80.4229" x="911.5" y="506.3516"/><rect fill="#F1F1F1" height="81.1875" rx="5" ry="5" style="stroke:#F1F1F1;stroke-width:1.5;" width="23.3506" x="1058" y="475.9063"/><text fill="#000000" font-family="sans-serif" font-size="14" lengthAdjust="spacing" textLength="13.3506" x="1063" y="490.9014">&#160;&#160;&#160;</text><line style="stroke:#000000;stroke-width:1;" x1="1058" x2="1081.3506" y1="496.2031" y2="496.2031"/><text fill="#000000" font-family="sans-serif" font-size="14" lengthAdjust="spacing" textLength="13.3506" x="1063" y="511.1982">&#160;&#160;&#160;</text><line style="stroke:#000000;stroke-width:1;" x1="1058" x2="1081.3506" y1="516.5" y2="516.5"/><text fill="#000000" font-family="sans-serif" font-size="14" lengthAdjust="spacing" textLength="13.3506" x="1063" y="531.4951">&#160;&#160;&#160;</text><line style="stroke:#000000;stroke-width:1;" x1="1058" x2="1081.3506" y1="536.7969" y2="536.7969"/><text fill="#000000" font-family="sans-serif" font-size="14" lengthAdjust="spacing" textLength="13.3506" x="1063" y="551.792">&#160;&#160;&#160;</text><rect fill="none" height="81.1875" rx="5" ry="5" style="stroke:#000000;stroke-width:1.5;" width="23.3506" x="1058" y="475.9063"/><rect fill="#F1F1F1" height="40.5938" rx="5" ry="5" style="stroke:#F1F1F1;stroke-width:1.5;" width="113.5293" x="1455.5" y="428"/><text fill="#000000" font-family="sans-serif" font-size="14" font-weight="bold" lengthAdjust="spacing" textLength="35.335" x="1460.5" y="442.9951">type</text><text fill="#000000" font-family="sans-serif" font-size="14" lengthAdjust="spacing" textLength="40.1885" x="1523.8408" y="442.9951">string</text><line style="stroke:#000000;stroke-width:1;" x1="1518.8408" x2="1518.8408" y1="428" y2="448.2969"/><line style="stroke:#000000;stroke-width:1;" x1="1455.5" x2="1569.0293" y1="448.2969" y2="448.2969"/><text fill="#000000" font-family="sans-serif" font-size="14" font-weight="bold" lengthAdjust="spacing" textLength="53.3408" x="1460.5" y="463.292">format</text><text fill="#000000" font-family="sans-serif" font-size="14" lengthAdjust="spacing" textLength="18.5186" x="1523.8408" y="463.292">uri</text><line style="stroke:#000000;stroke-width:1;" x1="1518.8408" x2="1518.8408" y1="448.2969" y2="468.5938"/><rect fill="none" height="40.5938" rx="5" ry="5" style="stroke:#000000;stroke-width:1.5;" width="113.5293" x="1455.5" y="428"/><rect fill="#F1F1F1" height="20.2969" rx="5" ry="5" style="stroke:#F1F1F1;stroke-width:1.5;" width="543.0791" x="1241" y="487.3516"/><text fill="#000000" font-family="sans-serif" font-size="14" font-weight="bold" lengthAdjust="spacing" textLength="32.2314" x="1246" y="502.3467">$ref</text><text fill="#000000" font-family="sans-serif" font-size="14" lengthAdjust="spacing" textLength="490.8477" x="1288.2314" y="502.3467">https://schemas.stacspec.org/v1.0.0/item-spec/json-schema/item.json</text><line style="stroke:#000000;stroke-width:1;" x1="1283.2314" x2="1283.2314" y1="487.3516" y2="507.6484"/><rect fill="none" height="20.2969" rx="5" ry="5" style="stroke:#000000;stroke-width:1.5;" width="543.0791" x="1241" y="487.3516"/><rect fill="#F1F1F1" height="20.2969" rx="5" ry="5" style="stroke:#F1F1F1;stroke-width:1.5;" width="614.1592" x="1205.5" y="525.3516"/><text fill="#000000" font-family="sans-serif" font-size="14" font-weight="bold" lengthAdjust="spacing" textLength="32.2314" x="1210.5" y="540.3467">$ref</text><text fill="#000000" font-family="sans-serif" font-size="14" lengthAdjust="spacing" textLength="561.9277" x="1252.7314" y="540.3467">https://schemas.stacspec.org/v1.0.0/collection-spec/json-schema/collection.json</text><line style="stroke:#000000;stroke-width:1;" x1="1247.7314" x2="1247.7314" y1="525.3516" y2="545.6484"/><rect fill="none" height="20.2969" rx="5" ry="5" style="stroke:#000000;stroke-width:1.5;" width="614.1592" x="1205.5" y="525.3516"/><rect fill="#F1F1F1" height="20.2969" rx="5" ry="5" style="stroke:#F1F1F1;stroke-width:1.5;" width="788.5986" x="1118" y="563.3516"/><text fill="#000000" font-family="sans-serif" font-size="14" font-weight="bold" lengthAdjust="spacing" textLength="32.2314" x="1123" y="578.3467">$ref</text><text fill="#000000" font-family="sans-serif" font-size="14" lengthAdjust="spacing" textLength="736.3672" x="1165.2314" y="578.3467">https://schemas.opengis.net/ogcapi/features/part1/1.0/openapi/schemas/featureCollectionGeoJSON.yaml</text><line style="stroke:#000000;stroke-width:1;" x1="1160.2314" x2="1160.2314" y1="563.3516" y2="583.6484"/><rect fill="none" height="20.2969" rx="5" ry="5" style="stroke:#000000;stroke-width:1.5;" width="788.5986" x="1118" y="563.3516"/><rect fill="#F1F1F1" height="20.2969" rx="5" ry="5" style="stroke:#F1F1F1;stroke-width:1.5;" width="23.3506" x="676.5" y="550.3516"/><text fill="#000000" font-family="sans-serif" font-size="14" lengthAdjust="spacing" textLength="13.3506" x="681.5" y="565.3467">&#160;&#160;&#160;</text><rect fill="none" height="20.2969" rx="5" ry="5" style="stroke:#000000;stroke-width:1.5;" width="23.3506" x="676.5" y="550.3516"/><rect fill="#F1F1F1" height="40.5938" rx="5" ry="5" style="stroke:#F1F1F1;stroke-width:1.5;" width="138.5898" x="882" y="545"/><text fill="#000000" font-family="sans-serif" font-size="14" font-weight="bold" lengthAdjust="spacing" textLength="32.4775" x="887" y="559.9951">title</text><text fill="#000000" font-family="sans-serif" font-size="14" lengthAdjust="spacing" textLength="59.0283" x="939.834" y="559.9951">cwl:type</text><line style="stroke:#000000;stroke-width:1;" x1="934.834" x2="934.834" y1="545" y2="565.2969"/><line style="stroke:#000000;stroke-width:1;" x1="882" x2="1020.5898" y1="565.2969" y2="565.2969"/><text fill="#000000" font-family="sans-serif" font-size="14" font-weight="bold" lengthAdjust="spacing" textLength="42.834" x="887" y="580.292">value</text><text fill="#000000" font-family="sans-serif" font-size="14" lengthAdjust="spacing" textLength="75.7559" x="939.834" y="580.292">Directory[]</text><line style="stroke:#000000;stroke-width:1;" x1="934.834" x2="934.834" y1="565.2969" y2="585.5938"/><rect fill="none" height="40.5938" rx="5" ry="5" style="stroke:#000000;stroke-width:1.5;" width="138.5898" x="882" y="545"/><path d="M482,44.5 L495,44.5 C504.3202,44.5 513.8875,44.3347 523.5383,44.0401" fill="none" style="stroke:#000000;stroke-width:1;stroke-dasharray:3,3;"/><path d="M523.6436,47.1419 L525.8646,43.9611 L523.433,40.9383 L531.2928,43.7768 L523.6436,47.1419" fill="#000000"/><ellipse cx="482" cy="44.5" fill="#000000" rx="3" ry="3" style="stroke:#000000;stroke-width:1;"/><path d="M687.118,79.5 L700.118,79.5 C731.5822,79.5 820.3097,79.5 883.2983,79.5" fill="none" style="stroke:#000000;stroke-width:1;stroke-dasharray:3,3;"/><path d="M883.2983,82.5193 L885.5628,79.5 L883.2983,76.4807 L890.8466,79.5 L883.2983,82.5193" fill="#000000"/><ellipse cx="687.118" cy="79.5" fill="#000000" rx="3" ry="3" style="stroke:#000000;stroke-width:1;"/><path d="M482,64.5 L495,64.5 C558.9683,64.5 634.5333,72.8348 668.8618,77.0785" fill="none" style="stroke:#000000;stroke-width:1;stroke-dasharray:3,3;"/><path d="M668.4686,80.2013 L671.2039,77.3735 L669.2551,73.9557 L676.6688,78.0617 L668.4686,80.2013" fill="#000000"/><ellipse cx="482" cy="64.5" fill="#000000" rx="3" ry="3" style="stroke:#000000;stroke-width:1;"/><path d="M79,315.5 L92,315.5 C151.9522,315.5 88.7436,230.8123 128,185.5 C128.8955,184.4664 129.8068,183.4456 130.7333,182.4375" fill="none" style="stroke:#000000;stroke-width:1;stroke-dasharray:3,3;"/><path d="M132.9876,184.6244 L132.3734,180.7468 L128.479,180.2507 L136.2004,176.8018 L132.9876,184.6244" fill="#000000"/><ellipse cx="79" cy="315.5" fill="#000000" rx="3" ry="3" style="stroke:#000000;stroke-width:1;"/><path d="M398.5,204.5 L411.5,204.5 C476.2511,204.5 549.2529,198.1355 603.9073,192.1025" fill="none" style="stroke:#000000;stroke-width:1;stroke-dasharray:3,3;"/><path d="M604.2467,195.1374 L606.1836,191.8479 L603.568,189.0675 L611.4948,191.2541 L604.2467,195.1374" fill="#000000"/><ellipse cx="398.5" cy="204.5" fill="#000000" rx="3" ry="3" style="stroke:#000000;stroke-width:1;"/><path d="M687.118,230.5 L700.118,230.5 C731.5822,230.5 820.3097,230.5 883.2983,230.5" fill="none" style="stroke:#000000;stroke-width:1;stroke-dasharray:3,3;"/><path d="M883.2983,233.5193 L885.5628,230.5 L883.2983,227.4807 L890.8466,230.5 L883.2983,233.5193" fill="#000000"/><ellipse cx="687.118" cy="230.5" fill="#000000" rx="3" ry="3" style="stroke:#000000;stroke-width:1;"/><path d="M398.5,224.5 L411.5,224.5 C508.7564,224.5 625.2447,228.2699 669.3683,229.8332" fill="none" style="stroke:#000000;stroke-width:1;stroke-dasharray:3,3;"/><path d="M669.259,232.8751 L671.6498,229.9151 L669.4776,226.7912 L676.9732,230.1063 L669.259,232.8751" fill="#000000"/><ellipse cx="398.5" cy="224.5" fill="#000000" rx="3" ry="3" style="stroke:#000000;stroke-width:1;"/><path d="M79,335.5 L92,335.5 C129.7458,335.5 169.4858,325.909 204.5718,313.8272" fill="none" style="stroke:#000000;stroke-width:1;stroke-dasharray:3,3;"/><path d="M205.6172,316.7928 L206.796,313.0432 L203.5265,310.8616 L211.9858,311.2138 L205.6172,316.7928" fill="#000000"/><ellipse cx="79" cy="335.5" fill="#000000" rx="3" ry="3" style="stroke:#000000;stroke-width:1;"/><path d="M732.5,339.5 L745.5,339.5 C797.5663,339.5 856.3314,330.2596 897.6426,322.2108" fill="none" style="stroke:#000000;stroke-width:1;stroke-dasharray:3,3;"/><path d="M898.2372,325.2129 L899.8941,321.7649 L897.0479,319.2088 L905.1476,320.7243 L898.2372,325.2129" fill="#000000"/><ellipse cx="732.5" cy="339.5" fill="#000000" rx="3" ry="3" style="stroke:#000000;stroke-width:1;"/><path d="M732.5,359.5 L745.5,359.5 C806.7085,359.5 878.172,359.5 918.6552,359.5" fill="none" style="stroke:#000000;stroke-width:1;stroke-dasharray:3,3;"/><path d="M918.6552,362.5685 L920.9566,359.5 L918.6552,356.4315 L926.3266,359.5 L918.6552,362.5685" fill="#000000"/><ellipse cx="732.5" cy="359.5" fill="#000000" rx="3" ry="3" style="stroke:#000000;stroke-width:1;"/><path d="M448.5,364.5 L461.5,364.5 C516.7286,364.5 579.0912,357.0332 624.295,350.261" fill="none" style="stroke:#000000;stroke-width:1;stroke-dasharray:3,3;"/><path d="M624.7617,353.3283 L626.5955,349.9109 L623.8283,347.1936 L631.9633,349.0942 L624.7617,353.3283" fill="#000000"/><ellipse cx="448.5" cy="364.5" fill="#000000" rx="3" ry="3" style="stroke:#000000;stroke-width:1;"/><path d="M687.1274,408.4477 L700.118,408.9426 C731.5822,410.1412 820.3097,413.5213 883.2983,415.9209" fill="none" style="stroke:#000000;stroke-width:1;stroke-dasharray:3,3;"/><path d="M883.1833,418.9402 L885.5628,416.0072 L883.4133,412.9015 L890.8466,416.2084 L883.1833,418.9402" fill="#000000"/><ellipse cx="687.1274" cy="408.4477" fill="#000000" rx="3" ry="3" style="stroke:#000000;stroke-width:1;"/><path d="M448.5,384.5 L461.5,384.5 C538.8999,384.5 630.3809,398.5919 668.9169,405.1794" fill="none" style="stroke:#000000;stroke-width:1;stroke-dasharray:3,3;"/><path d="M668.3743,408.3018 L671.2587,405.5864 L669.4595,402.0571 L676.7229,406.536 L668.3743,408.3018" fill="#000000"/><ellipse cx="448.5" cy="384.5" fill="#000000" rx="3" ry="3" style="stroke:#000000;stroke-width:1;"/><path d="M79,355.5 L92,355.5 C112.4876,355.5 133.5627,358.3256 154.1623,362.8414" fill="none" style="stroke:#000000;stroke-width:1;stroke-dasharray:3,3;"/><path d="M153.467,365.8678 L156.432,363.3629 L154.8575,359.8151 L161.7281,364.5795 L153.467,365.8678" fill="#000000"/><ellipse cx="79" cy="355.5" fill="#000000" rx="3" ry="3" style="stroke:#000000;stroke-width:1;"/><path d="M1069,486.5 L1082,486.5 C1098.3903,486.5 1101.7873,480.9061 1118,478.5 C1233.6279,461.3399 1369.8881,453.7326 1448.0858,450.5637" fill="none" style="stroke:#000000;stroke-width:1;stroke-dasharray:3,3;"/><path d="M1448.2101,453.7029 L1450.4402,450.4704 L1447.9614,447.4245 L1455.9338,450.2527 L1448.2101,453.7029" fill="#000000"/><ellipse cx="1069" cy="486.5" fill="#000000" rx="3" ry="3" style="stroke:#000000;stroke-width:1;"/><path d="M1069,506.5 L1082,506.5 C1131.006,506.5 1183.1467,505.9085 1233.5939,505.0287" fill="none" style="stroke:#000000;stroke-width:1;stroke-dasharray:3,3;"/><path d="M1233.649,508.1307 L1235.9204,504.9874 L1233.5388,501.9267 L1241.3489,504.891 L1233.649,508.1307" fill="#000000"/><ellipse cx="1069" cy="506.5" fill="#000000" rx="3" ry="3" style="stroke:#000000;stroke-width:1;"/><path d="M1069,526.5 L1082,526.5 C1119.5387,526.5 1158.9168,526.8471 1197.9641,527.4049" fill="none" style="stroke:#000000;stroke-width:1;stroke-dasharray:3,3;"/><path d="M1197.9184,530.5267 L1200.3054,527.4392 L1198.0098,524.2832 L1205.7685,527.5193 L1197.9184,530.5267" fill="#000000"/><ellipse cx="1069" cy="526.5" fill="#000000" rx="3" ry="3" style="stroke:#000000;stroke-width:1;"/><path d="M1069,546.5 L1082,546.5 C1098.3903,546.5 1101.7554,552.3196 1118,554.5 C1141.9891,557.7199 1166.8642,560.4129 1191.9236,562.6631" fill="none" style="stroke:#000000;stroke-width:1;stroke-dasharray:3,3;"/><path d="M1191.6499,565.776 L1194.2582,562.8684 L1192.1972,559.5502 L1199.7057,563.3473 L1191.6499,565.776" fill="#000000"/><ellipse cx="1069" cy="546.5" fill="#000000" rx="3" ry="3" style="stroke:#000000;stroke-width:1;"/><path d="M979,516.5 L992,516.5 C1011.8516,516.5 1034.582,516.5 1050.1715,516.5" fill="none" style="stroke:#000000;stroke-width:1;stroke-dasharray:3,3;"/><path d="M1050.1715,519.645 L1052.5302,516.5 L1050.1715,513.355 L1058.034,516.5 L1050.1715,519.645" fill="#000000"/><ellipse cx="979" cy="516.5" fill="#000000" rx="3" ry="3" style="stroke:#000000;stroke-width:1;"/><path d="M726.5,518.5 L739.5,518.5 C796.02,518.5 861.0322,517.777 903.8928,517.2004" fill="none" style="stroke:#000000;stroke-width:1;stroke-dasharray:3,3;"/><path d="M903.9351,520.2957 L906.2142,517.1687 L903.8505,514.1051 L911.6309,517.0947 L903.9351,520.2957" fill="#000000"/><ellipse cx="726.5" cy="518.5" fill="#000000" rx="3" ry="3" style="stroke:#000000;stroke-width:1;"/><path d="M478.5,524.5 L491.5,524.5 C538.2305,524.5 591.0208,519.9261 630.0322,515.6693" fill="none" style="stroke:#000000;stroke-width:1;stroke-dasharray:3,3;"/><path d="M630.3705,518.7144 L632.316,515.4156 L629.694,512.6242 L637.6449,514.8236 L630.3705,518.7144" fill="#000000"/><ellipse cx="478.5" cy="524.5" fill="#000000" rx="3" ry="3" style="stroke:#000000;stroke-width:1;"/><path d="M687.1204,560.4737 L700.118,560.7213 C730.1386,561.2931 812.2882,562.8579 874.4735,564.0424" fill="none" style="stroke:#000000;stroke-width:1;stroke-dasharray:3,3;"/><path d="M874.4136,567.1879 L876.8326,564.0873 L874.5334,560.8968 L882.3373,564.1921 L874.4136,567.1879" fill="#000000"/><ellipse cx="687.1204" cy="560.4737" fill="#000000" rx="3" ry="3" style="stroke:#000000;stroke-width:1;"/><path d="M478.5,544.5 L491.5,544.5 C556.9653,544.5 634.3236,553.4766 669.0302,557.9824" fill="none" style="stroke:#000000;stroke-width:1;stroke-dasharray:3,3;"/><path d="M668.6138,561.131 L671.3917,558.2947 L669.4466,554.8338 L676.9018,559.0234 L668.6138,561.131" fill="#000000"/><ellipse cx="478.5" cy="544.5" fill="#000000" rx="3" ry="3" style="stroke:#000000;stroke-width:1;"/><path d="M79,375.5 L92,375.5 C151.9522,375.5 88.7436,460.1877 128,505.5 C128.8955,506.5336 129.8068,507.5544 130.7333,508.5625" fill="none" style="stroke:#000000;stroke-width:1;stroke-dasharray:3,3;"/><path d="M128.479,510.7493 L132.3734,510.2532 L132.9876,506.3756 L136.2004,514.1982 L128.479,510.7493" fill="#000000"/><ellipse cx="79" cy="375.5" fill="#000000" rx="3" ry="3" style="stroke:#000000;stroke-width:1;"/><?plantuml-src rLLBYzim4BxxLmZJOoB5IRiuEIrqoz9IDWiBtKF8OIAF7HLRSYLvkw7alrTIOiSXcxQm3-Z9ckSt-iOpkZGMjFrkb8n-HOJ4e4Gy8_xe1CFNM44dEutTrEZas5WjP14FMds6EJIbzQPXagHqcduOJ5BwVZ8U13b99rwUJj8uX6ntaN655ZAm7cEnpzLYUJHXom37VvQp03qu61-WRFgrx2tRy5ss-OMSSzveunoJLWUF9xgGx1QCyPbSpjNcMqY_DtU5W4OWAYT2MjHeREkGeU5Qr5Oe-PGR0KE0h5GZCmVW3e--t412ZBKfdadvfzkxwvdZ-kB_9jTVWt2LuHbM3_QEl1N8pFmBUw0rR0xa2OkLwVcTyjpU-0c-5uUWGYFAFd5Iw57Q1YzVgHsBvTiq9B1B6eCPoPKcTetavkh-yvdsdFFkcdLC-hEQfIJEywDMzCdyqzpihQx22iBmD5h4FTjsS3xbEuqUD5vRMviPOxiR6EfsA3SrSgfqmHuIEg8ZveiUUYNpotMuSmrQwXMl0SbLMIBtxJW5FjXU15xLA0jXg4JBLC6X5Yn7i8rRTgns3qh2N4dCUtdJFgfr-TZLSetgoztyXcwWAezAwixBen_z9KVfIcXNXDARjvgchtu-m0vJDYN0VpJ22Cy1SHIxHqBoSsllxt5-mg9jT8ao2ozvbD3nQ7n1nxy1?></g></svg>