<?plantuml 1.2026.2?><svg xmlns="http://www.w3.org/2000/svg" xmlns:xlink="http://www.w3.org/1999/xlink" contentStyleType="text/css" data-diagram-type="DESCRIPTION" height="364px" preserveAspectRatio="none" style="width:370px;height:364px;background:#FFFFFF;" version="1.1" viewBox="0 0 370 364" width="370px" zoomAndPan="magnify"><defs/><g><!--cluster Workflow 'pattern-4'--><g class="cluster" data-qualified-name="Workflow .pattern-4." data-source-line="12" id="ent0002"><polygon fill="none" points="16,16,26,6,353,6,353,337,343,347,16,347,16,16" style="stroke:#181818;stroke-width:1;"/><line style="stroke:#181818;stroke-width:1;" x1="343" x2="353" y1="16" y2="6"/><line style="stroke:#181818;stroke-width:1;" x1="16" x2="343" y1="16" y2="16"/><line style="stroke:#181818;stroke-width:1;" x1="343" x2="343" y1="16" y2="347"/><text fill="#000000" font-family="sans-serif" font-size="14" font-weight="bold" lengthAdjust="spacing" textLength="162.9346" x="99.0327" y="31.9951">Workflow 'pattern-4'</text></g><!--cluster pattern_4--><g class="cluster" data-qualified-name="Workflow .pattern-4..pattern_4" data-source-line="13" id="ent0003"><rect fill="none" height="168" rx="2.5" ry="2.5" style="stroke:#181818;stroke-width:1;" width="130" x="28" y="60"/><rect fill="none" height="10" style="stroke:#181818;stroke-width:1;" width="15" x="138" y="65"/><rect fill="none" height="2" style="stroke:#181818;stroke-width:1;" width="4" x="136" y="67"/><rect fill="none" height="2" style="stroke:#181818;stroke-width:1;" width="4" x="136" y="71"/><text fill="#000000" font-family="sans-serif" font-size="14" font-weight="bold" lengthAdjust="spacing" textLength="74.7715" x="55.6143" y="85.9951">pattern-4</text></g><!--cluster pattern_4_step--><g class="cluster" data-qualified-name="Workflow .pattern-4..pattern_4_step" data-source-line="29" id="ent0009"><rect fill="none" height="181.5" rx="2.5" ry="2.5" style="stroke:#181818;stroke-width:1;" width="133" x="158" y="135.5"/><path d="M202.542,135.5 L202.542,144.7969 L192.542,154.7969 L158,154.7969" fill="none" style="stroke:#181818;stroke-width:1;"/><text fill="#000000" font-family="sans-serif" font-size="14" font-weight="bold" lengthAdjust="spacing" textLength="34.542" x="161" y="149.4951">step</text></g><g class="entity" data-qualified-name="Workflow .pattern-4..pattern_4.pattern_4_aoi" data-source-line="15" id="ent0004"><text fill="#000000" font-family="sans-serif" font-size="14" lengthAdjust="spacing" textLength="21.0342" x="82.4829" y="38.6982">aoi</text><rect fill="#F1F1F1" height="12" style="stroke:#181818;stroke-width:1.5;" width="12" x="87" y="54"/></g><g class="entity" data-qualified-name="Workflow .pattern-4..pattern_4.pattern_4_epsg" data-source-line="17" id="ent0005"><text fill="#000000" font-family="sans-serif" font-size="14" lengthAdjust="spacing" textLength="33.6807" x="123.1597" y="38.6982">epsg</text><rect fill="#F1F1F1" height="12" style="stroke:#181818;stroke-width:1.5;" width="12" x="134" y="54"/></g><g class="entity" data-qualified-name="Workflow .pattern-4..pattern_4.pattern_4_item" data-source-line="19" id="ent0006"><text fill="#000000" font-family="sans-serif" font-size="14" lengthAdjust="spacing" textLength="31.6299" x="30.1851" y="38.6982">item</text><rect fill="#F1F1F1" height="12" style="stroke:#181818;stroke-width:1.5;" width="12" x="40" y="54"/></g><g class="entity" data-qualified-name="Workflow .pattern-4..pattern_4.pattern_4_ndvi" data-source-line="22" id="ent0007"><text fill="#000000" font-family="sans-serif" font-size="14" lengthAdjust="spacing" textLength="29.9346" x="75.0327" y="246.9951">ndvi</text><rect fill="#F1F1F1" height="12" style="stroke:#181818;stroke-width:1.5;" width="12" x="84" y="222"/></g><g class="entity" data-qualified-name="Workflow .pattern-4..pattern_4.pattern_4_ndwi" data-source-line="24" id="ent0008"><text fill="#000000" font-family="sans-serif" font-size="14" lengthAdjust="spacing" textLength="33.0996" x="120.4502" y="246.9951">ndwi</text><rect fill="#F1F1F1" height="12" style="stroke:#181818;stroke-width:1.5;" width="12" x="131" y="222"/></g><g class="entity" data-qualified-name="Workflow .pattern-4..pattern_4_step.pattern_4_step_item" data-source-line="31" id="ent0010"><text fill="#000000" font-family="sans-serif" font-size="14" lengthAdjust="spacing" textLength="31.6299" x="163.1851" y="114.1982">item</text><rect fill="#F1F1F1" height="12" style="stroke:#181818;stroke-width:1.5;" width="12" x="173" y="129.5"/></g><g class="entity" data-qualified-name="Workflow .pattern-4..pattern_4_step.pattern_4_step_aoi" data-source-line="39" id="ent0012"><text fill="#000000" font-family="sans-serif" font-size="14" lengthAdjust="spacing" textLength="21.0342" x="215.4829" y="114.1982">aoi</text><rect fill="#F1F1F1" height="12" style="stroke:#181818;stroke-width:1.5;" width="12" x="220" y="129.5"/></g><g class="entity" data-qualified-name="Workflow .pattern-4..pattern_4_step.pattern_4_step_epsg" data-source-line="47" id="ent0014"><text fill="#000000" font-family="sans-serif" font-size="14" lengthAdjust="spacing" textLength="33.6807" x="256.1597" y="114.1982">epsg</text><rect fill="#F1F1F1" height="12" style="stroke:#181818;stroke-width:1.5;" width="12" x="267" y="129.5"/></g><g class="entity" data-qualified-name="Workflow .pattern-4..pattern_4_step.pattern_4_step_ndvi" data-source-line="57" id="ent0016"><text fill="#000000" font-family="sans-serif" font-size="14" lengthAdjust="spacing" textLength="29.9346" x="161.0327" y="335.9951">ndvi</text><rect fill="#F1F1F1" height="12" style="stroke:#181818;stroke-width:1.5;" width="12" x="170" y="311"/></g><g class="entity" data-qualified-name="Workflow .pattern-4..pattern_4_step.pattern_4_step_ndwi" data-source-line="59" id="ent0017"><text fill="#000000" font-family="sans-serif" font-size="14" lengthAdjust="spacing" textLength="33.0996" x="206.4502" y="335.9951">ndwi</text><rect fill="#F1F1F1" height="12" style="stroke:#181818;stroke-width:1.5;" width="12" x="217" y="311"/></g><!--entity clt--><g class="entity" data-qualified-name="Workflow .pattern-4..pattern_4_step.clt" data-source-line="62" id="ent0018"><rect fill="#F1F1F1" height="46.2969" rx="2.5" ry="2.5" style="stroke:#181818;stroke-width:0.5;" width="57.0762" x="178.5" y="205"/><rect fill="#F1F1F1" height="10" style="stroke:#181818;stroke-width:0.5;" width="15" x="215.5762" y="210"/><rect fill="#F1F1F1" height="2" style="stroke:#181818;stroke-width:0.5;" width="4" x="213.5762" y="212"/><rect fill="#F1F1F1" height="2" style="stroke:#181818;stroke-width:0.5;" width="4" x="213.5762" y="216"/><text fill="#000000" font-family="sans-serif" font-size="14" lengthAdjust="spacing" textLength="17.0762" x="193.5" y="237.9951">clt</text></g><!--link pattern_4_item to pattern_4_step_item--><g class="link" data-entity-1="ent0006" data-entity-2="ent0010" data-link-type="dependency" data-source-line="35" id="lnk11"><path d="M42.67,66.01 C42.67,78.48 42.67,106 42.67,106 C42.67,106 179,106 179,106 C179,106 179,114.58 179,123.24" fill="none" id="pattern_4_item-to-pattern_4_step_item" style="stroke:#181818;stroke-width:1;stroke-dasharray:7,7;"/><polygon fill="#181818" points="179,129.24,183,120.24,179,124.24,175,120.24,179,129.24" style="stroke:#181818;stroke-width:1;"/></g><!--link pattern_4_aoi to pattern_4_step_aoi--><g class="link" data-entity-1="ent0004" data-entity-2="ent0012" data-link-type="dependency" data-source-line="43" id="lnk13"><path d="M93,66.03 C93,73.71 93,86 93,86 C93,86 226,86 226,86 C226,86 226,110.21 226,123.43" fill="none" id="pattern_4_aoi-to-pattern_4_step_aoi" style="stroke:#181818;stroke-width:1;stroke-dasharray:7,7;"/><polygon fill="#181818" points="226,129.43,230,120.43,226,124.43,222,120.43,226,129.43" style="stroke:#181818;stroke-width:1;"/></g><!--link pattern_4_epsg to pattern_4_step_epsg--><g class="link" data-entity-1="ent0005" data-entity-2="ent0014" data-link-type="dependency" data-source-line="51" id="lnk15"><path d="M146.06,60 C172.08,60 273,60 273,60 C273,60 273,105.29 273,123.32" fill="none" id="pattern_4_epsg-to-pattern_4_step_epsg" style="stroke:#181818;stroke-width:1;stroke-dasharray:7,7;"/><polygon fill="#181818" points="273,129.32,277,120.32,273,124.32,269,120.32,273,129.32" style="stroke:#181818;stroke-width:1;"/></g><!--reverse link pattern_4_ndvi to pattern_4_step_ndvi--><g class="link" data-entity-1="ent0007" data-entity-2="ent0016" data-link-type="dependency" data-source-line="70" id="lnk20"><path d="M90,240.12 C90,260.22 90,317 90,317 C90,317 150.1,317 169.82,317" fill="none" id="pattern_4_ndvi-backto-pattern_4_step_ndvi" style="stroke:#181818;stroke-width:1;stroke-dasharray:7,7;"/><polygon fill="#181818" points="90,234.12,86,243.12,90,239.12,94,243.12,90,234.12" style="stroke:#181818;stroke-width:1;"/></g><!--reverse link pattern_4_ndwi to pattern_4_step_ndwi--><g class="link" data-entity-1="ent0008" data-entity-2="ent0017" data-link-type="dependency" data-source-line="76" id="lnk22"><path d="M137,240.08 C137,254 137,281 137,281 C137,281 223,281 223,281 C223,281 223,300.42 223,310.73" fill="none" id="pattern_4_ndwi-backto-pattern_4_step_ndwi" style="stroke:#181818;stroke-width:1;stroke-dasharray:7,7;"/><polygon fill="#181818" points="137,234.08,133,243.08,137,239.08,141,243.08,137,234.08" style="stroke:#181818;stroke-width:1;"/></g><?plantuml-src dPD1ReCm44Ntd6B4XXM48ej4MMJL8rJgCdB1eLR0ji34YghSlJO2WebfQBm0UNZ_wtiyR08F0dYdkAXn1GLXfCQIvF1rXKoLYMYh4YvnX50K6r3IYZGILs8FIPoaORmD4_JnjjqdkptQHIXDDRNnFAyvKoQmyImf8_8g2F1QVdFFBCPp0ludhy-daYi819QIr2n4WGy_7kYLyKfmHfW4V_pe0swWtnrH3tOFiuIsfmnypAaD7dN5ZHBH53FMbDmmbQIQmQPqXoq5RtLobb_cMKnfaLQFj9hGDzqvypxfhkhsDPA86MzAItrnv3Vu_H2Mwc5ZUrejW2ZdYaM7Fvqj_TgRwso6wtifdnOlnPlwhaZd69REPfoOb_8PzL90ozcHSFtKTNR_6xrUCipVg9dyc5afEv5-3_DvcuMoupi2GTGAw-HZoYVNyiHPkPmL_GK0?></g></svg>