<?plantuml 1.2026.2?><svg xmlns="http://www.w3.org/2000/svg" xmlns:xlink="http://www.w3.org/1999/xlink" contentStyleType="text/css" data-diagram-type="DESCRIPTION" height="429px" preserveAspectRatio="none" style="width:715px;height:429px;background:#FFFFFF;" version="1.1" viewBox="0 0 715 429" width="715px" zoomAndPan="magnify"><defs/><g><!--cluster Workflow 'pattern-2'--><g class="cluster" data-qualified-name="Workflow .pattern-2." data-source-line="12" id="ent0002"><polygon fill="none" points="16,16,26,6,698,6,698,402,688,412,16,412,16,16" style="stroke:#181818;stroke-width:1;"/><line style="stroke:#181818;stroke-width:1;" x1="688" x2="698" y1="16" y2="6"/><line style="stroke:#181818;stroke-width:1;" x1="16" x2="688" y1="16" y2="16"/><line style="stroke:#181818;stroke-width:1;" x1="688" x2="688" y1="16" y2="412"/><text fill="#000000" font-family="sans-serif" font-size="14" font-weight="bold" lengthAdjust="spacing" textLength="162.9346" x="271.5327" y="31.9951">Workflow 'pattern-2'</text></g><!--cluster pattern_2--><g class="cluster" data-qualified-name="Workflow .pattern-2..pattern_2" data-source-line="13" id="ent0003"><rect fill="none" height="197" rx="2.5" ry="2.5" style="stroke:#181818;stroke-width:1;" width="308" x="49" y="72"/><rect fill="none" height="10" style="stroke:#181818;stroke-width:1;" width="15" x="337" y="77"/><rect fill="none" height="2" style="stroke:#181818;stroke-width:1;" width="4" x="335" y="79"/><rect fill="none" height="2" style="stroke:#181818;stroke-width:1;" width="4" x="335" y="83"/><text fill="#000000" font-family="sans-serif" font-size="14" font-weight="bold" lengthAdjust="spacing" textLength="74.7715" x="165.6143" y="97.9951">pattern-2</text></g><!--cluster pattern_2_step--><g class="cluster" data-qualified-name="Workflow .pattern-2..pattern_2_step" data-source-line="31" id="ent0010"><rect fill="none" height="202" rx="2.5" ry="2.5" style="stroke:#181818;stroke-width:1;" width="266" x="399" y="168"/><path d="M443.542,168 L443.542,177.2969 L433.542,187.2969 L399,187.2969" fill="none" style="stroke:#181818;stroke-width:1;"/><text fill="#000000" font-family="sans-serif" font-size="14" font-weight="bold" lengthAdjust="spacing" textLength="34.542" x="402" y="181.9951">step</text></g><g class="entity" data-qualified-name="Workflow .pattern-2..pattern_2.pattern_2_aoi" data-source-line="15" id="ent0004"><text fill="#000000" font-family="sans-serif" font-size="14" lengthAdjust="spacing" textLength="21.0342" x="124.4829" y="50.6982">aoi</text><rect fill="#F1F1F1" height="12" style="stroke:#181818;stroke-width:1.5;" width="12" x="129" y="66"/></g><g class="entity" data-qualified-name="Workflow .pattern-2..pattern_2.pattern_2_epsg" data-source-line="17" id="ent0005"><text fill="#000000" font-family="sans-serif" font-size="14" lengthAdjust="spacing" textLength="33.6807" x="165.1597" y="50.6982">epsg</text><rect fill="#F1F1F1" height="12" style="stroke:#181818;stroke-width:1.5;" width="12" x="176" y="66"/></g><g class="entity" data-qualified-name="Workflow .pattern-2..pattern_2.pattern_2_bands" data-source-line="19" id="ent0006"><text fill="#000000" font-family="sans-serif" font-size="14" lengthAdjust="spacing" textLength="42.5195" x="228.7402" y="50.6982">bands</text><rect fill="#F1F1F1" height="12" style="stroke:#181818;stroke-width:1.5;" width="12" x="244" y="66"/></g><g class="entity" data-qualified-name="Workflow .pattern-2..pattern_2.pattern_2_item_1" data-source-line="21" id="ent0007"><text fill="#000000" font-family="sans-serif" font-size="14" lengthAdjust="spacing" textLength="47.5371" x="315.2314" y="50.6982">item_1</text><rect fill="#F1F1F1" height="12" style="stroke:#181818;stroke-width:1.5;" width="12" x="333" y="66"/></g><g class="entity" data-qualified-name="Workflow .pattern-2..pattern_2.pattern_2_item_2" data-source-line="23" id="ent0008"><text fill="#000000" font-family="sans-serif" font-size="14" lengthAdjust="spacing" textLength="47.5371" x="43.2314" y="50.6982">item_2</text><rect fill="#F1F1F1" height="12" style="stroke:#181818;stroke-width:1.5;" width="12" x="61" y="66"/></g><g class="entity" data-qualified-name="Workflow .pattern-2..pattern_2.pattern_2_water_bodies" data-source-line="26" id="ent0009"><text fill="#000000" font-family="sans-serif" font-size="14" lengthAdjust="spacing" textLength="93.0234" x="224.4883" y="287.9951">water_bodies</text><rect fill="#F1F1F1" height="12" style="stroke:#181818;stroke-width:1.5;" width="12" x="265" y="263"/></g><g class="entity" data-qualified-name="Workflow .pattern-2..pattern_2_step.pattern_2_step_item_1" data-source-line="33" id="ent0011"><text fill="#000000" font-family="sans-serif" font-size="14" lengthAdjust="spacing" textLength="47.5371" x="623.2314" y="146.6982">item_1</text><rect fill="#F1F1F1" height="12" style="stroke:#181818;stroke-width:1.5;" width="12" x="641" y="162"/></g><g class="entity" data-qualified-name="Workflow .pattern-2..pattern_2_step.pattern_2_step_item_2" data-source-line="41" id="ent0013"><text fill="#000000" font-family="sans-serif" font-size="14" lengthAdjust="spacing" textLength="47.5371" x="393.2314" y="146.6982">item_2</text><rect fill="#F1F1F1" height="12" style="stroke:#181818;stroke-width:1.5;" width="12" x="411" y="162"/></g><g class="entity" data-qualified-name="Workflow .pattern-2..pattern_2_step.pattern_2_step_aoi" data-source-line="49" id="ent0015"><text fill="#000000" font-family="sans-serif" font-size="14" lengthAdjust="spacing" textLength="21.0342" x="474.4829" y="146.6982">aoi</text><rect fill="#F1F1F1" height="12" style="stroke:#181818;stroke-width:1.5;" width="12" x="479" y="162"/></g><g class="entity" data-qualified-name="Workflow .pattern-2..pattern_2_step.pattern_2_step_epsg" data-source-line="57" id="ent0017"><text fill="#000000" font-family="sans-serif" font-size="14" lengthAdjust="spacing" textLength="33.6807" x="515.1597" y="146.6982">epsg</text><rect fill="#F1F1F1" height="12" style="stroke:#181818;stroke-width:1.5;" width="12" x="526" y="162"/></g><g class="entity" data-qualified-name="Workflow .pattern-2..pattern_2_step.pattern_2_step_band" data-source-line="65" id="ent0019"><text fill="#000000" font-family="sans-serif" font-size="14" lengthAdjust="spacing" textLength="35.2256" x="561.3872" y="146.6982">band</text><rect fill="#F1F1F1" height="12" style="stroke:#181818;stroke-width:1.5;" width="12" x="573" y="162"/></g><g class="entity" data-qualified-name="Workflow .pattern-2..pattern_2_step.pattern_2_step_stac_catalog" data-source-line="75" id="ent0021"><text fill="#000000" font-family="sans-serif" font-size="14" lengthAdjust="spacing" textLength="85.7979" x="429.1011" y="388.9951">stac-catalog</text><rect fill="#F1F1F1" height="12" style="stroke:#181818;stroke-width:1.5;" width="12" x="466" y="364"/></g><!--entity clt--><g class="entity" data-qualified-name="Workflow .pattern-2..pattern_2_step.clt" data-source-line="78" id="ent0022"><rect fill="#F1F1F1" height="46.2969" rx="2.5" ry="2.5" style="stroke:#181818;stroke-width:0.5;" width="57.0762" x="429.5" y="246"/><rect fill="#F1F1F1" height="10" style="stroke:#181818;stroke-width:0.5;" width="15" x="466.5762" y="251"/><rect fill="#F1F1F1" height="2" style="stroke:#181818;stroke-width:0.5;" width="4" x="464.5762" y="253"/><rect fill="#F1F1F1" height="2" style="stroke:#181818;stroke-width:0.5;" width="4" x="464.5762" y="257"/><text fill="#000000" font-family="sans-serif" font-size="14" lengthAdjust="spacing" textLength="17.0762" x="444.5" y="278.9951">clt</text></g><!--link pattern_2_item_1 to pattern_2_step_item_1--><g class="link" data-entity-1="ent0007" data-entity-2="ent0011" data-link-type="dependency" data-source-line="37" id="lnk12"><path d="M345.15,72 C388.56,72 647,72 647,72 C647,72 647,134.98 647,155.99" fill="none" id="pattern_2_item_1-to-pattern_2_step_item_1" style="stroke:#181818;stroke-width:1;stroke-dasharray:7,7;"/><polygon fill="#181818" points="647,161.99,651,152.99,647,156.99,643,152.99,647,161.99" style="stroke:#181818;stroke-width:1;"/></g><!--link pattern_2_item_2 to pattern_2_step_item_2--><g class="link" data-entity-1="ent0008" data-entity-2="ent0013" data-link-type="dependency" data-source-line="45" id="lnk14"><path d="M67,78.24 C67,97.54 67,155 67,155 C67,155 405.55,155 410.94,155" fill="none" id="pattern_2_item_2-to-pattern_2_step_item_2" style="stroke:#181818;stroke-width:1;stroke-dasharray:7,7;"/><polygon fill="#181818" points="416.94,155,407.94,151,411.94,155,407.94,159,416.94,155" style="stroke:#181818;stroke-width:1;"/></g><!--link pattern_2_aoi to pattern_2_step_aoi--><g class="link" data-entity-1="ent0004" data-entity-2="ent0015" data-link-type="dependency" data-source-line="53" id="lnk16"><path d="M135,78.27 C135,94.21 135,135 135,135 C135,135 485,135 485,135 C485,135 485,146.42 485,155.95" fill="none" id="pattern_2_aoi-to-pattern_2_step_aoi" style="stroke:#181818;stroke-width:1;stroke-dasharray:7,7;"/><polygon fill="#181818" points="485,161.95,489,152.95,485,156.95,481,152.95,485,161.95" style="stroke:#181818;stroke-width:1;"/></g><!--link pattern_2_epsg to pattern_2_step_epsg--><g class="link" data-entity-1="ent0005" data-entity-2="ent0017" data-link-type="dependency" data-source-line="61" id="lnk18"><path d="M182,78.28 C182,91.29 182,120 182,120 C182,120 532,120 532,120 C532,120 532,142.71 532,155.72" fill="none" id="pattern_2_epsg-to-pattern_2_step_epsg" style="stroke:#181818;stroke-width:1;stroke-dasharray:7,7;"/><polygon fill="#181818" points="532,161.72,536,152.72,532,156.72,528,152.72,532,161.72" style="stroke:#181818;stroke-width:1;"/></g><!--link pattern_2_bands to pattern_2_step_band--><g class="link" data-entity-1="ent0006" data-entity-2="ent0019" data-link-type="dependency" data-source-line="69" id="lnk20"><path d="M261.5,72.09 C261.5,74.03 261.5,105 261.5,105 C261.5,105 579,105 579,105 C579,105 579,139.79 579,155.73" fill="none" id="pattern_2_bands-to-pattern_2_step_band" style="stroke:#181818;stroke-width:1;stroke-dasharray:7,7;"/><polygon fill="#181818" points="579,161.73,583,152.73,579,156.73,575,152.73,579,161.73" style="stroke:#181818;stroke-width:1;"/></g><!--reverse link pattern_2_water_bodies to pattern_2_step_stac_catalog--><g class="link" data-entity-1="ent0009" data-entity-2="ent0021" data-link-type="dependency" data-source-line="86" id="lnk24"><path d="M266,281.02 C266,302.76 266,370 266,370 C266,370 430.84,370 465.61,370" fill="none" id="pattern_2_water_bodies-backto-pattern_2_step_stac_catalog" style="stroke:#181818;stroke-width:1;stroke-dasharray:7,7;"/><polygon fill="#181818" points="266,275.02,262,284.02,266,280.02,270,284.02,266,275.02" style="stroke:#181818;stroke-width:1;"/></g><?plantuml-src fLJBReCm4Bpp5Iikd234JPCgXvxw2PLwH0viKYjWM-0KHLN-lJRD0picJQWF8E_EZCThhoTH016yCRgfQGKRv5XJXGMizf2t9P6xgeIlD9dDajG05QkmKRIIIo0fcSVf8YQpz-bYILwMJscIpfyrQX84GRDbN5AZMJAEQYyHHAq-HM065mL2-27gxReKBKIIAeKrZqaKmdS0UkIYae8ZLn2Uao7G1ewpZ1o1tSSCgUKPXv0APWCp7V53KJOR1sj2Vl2Ayg9nq5tC3sSAgspgu7-3DmZ4Ho0NWiKIErsTLfzMdQr4mT1rrqzTs0TTV_DVwxFHXz0eb0xFX8QgwzsM8VJtPZ6l9hQkKnj82j7ovFKFTKlZWNfUjCW_dPARJiaZJgzlR2TqkhQZF6hoaC6-xXtkF4tIoPmxPPG_mnuoQ2dVuT1qeS-XYOztsFNsa4LBscDne5drovd7ELMq5DwQcdnspFU4d0SnBrL7rlzJHn-S5MrlDrQ1P2UjxVKVZHy0?></g></svg>