<?plantuml 1.2026.2?><svg xmlns="http://www.w3.org/2000/svg" xmlns:xlink="http://www.w3.org/1999/xlink" contentStyleType="text/css" data-diagram-type="DESCRIPTION" height="412px" preserveAspectRatio="none" style="width:459px;height:412px;background:#FFFFFF;" version="1.1" viewBox="0 0 459 412" width="459px" zoomAndPan="magnify"><defs/><g><!--cluster Workflow 'pattern-9'--><g class="cluster" data-qualified-name="Workflow .pattern-9." data-source-line="12" id="ent0002"><polygon fill="none" points="16,16,26,6,442,6,442,385,432,395,16,395,16,16" style="stroke:#181818;stroke-width:1;"/><line style="stroke:#181818;stroke-width:1;" x1="432" x2="442" y1="16" y2="6"/><line style="stroke:#181818;stroke-width:1;" x1="16" x2="432" y1="16" y2="16"/><line style="stroke:#181818;stroke-width:1;" x1="432" x2="432" y1="16" y2="395"/><text fill="#000000" font-family="sans-serif" font-size="14" font-weight="bold" lengthAdjust="spacing" textLength="162.9346" x="143.5327" y="31.9951">Workflow 'pattern-9'</text></g><!--cluster pattern_9--><g class="cluster" data-qualified-name="Workflow .pattern-9..pattern_9" data-source-line="13" id="ent0003"><rect fill="none" height="180" rx="2.5" ry="2.5" style="stroke:#181818;stroke-width:1;" width="198" x="28" y="72"/><rect fill="none" height="10" style="stroke:#181818;stroke-width:1;" width="15" x="206" y="77"/><rect fill="none" height="2" style="stroke:#181818;stroke-width:1;" width="4" x="204" y="79"/><rect fill="none" height="2" style="stroke:#181818;stroke-width:1;" width="4" x="204" y="83"/><text fill="#000000" font-family="sans-serif" font-size="14" font-weight="bold" lengthAdjust="spacing" textLength="74.7715" x="89.6143" y="97.9951">pattern-9</text></g><!--cluster pattern_9_step--><g class="cluster" data-qualified-name="Workflow .pattern-9..pattern_9_step" data-source-line="29" id="ent0009"><rect fill="none" height="193.5" rx="2.5" ry="2.5" style="stroke:#181818;stroke-width:1;" width="177" x="247" y="159.5"/><path d="M291.542,159.5 L291.542,168.7969 L281.542,178.7969 L247,178.7969" fill="none" style="stroke:#181818;stroke-width:1;"/><text fill="#000000" font-family="sans-serif" font-size="14" font-weight="bold" lengthAdjust="spacing" textLength="34.542" x="250" y="173.4951">step</text></g><g class="entity" data-qualified-name="Workflow .pattern-9..pattern_9.pattern_9_aoi" data-source-line="15" id="ent0004"><text fill="#000000" font-family="sans-serif" font-size="14" lengthAdjust="spacing" textLength="21.0342" x="82.4829" y="50.6982">aoi</text><rect fill="#F1F1F1" height="12" style="stroke:#181818;stroke-width:1.5;" width="12" x="87" y="66"/></g><g class="entity" data-qualified-name="Workflow .pattern-9..pattern_9.pattern_9_epsg" data-source-line="17" id="ent0005"><text fill="#000000" font-family="sans-serif" font-size="14" lengthAdjust="spacing" textLength="33.6807" x="123.1597" y="50.6982">epsg</text><rect fill="#F1F1F1" height="12" style="stroke:#181818;stroke-width:1.5;" width="12" x="134" y="66"/></g><g class="entity" data-qualified-name="Workflow .pattern-9..pattern_9.pattern_9_indexes" data-source-line="19" id="ent0006"><text fill="#000000" font-family="sans-serif" font-size="14" lengthAdjust="spacing" textLength="54.4551" x="180.7725" y="50.6982">indexes</text><rect fill="#F1F1F1" height="12" style="stroke:#181818;stroke-width:1.5;" width="12" x="202" y="66"/></g><g class="entity" data-qualified-name="Workflow .pattern-9..pattern_9.pattern_9_item" data-source-line="21" id="ent0007"><text fill="#000000" font-family="sans-serif" font-size="14" lengthAdjust="spacing" textLength="31.6299" x="30.1851" y="50.6982">item</text><rect fill="#F1F1F1" height="12" style="stroke:#181818;stroke-width:1.5;" width="12" x="40" y="66"/></g><g class="entity" data-qualified-name="Workflow .pattern-9..pattern_9.pattern_9_vegetation_indexes" data-source-line="24" id="ent0008"><text fill="#000000" font-family="sans-serif" font-size="14" lengthAdjust="spacing" textLength="136.7393" x="78.1304" y="270.9951">vegetation_indexes</text><rect fill="#F1F1F1" height="12" style="stroke:#181818;stroke-width:1.5;" width="12" x="140.5" y="246"/></g><g class="entity" data-qualified-name="Workflow .pattern-9..pattern_9_step.pattern_9_step_item" data-source-line="31" id="ent0010"><text fill="#000000" font-family="sans-serif" font-size="14" lengthAdjust="spacing" textLength="31.6299" x="249.1851" y="138.1982">item</text><rect fill="#F1F1F1" height="12" style="stroke:#181818;stroke-width:1.5;" width="12" x="259" y="153.5"/></g><g class="entity" data-qualified-name="Workflow .pattern-9..pattern_9_step.pattern_9_step_aoi" data-source-line="39" id="ent0012"><text fill="#000000" font-family="sans-serif" font-size="14" lengthAdjust="spacing" textLength="21.0342" x="301.4829" y="138.1982">aoi</text><rect fill="#F1F1F1" height="12" style="stroke:#181818;stroke-width:1.5;" width="12" x="306" y="153.5"/></g><g class="entity" data-qualified-name="Workflow .pattern-9..pattern_9_step.pattern_9_step_epsg" data-source-line="47" id="ent0014"><text fill="#000000" font-family="sans-serif" font-size="14" lengthAdjust="spacing" textLength="33.6807" x="342.1597" y="138.1982">epsg</text><rect fill="#F1F1F1" height="12" style="stroke:#181818;stroke-width:1.5;" width="12" x="353" y="153.5"/></g><g class="entity" data-qualified-name="Workflow .pattern-9..pattern_9_step.pattern_9_step_index" data-source-line="55" id="ent0016"><text fill="#000000" font-family="sans-serif" font-size="14" lengthAdjust="spacing" textLength="38.5479" x="386.7261" y="138.1982">index</text><rect fill="#F1F1F1" height="12" style="stroke:#181818;stroke-width:1.5;" width="12" x="400" y="153.5"/></g><g class="entity" data-qualified-name="Workflow .pattern-9..pattern_9_step.pattern_9_step_vegetation_index" data-source-line="65" id="ent0018"><text fill="#000000" font-family="sans-serif" font-size="14" lengthAdjust="spacing" textLength="120.832" x="286.084" y="371.9951">vegetation_index</text><rect fill="#F1F1F1" height="12" style="stroke:#181818;stroke-width:1.5;" width="12" x="340.5" y="347"/></g><!--entity clt--><g class="entity" data-qualified-name="Workflow .pattern-9..pattern_9_step.clt" data-source-line="68" id="ent0019"><rect fill="#F1F1F1" height="46.2969" rx="2.5" ry="2.5" style="stroke:#181818;stroke-width:0.5;" width="57.0762" x="267.5" y="229"/><rect fill="#F1F1F1" height="10" style="stroke:#181818;stroke-width:0.5;" width="15" x="304.5762" y="234"/><rect fill="#F1F1F1" height="2" style="stroke:#181818;stroke-width:0.5;" width="4" x="302.5762" y="236"/><rect fill="#F1F1F1" height="2" style="stroke:#181818;stroke-width:0.5;" width="4" x="302.5762" y="240"/><text fill="#000000" font-family="sans-serif" font-size="14" lengthAdjust="spacing" textLength="17.0762" x="282.5" y="261.9951">clt</text></g><!--link pattern_9_item to pattern_9_step_item--><g class="link" data-entity-1="ent0007" data-entity-2="ent0010" data-link-type="dependency" data-source-line="35" id="lnk11"><path d="M46,78.27 C46,94.21 46,135 46,135 C46,135 265,135 265,135 C265,135 265,140.06 265,147.32" fill="none" id="pattern_9_item-to-pattern_9_step_item" style="stroke:#181818;stroke-width:1;stroke-dasharray:7,7;"/><polygon fill="#181818" points="265,153.32,269,144.32,265,148.32,261,144.32,265,153.32" style="stroke:#181818;stroke-width:1;"/></g><!--link pattern_9_aoi to pattern_9_step_aoi--><g class="link" data-entity-1="ent0004" data-entity-2="ent0012" data-link-type="dependency" data-source-line="43" id="lnk13"><path d="M93,78.28 C93,91.29 93,120 93,120 C93,120 312,120 312,120 C312,120 312,136.22 312,147.33" fill="none" id="pattern_9_aoi-to-pattern_9_step_aoi" style="stroke:#181818;stroke-width:1;stroke-dasharray:7,7;"/><polygon fill="#181818" points="312,153.33,316,144.33,312,148.33,308,144.33,312,153.33" style="stroke:#181818;stroke-width:1;"/></g><!--link pattern_9_epsg to pattern_9_step_epsg--><g class="link" data-entity-1="ent0005" data-entity-2="ent0014" data-link-type="dependency" data-source-line="51" id="lnk15"><path d="M140,78.05 C140,87.58 140,105 140,105 C140,105 359,105 359,105 C359,105 359,132.93 359,147.25" fill="none" id="pattern_9_epsg-to-pattern_9_step_epsg" style="stroke:#181818;stroke-width:1;stroke-dasharray:7,7;"/><polygon fill="#181818" points="359,153.25,363,144.25,359,148.25,355,144.25,359,153.25" style="stroke:#181818;stroke-width:1;"/></g><!--link pattern_9_indexes to pattern_9_step_index--><g class="link" data-entity-1="ent0006" data-entity-2="ent0016" data-link-type="dependency" data-source-line="59" id="lnk17"><path d="M214.14,72 C247.56,72 406,72 406,72 C406,72 406,127.72 406,147.49" fill="none" id="pattern_9_indexes-to-pattern_9_step_index" style="stroke:#181818;stroke-width:1;stroke-dasharray:7,7;"/><polygon fill="#181818" points="406,153.49,410,144.49,406,148.49,402,144.49,406,153.49" style="stroke:#181818;stroke-width:1;"/></g><!--reverse link pattern_9_vegetation_indexes to pattern_9_step_vegetation_index--><g class="link" data-entity-1="ent0008" data-entity-2="ent0018" data-link-type="dependency" data-source-line="76" id="lnk21"><path d="M136,258.07 C136,261.13 136,353 136,353 C136,353 304.84,353 340.45,353" fill="none" id="pattern_9_vegetation_indexes-backto-pattern_9_step_vegetation_index" style="stroke:#181818;stroke-width:1;stroke-dasharray:7,7;"/><polygon fill="#181818" points="136,252.07,132,261.07,136,257.07,140,261.07,136,252.07" style="stroke:#181818;stroke-width:1;"/></g><?plantuml-src fLJBReCm4Bpp5Iikd4A0Hat2eQT-GgKU8pTig1MmBTWaZQhyUssQbntJeDG7BAzdnkFTDUCeW0XUEIiRLaE90Xj6MC377fQxAbERke9j4a-cSMA0n6jiYTKgXop9daV9R9JDtjAdF9lcQHedawb6ZOCWQDTSA6OqAowGzWf1DlGf0pE4B132TzciLvNSGQGO4JPYD8z2-0v0ZwMibHGe2CBpPWYiXUDgCJy2kuyPIijp0I6Jt0OkTCGFHTMM3jQ4_60k2lp2ri4VepqKmjh5wz05R37aHbzsYoKI8ox5md_WBU2YTD2fDVDAfrtdjoLK3jk4-XBdSMlW5yiMwsPXQreNXhYGEn6__AbiyOUMjfCvrVSXVvhSP-zQTu0xJpTrCkUMUiYVOVSPj9G7EEmQnbjYi_6F6lysOc-PBNMFpu5lmUVSnLm9Eh-HPKMTW9vFZ-NWd6nxl7CIn1jbtVNsPVu0?></g></svg>