<?plantuml 1.2026.2?><svg xmlns="http://www.w3.org/2000/svg" xmlns:xlink="http://www.w3.org/1999/xlink" contentStyleType="text/css" data-diagram-type="ACTIVITY" height="523px" preserveAspectRatio="none" style="width:477px;height:523px;background:#FFFFFF;" version="1.1" viewBox="0 0 477 523" width="477px" zoomAndPan="magnify"><defs/><g><rect fill="#FFFFCC" height="48.2813" rx="2.5" ry="2.5" style="stroke:#FFDD88;stroke-width:3;" width="466.5381" x="5" y="5"/><text fill="#000000" font-family="monospace" font-size="10" lengthAdjust="spacing" textLength="451.5381" x="10" y="20">You&#160;should&#160;use&#160;a&#160;bracket&#160;({)&#160;when&#160;defining&#160;your&#160;container&#160;'group'&#160;pattern-3</text><text fill="#000000" font-family="monospace" font-size="10" lengthAdjust="spacing" textLength="307.0459" x="10" y="41.6406">You&#160;should&#160;use&#160;a&#160;bracket&#160;(})&#160;instead&#160;of&#160;'end&#160;group'</text><ellipse cx="165.3535" cy="78.2813" fill="#222222" rx="10" ry="10" style="stroke:#222222;stroke-width:1;"/><rect fill="none" height="372.1719" style="stroke:#000000;stroke-width:1.5;" width="326.707" x="11" y="98.2813"/><path d="M86.6455,98.2813 L86.6455,107.5781 L76.6455,117.5781 L11,117.5781" fill="none" style="stroke:#000000;stroke-width:1.5;"/><text fill="#000000" font-family="sans-serif" font-size="14" lengthAdjust="spacing" textLength="65.6455" x="14" y="112.2764">pattern-3</text><line style="stroke:#181818;stroke-width:1.5;" x1="42.0146" x2="289.0254" y1="134.5781" y2="134.5781"/><polygon fill="#F1F1F1" points="23,154.5781,71.0293,154.5781,61.0293,171.5625,71.0293,188.5469,23,188.5469" style="stroke:#181818;stroke-width:0.5;"/><text fill="#000000" font-family="sans-serif" font-size="12" lengthAdjust="spacing" textLength="18.0293" x="33" y="175.7168">aoi</text><polygon fill="#F1F1F1" points="81.0293,154.5781,139.8984,154.5781,129.8984,171.5625,139.8984,188.5469,81.0293,188.5469" style="stroke:#181818;stroke-width:0.5;"/><text fill="#000000" font-family="sans-serif" font-size="12" lengthAdjust="spacing" textLength="28.8691" x="91.0293" y="175.7168">epsg</text><polygon fill="#F1F1F1" points="167.8984,154.5781,234.3438,154.5781,224.3438,171.5625,234.3438,188.5469,167.8984,188.5469" style="stroke:#181818;stroke-width:0.5;"/><text fill="#000000" font-family="sans-serif" font-size="12" lengthAdjust="spacing" textLength="36.4453" x="177.8984" y="175.7168">bands</text><polygon fill="#F1F1F1" points="262.3438,154.5781,325.707,154.5781,315.707,171.5625,325.707,188.5469,262.3438,188.5469" style="stroke:#181818;stroke-width:0.5;"/><text fill="#000000" font-family="sans-serif" font-size="12" lengthAdjust="spacing" textLength="33.3633" x="272.3438" y="175.7168">items</text><line style="stroke:#181818;stroke-width:1.5;" x1="42.0146" x2="289.0254" y1="208.5469" y2="208.5469"/><rect fill="#F1F1F1" height="47.9375" rx="12.5" ry="12.5" style="stroke:#181818;stroke-width:0.5;" width="154.5254" x="88.0908" y="272.5469"/><text fill="#000000" font-family="sans-serif" font-size="12" lengthAdjust="spacing" textLength="59.7715" x="98.0908" y="293.6855">step: step</text><text fill="#000000" font-family="sans-serif" font-size="12" lengthAdjust="spacing" textLength="134.5254" x="98.0908" y="307.6543">CommandLineTool: clt</text><polygon fill="#F1F1F1" points="165.3535,228.5469,177.3535,240.5469,165.3535,252.5469,153.3535,240.5469,165.3535,228.5469" style="stroke:#181818;stroke-width:0.5;"/><polygon fill="#F1F1F1" points="107.1416,340.4844,223.5654,340.4844,235.5654,352.4844,223.5654,364.4844,107.1416,364.4844,95.1416,352.4844,107.1416,340.4844" style="stroke:#181818;stroke-width:0.5;"/><text fill="#000000" font-family="sans-serif" font-size="11" lengthAdjust="spacing" textLength="116.4238" x="107.1416" y="356.2925">dotproduct step/item</text><line style="stroke:#181818;stroke-width:1.5;" x1="160.3535" x2="165.3535" y1="384.4844" y2="384.4844"/><polygon fill="#F1F1F1" points="110.4863,404.4844,210.2207,404.4844,220.2207,421.4688,210.2207,438.4531,110.4863,438.4531" style="stroke:#181818;stroke-width:0.5;"/><text fill="#000000" font-family="sans-serif" font-size="12" lengthAdjust="spacing" textLength="79.7344" x="120.4863" y="425.623">water_bodies</text><line style="stroke:#181818;stroke-width:1.5;" x1="160.3535" x2="165.3535" y1="458.4531" y2="458.4531"/><ellipse cx="165.3535" cy="501.4531" fill="none" rx="11" ry="11" style="stroke:#222222;stroke-width:1;"/><ellipse cx="165.3535" cy="501.4531" fill="#222222" rx="6" ry="6" style="stroke:#222222;stroke-width:1;"/><line style="stroke:#181818;stroke-width:1;" x1="42.0146" x2="42.0146" y1="136.0781" y2="154.5781"/><polygon fill="#181818" points="38.0146,144.5781,42.0146,154.5781,46.0146,144.5781,42.0146,148.5781" style="stroke:#181818;stroke-width:1;"/><line style="stroke:#181818;stroke-width:1;" x1="105.4639" x2="105.4639" y1="136.0781" y2="154.5781"/><polygon fill="#181818" points="101.4639,144.5781,105.4639,154.5781,109.4639,144.5781,105.4639,148.5781" style="stroke:#181818;stroke-width:1;"/><line style="stroke:#181818;stroke-width:1;" x1="196.1211" x2="196.1211" y1="136.0781" y2="154.5781"/><polygon fill="#181818" points="192.1211,144.5781,196.1211,154.5781,200.1211,144.5781,196.1211,148.5781" style="stroke:#181818;stroke-width:1;"/><line style="stroke:#181818;stroke-width:1;" x1="289.0254" x2="289.0254" y1="136.0781" y2="154.5781"/><polygon fill="#181818" points="285.0254,144.5781,289.0254,154.5781,293.0254,144.5781,289.0254,148.5781" style="stroke:#181818;stroke-width:1;"/><line style="stroke:#181818;stroke-width:1;" x1="42.0146" x2="42.0146" y1="188.5469" y2="208.5469"/><polygon fill="#181818" points="38.0146,198.5469,42.0146,208.5469,46.0146,198.5469,42.0146,202.5469" style="stroke:#181818;stroke-width:1;"/><line style="stroke:#181818;stroke-width:1;" x1="105.4639" x2="105.4639" y1="188.5469" y2="208.5469"/><polygon fill="#181818" points="101.4639,198.5469,105.4639,208.5469,109.4639,198.5469,105.4639,202.5469" style="stroke:#181818;stroke-width:1;"/><line style="stroke:#181818;stroke-width:1;" x1="196.1211" x2="196.1211" y1="188.5469" y2="208.5469"/><polygon fill="#181818" points="192.1211,198.5469,196.1211,208.5469,200.1211,198.5469,196.1211,202.5469" style="stroke:#181818;stroke-width:1;"/><line style="stroke:#181818;stroke-width:1;" x1="289.0254" x2="289.0254" y1="188.5469" y2="208.5469"/><polygon fill="#181818" points="285.0254,198.5469,289.0254,208.5469,293.0254,198.5469,289.0254,202.5469" style="stroke:#181818;stroke-width:1;"/><line style="stroke:#181818;stroke-width:1;" x1="165.3535" x2="165.3535" y1="252.5469" y2="272.5469"/><polygon fill="#181818" points="161.3535,262.5469,165.3535,272.5469,169.3535,262.5469,165.3535,266.5469" style="stroke:#181818;stroke-width:1;"/><line style="stroke:#181818;stroke-width:1;" x1="235.5654" x2="254.6162" y1="352.4844" y2="352.4844"/><polygon fill="#181818" points="250.6162,306.5156,254.6162,296.5156,258.6162,306.5156,254.6162,302.5156" style="stroke:#181818;stroke-width:1;"/><line style="stroke:#181818;stroke-width:1;" x1="254.6162" x2="254.6162" y1="240.5469" y2="352.4844"/><line style="stroke:#181818;stroke-width:1;" x1="254.6162" x2="177.3535" y1="240.5469" y2="240.5469"/><polygon fill="#181818" points="187.3535,236.5469,177.3535,240.5469,187.3535,244.5469,183.3535,240.5469" style="stroke:#181818;stroke-width:1;"/><line style="stroke:#181818;stroke-width:1;" x1="165.3535" x2="165.3535" y1="320.4844" y2="340.4844"/><polygon fill="#181818" points="161.3535,330.4844,165.3535,340.4844,169.3535,330.4844,165.3535,334.4844" style="stroke:#181818;stroke-width:1;"/><line style="stroke:#181818;stroke-width:1;" x1="165.3535" x2="165.3535" y1="210.0469" y2="228.5469"/><polygon fill="#181818" points="161.3535,218.5469,165.3535,228.5469,169.3535,218.5469,165.3535,222.5469" style="stroke:#181818;stroke-width:1;"/><line style="stroke:#181818;stroke-width:1;" x1="160.3535" x2="160.3535" y1="385.9844" y2="404.4844"/><polygon fill="#181818" points="156.3535,394.4844,160.3535,404.4844,164.3535,394.4844,160.3535,398.4844" style="stroke:#181818;stroke-width:1;"/><line style="stroke:#181818;stroke-width:1;" x1="160.3535" x2="160.3535" y1="438.4531" y2="458.4531"/><polygon fill="#181818" points="156.3535,448.4531,160.3535,458.4531,164.3535,448.4531,160.3535,452.4531" style="stroke:#181818;stroke-width:1;"/><line style="stroke:#181818;stroke-width:1;" x1="165.3535" x2="165.3535" y1="364.4844" y2="384.4844"/><polygon fill="#181818" points="161.3535,374.4844,165.3535,384.4844,169.3535,374.4844,165.3535,378.4844" style="stroke:#181818;stroke-width:1;"/><line style="stroke:#181818;stroke-width:1;" x1="165.3535" x2="165.3535" y1="88.2813" y2="134.5781"/><polygon fill="#181818" points="161.3535,124.5781,165.3535,134.5781,169.3535,124.5781,165.3535,128.5781" style="stroke:#181818;stroke-width:1;"/><line style="stroke:#181818;stroke-width:1;" x1="165.3535" x2="165.3535" y1="459.9531" y2="490.4531"/><polygon fill="#181818" points="161.3535,480.4531,165.3535,490.4531,169.3535,480.4531,165.3535,484.4531" style="stroke:#181818;stroke-width:1;"/><?plantuml-src XP5DJyCm38Rl-HM-3Gxz8AlObasxm97ZxYXjh18fNqfTAluzIOfW8AJvOCNnO-VLcsR3O0FFMevHMXZHOPI42leF61R3msmDlBTrrzLj1abRd4ZQ882t_B5gTnNlBWyxmVTYkwyF_92eXh74H68bnkZd044IONJLDlM2qSGWHKb2Uds4qqcxCDFvlBP1ZbAxAmZ3DDwcUkdKT1lJXFONXax1bQol736WNA--Pyj1J8J9WPpPaxSslVgY7LwyDm86GySVTDq1ovis27VAKuXUpGELuIOBkSyc_VLaIPyGNtklD1QXVgR_bUQwE9oNa0-V?></g></svg>