<?plantuml 1.2026.2?><svg xmlns="http://www.w3.org/2000/svg" xmlns:xlink="http://www.w3.org/1999/xlink" contentStyleType="text/css" data-diagram-type="JSON" height="111px" preserveAspectRatio="none" style="width:861px;height:111px;background:#FFFFFF;" version="1.1" viewBox="0 0 861 111" width="861px" zoomAndPan="magnify"><defs/><g><rect fill="#F1F1F1" height="20.2969" rx="5" ry="5" style="stroke:#F1F1F1;stroke-width:1.5;" width="148.4131" x="10" y="49"/><text fill="#000000" font-family="sans-serif" font-size="14" font-weight="bold" lengthAdjust="spacing" textLength="115.0625" x="15" y="63.9951">echoed_values</text><text fill="#000000" font-family="sans-serif" font-size="14" lengthAdjust="spacing" textLength="13.3506" x="140.0625" y="63.9951">&#160;&#160;&#160;</text><line style="stroke:#000000;stroke-width:1;" x1="135.0625" x2="135.0625" y1="49" y2="69.2969"/><rect fill="none" height="20.2969" rx="5" ry="5" style="stroke:#000000;stroke-width:1.5;" width="148.4131" x="10" y="49"/><rect fill="#F1F1F1" height="81.1875" rx="5" ry="5" style="stroke:#F1F1F1;stroke-width:1.5;" width="363.376" x="195" y="18.5547"/><text fill="#000000" font-family="sans-serif" font-size="14" font-weight="bold" lengthAdjust="spacing" textLength="60.1289" x="200" y="33.5498">schema</text><text fill="#000000" font-family="sans-serif" font-size="14" lengthAdjust="spacing" textLength="13.3506" x="298.9492" y="33.5498">&#160;&#160;&#160;</text><line style="stroke:#000000;stroke-width:1;" x1="293.9492" x2="293.9492" y1="18.5547" y2="38.8516"/><line style="stroke:#000000;stroke-width:1;" x1="195" x2="558.376" y1="38.8516" y2="38.8516"/><text fill="#000000" font-family="sans-serif" font-size="14" font-weight="bold" lengthAdjust="spacing" textLength="75.8311" x="200" y="53.8467">metadata</text><text fill="#000000" font-family="sans-serif" font-size="14" lengthAdjust="spacing" textLength="13.3506" x="298.9492" y="53.8467">&#160;&#160;&#160;</text><line style="stroke:#000000;stroke-width:1;" x1="293.9492" x2="293.9492" y1="38.8516" y2="59.1484"/><line style="stroke:#000000;stroke-width:1;" x1="195" x2="558.376" y1="59.1484" y2="59.1484"/><text fill="#000000" font-family="sans-serif" font-size="14" font-weight="bold" lengthAdjust="spacing" textLength="32.4775" x="200" y="74.1436">title</text><text fill="#000000" font-family="sans-serif" font-size="14" lengthAdjust="spacing" textLength="102.7578" x="298.9492" y="74.1436">Echoed Values</text><line style="stroke:#000000;stroke-width:1;" x1="293.9492" x2="293.9492" y1="59.1484" y2="79.4453"/><line style="stroke:#000000;stroke-width:1;" x1="195" x2="558.376" y1="79.4453" y2="79.4453"/><text fill="#000000" font-family="sans-serif" font-size="14" font-weight="bold" lengthAdjust="spacing" textLength="88.9492" x="200" y="94.4404">description</text><text fill="#000000" font-family="sans-serif" font-size="14" lengthAdjust="spacing" textLength="254.4268" x="298.9492" y="94.4404">The string containing echoed values</text><line style="stroke:#000000;stroke-width:1;" x1="293.9492" x2="293.9492" y1="79.4453" y2="99.7422"/><rect fill="none" height="81.1875" rx="5" ry="5" style="stroke:#000000;stroke-width:1.5;" width="363.376" x="195" y="18.5547"/><rect fill="#F1F1F1" height="20.2969" rx="5" ry="5" style="stroke:#F1F1F1;stroke-width:1.5;" width="95.5234" x="595" y="10"/><text fill="#000000" font-family="sans-serif" font-size="14" font-weight="bold" lengthAdjust="spacing" textLength="35.335" x="600" y="24.9951">type</text><text fill="#000000" font-family="sans-serif" font-size="14" lengthAdjust="spacing" textLength="40.1885" x="645.335" y="24.9951">string</text><line style="stroke:#000000;stroke-width:1;" x1="640.335" x2="640.335" y1="10" y2="30.2969"/><rect fill="none" height="20.2969" rx="5" ry="5" style="stroke:#000000;stroke-width:1.5;" width="95.5234" x="595" y="10"/><rect fill="#F1F1F1" height="20.2969" rx="5" ry="5" style="stroke:#F1F1F1;stroke-width:1.5;" width="23.3506" x="631.5" y="48"/><text fill="#000000" font-family="sans-serif" font-size="14" lengthAdjust="spacing" textLength="13.3506" x="636.5" y="62.9951">&#160;&#160;&#160;</text><rect fill="none" height="20.2969" rx="5" ry="5" style="stroke:#000000;stroke-width:1.5;" width="23.3506" x="631.5" y="48"/><rect fill="#F1F1F1" height="40.5938" rx="5" ry="5" style="stroke:#F1F1F1;stroke-width:1.5;" width="121.8623" x="728" y="37.6484"/><text fill="#000000" font-family="sans-serif" font-size="14" font-weight="bold" lengthAdjust="spacing" textLength="32.4775" x="733" y="52.6436">title</text><text fill="#000000" font-family="sans-serif" font-size="14" lengthAdjust="spacing" textLength="59.0283" x="785.834" y="52.6436">cwl:type</text><line style="stroke:#000000;stroke-width:1;" x1="780.834" x2="780.834" y1="37.6484" y2="57.9453"/><line style="stroke:#000000;stroke-width:1;" x1="728" x2="849.8623" y1="57.9453" y2="57.9453"/><text fill="#000000" font-family="sans-serif" font-size="14" font-weight="bold" lengthAdjust="spacing" textLength="42.834" x="733" y="72.9404">value</text><text fill="#000000" font-family="sans-serif" font-size="14" lengthAdjust="spacing" textLength="40.1885" x="785.834" y="72.9404">string</text><line style="stroke:#000000;stroke-width:1;" x1="780.834" x2="780.834" y1="57.9453" y2="78.2422"/><rect fill="none" height="40.5938" rx="5" ry="5" style="stroke:#000000;stroke-width:1.5;" width="121.8623" x="728" y="37.6484"/><path d="M546,29.1484 L559,29.1484 C568.319,29.1484 578.1895,28.5874 587.7552,27.7456" fill="none" style="stroke:#000000;stroke-width:1;stroke-dasharray:3,3;"/><path d="M588.0472,30.7815 L590.0322,27.5266 L587.4632,24.7096 L595.3451,27.0156 L588.0472,30.7815" fill="#000000"/><ellipse cx="546" cy="29.1484" fill="#000000" rx="3" ry="3" style="stroke:#000000;stroke-width:1;"/><path d="M642.366,58.1484 L655.366,58.1484 C669.8932,58.1484 695.6606,58.1484 720.6813,58.1484" fill="none" style="stroke:#000000;stroke-width:1;stroke-dasharray:3,3;"/><path d="M720.6813,61.2396 L722.9997,58.1484 L720.6813,55.0573 L728.4091,58.1484 L720.6813,61.2396" fill="#000000"/><ellipse cx="642.366" cy="58.1484" fill="#000000" rx="3" ry="3" style="stroke:#000000;stroke-width:1;"/><path d="M546,49.1484 L559,49.1484 C581.6795,49.1484 607.6255,52.4711 624.4956,55.0787" fill="none" style="stroke:#000000;stroke-width:1;stroke-dasharray:3,3;"/><path d="M624.0136,58.0781 L626.7452,55.4402 L624.9776,52.0793 L631.9941,56.2836 L624.0136,58.0781" fill="#000000"/><ellipse cx="546" cy="49.1484" fill="#000000" rx="3" ry="3" style="stroke:#000000;stroke-width:1;"/><path d="M145.5,59.1484 L158.5,59.1484 C168.0537,59.1484 177.8434,59.1484 187.7292,59.1484" fill="none" style="stroke:#000000;stroke-width:1;stroke-dasharray:3,3;"/><path d="M187.7292,62.1789 L190.0021,59.1484 L187.7292,56.118 L195.3054,59.1484 L187.7292,62.1789" fill="#000000"/><ellipse cx="145.5" cy="59.1484" fill="#000000" rx="3" ry="3" style="stroke:#000000;stroke-width:1;"/><?plantuml-src NP312i8m38RlVOhGynYwWuUTTl4Dn8k8b3QuojQEDIeYUtVRj4xmrEJFdoz9kq1gfblmJhm5W4JTUpINXnhk66GBIOnoq3sEQisZGgy9Oou3pTPT9SjBbTqZaZAAalzK_D--r6bfu5Rz75h6LByY3_xdHZA_vy9V2NlU5evvsr8r6FHi9xBU9S-XHyWmqDwHiYw5-KueTueqOH4TEiDV8RPrisbsTVC1?></g></svg>