<?plantuml 1.2026.2?><svg xmlns="http://www.w3.org/2000/svg" xmlns:xlink="http://www.w3.org/1999/xlink" contentStyleType="text/css" data-diagram-type="JSON" height="190px" preserveAspectRatio="none" style="width:1689px;height:190px;background:#FFFFFF;" version="1.1" viewBox="0 0 1689 190" width="1689px" zoomAndPan="magnify"><defs/><g><rect fill="#F1F1F1" height="20.2969" rx="5" ry="5" style="stroke:#F1F1F1;stroke-width:1.5;" width="186.8447" x="10" y="127.3516"/><text fill="#000000" font-family="sans-serif" font-size="14" font-weight="bold" lengthAdjust="spacing" textLength="153.4941" x="15" y="142.3467">vegetation_indexes</text><text fill="#000000" font-family="sans-serif" font-size="14" lengthAdjust="spacing" textLength="13.3506" x="178.4941" y="142.3467">&#160;&#160;&#160;</text><line style="stroke:#000000;stroke-width:1;" x1="173.4941" x2="173.4941" y1="127.3516" y2="147.6484"/><rect fill="none" height="20.2969" rx="5" ry="5" style="stroke:#000000;stroke-width:1.5;" width="186.8447" x="10" y="127.3516"/><rect fill="#F1F1F1" height="81.1875" rx="5" ry="5" style="stroke:#F1F1F1;stroke-width:1.5;" width="244.4307" x="234" y="96.9063"/><text fill="#000000" font-family="sans-serif" font-size="14" font-weight="bold" lengthAdjust="spacing" textLength="60.1289" x="239" y="111.9014">schema</text><text fill="#000000" font-family="sans-serif" font-size="14" lengthAdjust="spacing" textLength="13.3506" x="337.9492" y="111.9014">&#160;&#160;&#160;</text><line style="stroke:#000000;stroke-width:1;" x1="332.9492" x2="332.9492" y1="96.9063" y2="117.2031"/><line style="stroke:#000000;stroke-width:1;" x1="234" x2="478.4307" y1="117.2031" y2="117.2031"/><text fill="#000000" font-family="sans-serif" font-size="14" font-weight="bold" lengthAdjust="spacing" textLength="75.8311" x="239" y="132.1982">metadata</text><text fill="#000000" font-family="sans-serif" font-size="14" lengthAdjust="spacing" textLength="13.3506" x="337.9492" y="132.1982">&#160;&#160;&#160;</text><line style="stroke:#000000;stroke-width:1;" x1="332.9492" x2="332.9492" y1="117.2031" y2="137.5"/><line style="stroke:#000000;stroke-width:1;" x1="234" x2="478.4307" y1="137.5" y2="137.5"/><text fill="#000000" font-family="sans-serif" font-size="14" font-weight="bold" lengthAdjust="spacing" textLength="32.4775" x="239" y="152.4951">title</text><text fill="#000000" font-family="sans-serif" font-size="14" lengthAdjust="spacing" textLength="135.4814" x="337.9492" y="152.4951">Vegetation indexes</text><line style="stroke:#000000;stroke-width:1;" x1="332.9492" x2="332.9492" y1="137.5" y2="157.7969"/><line style="stroke:#000000;stroke-width:1;" x1="234" x2="478.4307" y1="157.7969" y2="157.7969"/><text fill="#000000" font-family="sans-serif" font-size="14" font-weight="bold" lengthAdjust="spacing" textLength="88.9492" x="239" y="172.792">description</text><text fill="#000000" font-family="sans-serif" font-size="14" lengthAdjust="spacing" textLength="135.4814" x="337.9492" y="172.792">Vegetation indexes</text><line style="stroke:#000000;stroke-width:1;" x1="332.9492" x2="332.9492" y1="157.7969" y2="178.0938"/><rect fill="none" height="81.1875" rx="5" ry="5" style="stroke:#000000;stroke-width:1.5;" width="244.4307" x="234" y="96.9063"/><rect fill="#F1F1F1" height="40.5938" rx="5" ry="5" style="stroke:#F1F1F1;stroke-width:1.5;" width="100.8623" x="515" y="70"/><text fill="#000000" font-family="sans-serif" font-size="14" font-weight="bold" lengthAdjust="spacing" textLength="35.335" x="520" y="84.9951">type</text><text fill="#000000" font-family="sans-serif" font-size="14" lengthAdjust="spacing" textLength="36.9551" x="573.9072" y="84.9951">array</text><line style="stroke:#000000;stroke-width:1;" x1="568.9072" x2="568.9072" y1="70" y2="90.2969"/><line style="stroke:#000000;stroke-width:1;" x1="515" x2="615.8623" y1="90.2969" y2="90.2969"/><text fill="#000000" font-family="sans-serif" font-size="14" font-weight="bold" lengthAdjust="spacing" textLength="43.9072" x="520" y="105.292">items</text><text fill="#000000" font-family="sans-serif" font-size="14" lengthAdjust="spacing" textLength="13.3506" x="573.9072" y="105.292">&#160;&#160;&#160;</text><line style="stroke:#000000;stroke-width:1;" x1="568.9072" x2="568.9072" y1="90.2969" y2="110.5938"/><rect fill="none" height="40.5938" rx="5" ry="5" style="stroke:#000000;stroke-width:1.5;" width="100.8623" x="515" y="70"/><rect fill="#F1F1F1" height="20.2969" rx="5" ry="5" style="stroke:#F1F1F1;stroke-width:1.5;" width="80.4229" x="682.5" y="88.3516"/><text fill="#000000" font-family="sans-serif" font-size="14" font-weight="bold" lengthAdjust="spacing" textLength="47.0723" x="687.5" y="103.3467">oneOf</text><text fill="#000000" font-family="sans-serif" font-size="14" lengthAdjust="spacing" textLength="13.3506" x="744.5723" y="103.3467">&#160;&#160;&#160;</text><line style="stroke:#000000;stroke-width:1;" x1="739.5723" x2="739.5723" y1="88.3516" y2="108.6484"/><rect fill="none" height="20.2969" rx="5" ry="5" style="stroke:#000000;stroke-width:1.5;" width="80.4229" x="682.5" y="88.3516"/><rect fill="#F1F1F1" height="81.1875" rx="5" ry="5" style="stroke:#F1F1F1;stroke-width:1.5;" width="23.3506" x="829" y="57.9063"/><text fill="#000000" font-family="sans-serif" font-size="14" lengthAdjust="spacing" textLength="13.3506" x="834" y="72.9014">&#160;&#160;&#160;</text><line style="stroke:#000000;stroke-width:1;" x1="829" x2="852.3506" y1="78.2031" y2="78.2031"/><text fill="#000000" font-family="sans-serif" font-size="14" lengthAdjust="spacing" textLength="13.3506" x="834" y="93.1982">&#160;&#160;&#160;</text><line style="stroke:#000000;stroke-width:1;" x1="829" x2="852.3506" y1="98.5" y2="98.5"/><text fill="#000000" font-family="sans-serif" font-size="14" lengthAdjust="spacing" textLength="13.3506" x="834" y="113.4951">&#160;&#160;&#160;</text><line style="stroke:#000000;stroke-width:1;" x1="829" x2="852.3506" y1="118.7969" y2="118.7969"/><text fill="#000000" font-family="sans-serif" font-size="14" lengthAdjust="spacing" textLength="13.3506" x="834" y="133.792">&#160;&#160;&#160;</text><rect fill="none" height="81.1875" rx="5" ry="5" style="stroke:#000000;stroke-width:1.5;" width="23.3506" x="829" y="57.9063"/><rect fill="#F1F1F1" height="40.5938" rx="5" ry="5" style="stroke:#F1F1F1;stroke-width:1.5;" width="113.5293" x="1226.5" y="10"/><text fill="#000000" font-family="sans-serif" font-size="14" font-weight="bold" lengthAdjust="spacing" textLength="35.335" x="1231.5" y="24.9951">type</text><text fill="#000000" font-family="sans-serif" font-size="14" lengthAdjust="spacing" textLength="40.1885" x="1294.8408" y="24.9951">string</text><line style="stroke:#000000;stroke-width:1;" x1="1289.8408" x2="1289.8408" y1="10" y2="30.2969"/><line style="stroke:#000000;stroke-width:1;" x1="1226.5" x2="1340.0293" y1="30.2969" y2="30.2969"/><text fill="#000000" font-family="sans-serif" font-size="14" font-weight="bold" lengthAdjust="spacing" textLength="53.3408" x="1231.5" y="45.292">format</text><text fill="#000000" font-family="sans-serif" font-size="14" lengthAdjust="spacing" textLength="18.5186" x="1294.8408" y="45.292">uri</text><line style="stroke:#000000;stroke-width:1;" x1="1289.8408" x2="1289.8408" y1="30.2969" y2="50.5938"/><rect fill="none" height="40.5938" rx="5" ry="5" style="stroke:#000000;stroke-width:1.5;" width="113.5293" x="1226.5" y="10"/><rect fill="#F1F1F1" height="20.2969" rx="5" ry="5" style="stroke:#F1F1F1;stroke-width:1.5;" width="543.0791" x="1012" y="69.3516"/><text fill="#000000" font-family="sans-serif" font-size="14" font-weight="bold" lengthAdjust="spacing" textLength="32.2314" x="1017" y="84.3467">$ref</text><text fill="#000000" font-family="sans-serif" font-size="14" lengthAdjust="spacing" textLength="490.8477" x="1059.2314" y="84.3467">https://schemas.stacspec.org/v1.0.0/item-spec/json-schema/item.json</text><line style="stroke:#000000;stroke-width:1;" x1="1054.2314" x2="1054.2314" y1="69.3516" y2="89.6484"/><rect fill="none" height="20.2969" rx="5" ry="5" style="stroke:#000000;stroke-width:1.5;" width="543.0791" x="1012" y="69.3516"/><rect fill="#F1F1F1" height="20.2969" rx="5" ry="5" style="stroke:#F1F1F1;stroke-width:1.5;" width="614.1592" x="976.5" y="107.3516"/><text fill="#000000" font-family="sans-serif" font-size="14" font-weight="bold" lengthAdjust="spacing" textLength="32.2314" x="981.5" y="122.3467">$ref</text><text fill="#000000" font-family="sans-serif" font-size="14" lengthAdjust="spacing" textLength="561.9277" x="1023.7314" y="122.3467">https://schemas.stacspec.org/v1.0.0/collection-spec/json-schema/collection.json</text><line style="stroke:#000000;stroke-width:1;" x1="1018.7314" x2="1018.7314" y1="107.3516" y2="127.6484"/><rect fill="none" height="20.2969" rx="5" ry="5" style="stroke:#000000;stroke-width:1.5;" width="614.1592" x="976.5" y="107.3516"/><rect fill="#F1F1F1" height="20.2969" rx="5" ry="5" style="stroke:#F1F1F1;stroke-width:1.5;" width="788.5986" x="889" y="145.3516"/><text fill="#000000" font-family="sans-serif" font-size="14" font-weight="bold" lengthAdjust="spacing" textLength="32.2314" x="894" y="160.3467">$ref</text><text fill="#000000" font-family="sans-serif" font-size="14" lengthAdjust="spacing" textLength="736.3672" x="936.2314" y="160.3467">https://schemas.opengis.net/ogcapi/features/part1/1.0/openapi/schemas/featureCollectionGeoJSON.yaml</text><line style="stroke:#000000;stroke-width:1;" x1="931.2314" x2="931.2314" y1="145.3516" y2="165.6484"/><rect fill="none" height="20.2969" rx="5" ry="5" style="stroke:#000000;stroke-width:1.5;" width="788.5986" x="889" y="145.3516"/><rect fill="#F1F1F1" height="20.2969" rx="5" ry="5" style="stroke:#F1F1F1;stroke-width:1.5;" width="23.3506" x="554" y="134.3516"/><text fill="#000000" font-family="sans-serif" font-size="14" lengthAdjust="spacing" textLength="13.3506" x="559" y="149.3467">&#160;&#160;&#160;</text><rect fill="none" height="20.2969" rx="5" ry="5" style="stroke:#000000;stroke-width:1.5;" width="23.3506" x="554" y="134.3516"/><rect fill="#F1F1F1" height="40.5938" rx="5" ry="5" style="stroke:#F1F1F1;stroke-width:1.5;" width="138.5898" x="653" y="127"/><text fill="#000000" font-family="sans-serif" font-size="14" font-weight="bold" lengthAdjust="spacing" textLength="32.4775" x="658" y="141.9951">title</text><text fill="#000000" font-family="sans-serif" font-size="14" lengthAdjust="spacing" textLength="59.0283" x="710.834" y="141.9951">cwl:type</text><line style="stroke:#000000;stroke-width:1;" x1="705.834" x2="705.834" y1="127" y2="147.2969"/><line style="stroke:#000000;stroke-width:1;" x1="653" x2="791.5898" y1="147.2969" y2="147.2969"/><text fill="#000000" font-family="sans-serif" font-size="14" font-weight="bold" lengthAdjust="spacing" textLength="42.834" x="658" y="162.292">value</text><text fill="#000000" font-family="sans-serif" font-size="14" lengthAdjust="spacing" textLength="75.7559" x="710.834" y="162.292">Directory[]</text><line style="stroke:#000000;stroke-width:1;" x1="705.834" x2="705.834" y1="147.2969" y2="167.5938"/><rect fill="none" height="40.5938" rx="5" ry="5" style="stroke:#000000;stroke-width:1.5;" width="138.5898" x="653" y="127"/><path d="M840,68.5 L853,68.5 C869.3903,68.5 872.7873,62.9061 889,60.5 C1004.6279,43.3399 1140.8881,35.7326 1219.0858,32.5637" fill="none" style="stroke:#000000;stroke-width:1;stroke-dasharray:3,3;"/><path d="M1219.2101,35.7029 L1221.4402,32.4704 L1218.9614,29.4245 L1226.9338,32.2527 L1219.2101,35.7029" fill="#000000"/><ellipse cx="840" cy="68.5" fill="#000000" rx="3" ry="3" style="stroke:#000000;stroke-width:1;"/><path d="M840,88.5 L853,88.5 C902.006,88.5 954.1467,87.9085 1004.5939,87.0287" fill="none" style="stroke:#000000;stroke-width:1;stroke-dasharray:3,3;"/><path d="M1004.649,90.1307 L1006.9204,86.9874 L1004.5388,83.9267 L1012.3489,86.891 L1004.649,90.1307" fill="#000000"/><ellipse cx="840" cy="88.5" fill="#000000" rx="3" ry="3" style="stroke:#000000;stroke-width:1;"/><path d="M840,108.5 L853,108.5 C890.5387,108.5 929.9168,108.8471 968.9641,109.4049" fill="none" style="stroke:#000000;stroke-width:1;stroke-dasharray:3,3;"/><path d="M968.9184,112.5267 L971.3054,109.4392 L969.0098,106.2832 L976.7685,109.5193 L968.9184,112.5267" fill="#000000"/><ellipse cx="840" cy="108.5" fill="#000000" rx="3" ry="3" style="stroke:#000000;stroke-width:1;"/><path d="M840,128.5 L853,128.5 C869.3903,128.5 872.7554,134.3196 889,136.5 C912.9891,139.7199 937.8642,142.4129 962.9236,144.6631" fill="none" style="stroke:#000000;stroke-width:1;stroke-dasharray:3,3;"/><path d="M962.6499,147.776 L965.2582,144.8684 L963.1972,141.5502 L970.7057,145.3473 L962.6499,147.776" fill="#000000"/><ellipse cx="840" cy="128.5" fill="#000000" rx="3" ry="3" style="stroke:#000000;stroke-width:1;"/><path d="M750,98.5 L763,98.5 C782.8516,98.5 805.582,98.5 821.1715,98.5" fill="none" style="stroke:#000000;stroke-width:1;stroke-dasharray:3,3;"/><path d="M821.1715,101.645 L823.5302,98.5 L821.1715,95.355 L829.034,98.5 L821.1715,101.645" fill="#000000"/><ellipse cx="750" cy="98.5" fill="#000000" rx="3" ry="3" style="stroke:#000000;stroke-width:1;"/><path d="M604,100.5 L617,100.5 C635.9846,100.5 656.8964,100.1691 675.027,99.7765" fill="none" style="stroke:#000000;stroke-width:1;stroke-dasharray:3,3;"/><path d="M675.0955,102.811 L677.3029,99.7252 L674.9585,96.742 L682.6133,99.6053 L675.0955,102.811" fill="#000000"/><ellipse cx="604" cy="100.5" fill="#000000" rx="3" ry="3" style="stroke:#000000;stroke-width:1;"/><path d="M465.5,107.5 L478.5,107.5 C488.1347,107.5 498.2618,106.472 508.0563,104.9215" fill="none" style="stroke:#000000;stroke-width:1;stroke-dasharray:3,3;"/><path d="M508.5679,107.8861 L510.2797,104.5378 L507.5446,101.9569 L515.4677,103.6424 L508.5679,107.8861" fill="#000000"/><ellipse cx="465.5" cy="107.5" fill="#000000" rx="3" ry="3" style="stroke:#000000;stroke-width:1;"/><path d="M564.7278,144.4755 L577.7254,144.7255 C592.4941,145.0095 619.1472,145.5221 645.5615,146.03" fill="none" style="stroke:#000000;stroke-width:1;stroke-dasharray:3,3;"/><path d="M645.5014,149.1515 L647.9026,146.075 L645.6215,142.9086 L653.3651,146.1801 L645.5014,149.1515" fill="#000000"/><ellipse cx="564.7278" cy="144.4755" fill="#000000" rx="3" ry="3" style="stroke:#000000;stroke-width:1;"/><path d="M465.5,127.5 L478.5,127.5 C502.655,127.5 529.9041,133.9616 547.251,138.9174" fill="none" style="stroke:#000000;stroke-width:1;stroke-dasharray:3,3;"/><path d="M546.394,141.8081 L549.419,139.5601 L548.108,136.0267 L554.4777,141.0598 L546.394,141.8081" fill="#000000"/><ellipse cx="465.5" cy="127.5" fill="#000000" rx="3" ry="3" style="stroke:#000000;stroke-width:1;"/><path d="M185,137.5 L198,137.5 C207.2776,137.5 216.8627,137.5 226.5107,137.5" fill="none" style="stroke:#000000;stroke-width:1;stroke-dasharray:3,3;"/><path d="M226.5107,140.5985 L228.8346,137.5 L226.5107,134.4015 L234.2571,137.5 L226.5107,140.5985" fill="#000000"/><ellipse cx="185" cy="137.5" fill="#000000" rx="3" ry="3" style="stroke:#000000;stroke-width:1;"/><?plantuml-src jLEnReCm5Dpv2cHrJ6nWw90fKYjLwj0CbRf4gBBC2t45jcK_Q56LVwzDY0EgihKRlZlUtJF7rY6t-E6qIhwJD2Kzr80SfLRlKbNm1Oviqi1upeaZj3oUFOA30Nyct5e-aDK5bWYjc-ayf1Ni3XxQHoYTqOjX3grKTPmsiGTjMuw1xwmaC-wqkZtopa8m9KT4upQCdJTmr2yjd051jQrPdzECPYo4NWUGXTjOdwKZIWFm7vP2Dms8SDc_ZQ_SdzXh0wgMZYf0fcl1ZMG7uDXPSCpu1kJCHs915QZfhOla8MPv0ltykdkX0s-RHQJuN2PpP8fAMb-gYYEVDM1M3fJOZ9zUV3QRiGRN3KdFcsua7wNr8RGTzYLPc9IJIHpp5akSNaeyIIfmmaeJg1l294mz9LjGrVXN93ajikAU5Zy0?></g></svg>